<?xml version="1.0" standalone="no"?>
<!DOCTYPE svg PUBLIC "-//W3C//DTD SVG 20010904//EN"
 "http://www.w3.org/TR/2001/REC-SVG-20010904/DTD/svg10.dtd">
<svg version="1.0" xmlns="http://www.w3.org/2000/svg"
 width="913.000000pt" height="685.000000pt" viewBox="0 0 913.000000 685.000000"
 preserveAspectRatio="xMidYMid meet">
<metadata>
Created by potrace 1.16, written by Peter Selinger 2001-2019
</metadata>
<g transform="translate(0.000000,685.000000) scale(0.100000,-0.100000)"
fill="#000000" stroke="none">
<path d="M8450 6750 l0 -40 50 0 50 0 0 40 0 40 -50 0 -50 0 0 -40z m90 -5 c0
-22 -4 -25 -40 -25 -36 0 -40 3 -40 25 0 23 4 25 40 25 36 0 40 -2 40 -25z"/>
<path d="M3893 6743 c-4 -11 3 -23 20 -37 35 -28 36 -50 2 -44 -14 3 -25 1
-25 -4 0 -5 12 -8 28 -6 38 4 42 40 7 56 -31 14 -28 34 6 43 23 7 23 7 -4 8
-17 1 -30 -5 -34 -16z"/>
<path d="M4233 6705 c0 -33 2 -45 4 -27 2 18 2 45 0 60 -2 15 -4 0 -4 -33z"/>
<path d="M4406 6744 c-20 -19 -21 -68 -2 -84 26 -20 61 -8 64 23 3 21 -1 27
-15 26 -10 0 -13 -3 -5 -6 19 -8 15 -43 -6 -43 -24 0 -42 19 -42 46 0 28 24
48 50 41 11 -3 20 -1 20 4 0 15 -47 10 -64 -7z"/>
<path d="M4796 6744 c-20 -19 -21 -68 -2 -84 26 -20 61 -8 64 23 3 21 -1 27
-15 26 -10 0 -13 -3 -5 -6 19 -8 15 -43 -6 -43 -24 0 -42 19 -42 46 0 28 24
48 50 41 11 -3 20 -1 20 4 0 15 -47 10 -64 -7z"/>
<path d="M5182 6705 c1 -47 2 -52 7 -25 4 22 12 35 21 35 9 0 18 -13 22 -35
l6 -35 -1 40 c-2 33 -6 40 -22 40 -11 0 -23 9 -27 20 -3 11 -6 -7 -6 -40z"/>
<path d="M5140 6742 c0 -6 -9 -12 -20 -15 -12 -3 -20 -13 -19 -24 1 -16 2 -16
6 0 8 32 33 19 33 -18 0 -27 4 -35 18 -34 10 0 12 3 5 6 -15 5 -18 60 -4 65 5
2 3 9 -5 16 -8 7 -14 9 -14 4z"/>
<path d="M3973 6690 c0 -25 2 -35 4 -22 2 12 2 32 0 45 -2 12 -4 2 -4 -23z"/>
<path d="M4011 6686 c1 -42 3 -41 13 7 10 42 36 35 37 -10 l2 -38 6 35 c4 22
12 35 21 35 9 0 18 -13 22 -35 l6 -35 -1 40 -2 40 -52 1 -53 1 1 -41z"/>
<path d="M4141 6673 c1 -32 4 -49 6 -37 3 16 10 20 28 16 19 -3 25 1 31 22 8
34 -1 56 -23 56 -17 -1 -17 -1 0 -11 21 -13 22 -48 1 -56 -19 -7 -36 15 -28
39 2 9 0 19 -6 23 -6 4 -10 -14 -9 -52z"/>
<path d="M4281 6716 c-21 -25 -10 -61 19 -63 25 -3 25 -3 3 7 -31 13 -29 30 3
30 19 0 25 5 22 17 -4 23 -31 28 -47 9z m39 -6 c0 -5 -9 -10 -21 -10 -11 0
-17 5 -14 10 3 6 13 10 21 10 8 0 14 -4 14 -10z"/>
<path d="M4491 6685 c2 -33 3 -35 6 -10 2 17 11 35 20 42 13 10 13 12 -6 10
-18 -1 -21 -7 -20 -42z"/>
<path d="M4570 6719 l25 -11 -28 -10 c-37 -13 -33 -43 6 -44 26 -1 28 1 25 35
-3 30 -7 36 -28 38 l-25 3 25 -11z m20 -39 c0 -12 -28 -25 -36 -17 -9 9 6 27
22 27 8 0 14 -5 14 -10z"/>
<path d="M4623 6690 c0 -25 2 -35 4 -22 2 12 2 32 0 45 -2 12 -4 2 -4 -23z"/>
<path d="M4661 6686 l2 -41 6 35 c4 22 12 35 21 35 9 0 18 -13 22 -35 l6 -35
-1 40 c-2 36 -5 40 -29 41 -26 1 -28 -1 -27 -40z"/>
<path d="M4881 6685 c2 -33 3 -35 6 -10 2 17 11 35 20 42 13 10 13 12 -6 10
-18 -1 -21 -7 -20 -42z"/>
<path d="M4942 6718 c-19 -19 -15 -56 8 -63 28 -9 52 13 48 44 -3 29 -35 40
-56 19z m43 -28 c0 -16 -6 -26 -18 -28 -19 -4 -32 20 -23 44 9 25 41 13 41
-16z"/>
<path d="M5023 6690 c6 -22 15 -40 20 -40 5 0 6 8 2 18 -4 9 -10 27 -12 40 -3
12 -9 22 -13 22 -4 0 -2 -18 3 -40z"/>
<path d="M5056 6714 c-3 -9 -6 -21 -5 -27 0 -7 4 -3 8 8 7 17 9 16 15 -12 8
-33 26 -46 26 -18 0 8 -4 15 -10 15 -5 0 -10 9 -10 19 0 26 -16 35 -24 15z"/>
<path d="M8190 6720 c0 -5 18 -10 40 -10 22 0 40 5 40 10 0 6 -18 10 -40 10
-22 0 -40 -4 -40 -10z"/>
<path d="M110 6700 c0 -23 4 -24 31 -10 27 15 24 30 -6 30 -18 0 -25 -5 -25
-20z"/>
<path d="M553 6593 c-28 -19 -30 -37 -3 -28 18 6 20 2 20 -34 0 -30 4 -41 15
-41 12 0 15 13 15 60 0 65 -7 71 -47 43z"/>
<path d="M653 6573 c-27 -10 -12 -24 20 -19 l32 6 -33 -15 c-48 -22 -40 -49
16 -52 41 -2 42 -1 42 31 0 48 -31 68 -77 49z m47 -53 c0 -5 -7 -10 -15 -10
-8 0 -15 5 -15 10 0 6 7 10 15 10 8 0 15 -4 15 -10z"/>
<path d="M170 6420 l0 -130 160 0 160 0 0 130 0 130 -160 0 -160 0 0 -130z
m290 0 l0 -100 -130 0 -130 0 0 100 0 100 130 0 130 0 0 -100z"/>
<path d="M241 6423 c1 -27 4 -38 6 -26 2 12 12 24 21 26 15 4 15 5 0 6 -10 0
-18 7 -18 15 0 8 8 17 18 19 13 4 11 5 -5 6 -21 1 -23 -3 -22 -46z"/>
<path d="M333 6425 c0 -27 2 -38 4 -22 2 15 2 37 0 50 -2 12 -4 0 -4 -28z"/>
<path d="M302 6410 c0 -19 2 -27 5 -17 2 9 2 25 0 35 -3 9 -5 1 -5 -18z"/>
<path d="M380 6430 c12 -8 10 -10 -9 -10 -17 0 -22 -4 -17 -16 3 -9 6 -18 6
-20 0 -2 10 -4 23 -3 21 0 21 1 -3 11 -25 11 -25 11 -2 15 26 5 30 33 5 33
-15 0 -16 -2 -3 -10z"/>
<path d="M1773 6333 c-28 -19 -30 -37 -3 -28 18 6 20 2 20 -34 0 -30 4 -41 15
-41 12 0 15 13 15 60 0 65 -7 71 -47 43z"/>
<path d="M1860 6291 l0 -60 33 1 c40 1 57 14 57 43 0 27 -24 49 -45 41 -10 -4
-15 1 -15 14 0 11 -7 20 -15 20 -12 0 -15 -13 -15 -59z m60 -16 c0 -16 -6 -25
-15 -25 -9 0 -15 9 -15 25 0 16 6 25 15 25 9 0 15 -9 15 -25z"/>
<path d="M180 6115 l0 -155 785 0 785 0 0 155 0 155 -785 0 -785 0 0 -155z
m1540 0 l0 -125 -755 0 -755 0 0 125 0 125 755 0 755 0 0 -125z"/>
<path d="M230 6104 c0 -43 1 -45 27 -42 14 2 28 10 31 18 4 12 2 13 -9 3 -24
-24 -39 -15 -39 23 0 33 2 36 25 32 13 -3 22 -1 19 3 -3 5 -16 9 -30 9 -22 0
-24 -4 -24 -46z"/>
<path d="M902 6133 c-5 -10 -5 -31 -1 -48 l7 -30 1 28 c0 15 7 27 14 27 8 0 7
4 -3 10 -13 9 -13 11 0 20 9 6 11 10 3 10 -7 0 -16 -8 -21 -17z"/>
<path d="M970 6145 c0 -6 5 -16 11 -22 9 -9 8 -18 -5 -37 -18 -29 -10 -36 10
-8 12 16 13 16 19 0 4 -10 11 -18 16 -18 5 0 3 10 -6 23 -13 21 -13 25 2 48
17 24 17 24 -4 6 -21 -18 -22 -18 -32 0 -6 10 -11 13 -11 8z"/>
<path d="M1290 6140 c-9 -6 -10 -10 -3 -10 6 0 14 -17 16 -37 3 -35 4 -34 5
10 1 26 1 47 0 47 -2 0 -10 -5 -18 -10z"/>
<path d="M1363 6143 c23 -6 22 -26 -3 -48 -27 -25 -25 -35 8 -34 24 2 25 2 4
6 l-24 5 22 23 c25 27 21 56 -7 54 -17 -1 -17 -2 0 -6z"/>
<path d="M1417 6143 c-4 -3 -7 -11 -7 -17 0 -6 4 -5 9 3 12 19 31 5 31 -24 0
-29 -19 -43 -32 -24 -8 12 -9 11 -5 -1 7 -26 36 -24 43 4 11 44 -15 84 -39 59z"/>
<path d="M312 6090 c0 -19 2 -27 5 -17 2 9 2 25 0 35 -3 9 -5 1 -5 -18z"/>
<path d="M341 6086 c1 -28 2 -29 8 -7 9 34 29 37 34 6 4 -24 4 -24 3 2 -1 22
-6 28 -23 29 -19 1 -23 -4 -22 -30z"/>
<path d="M406 6113 c7 -4 14 -19 17 -33 4 -22 5 -21 4 4 -1 17 -9 31 -17 33
-10 3 -11 2 -4 -4z"/>
<path d="M470 6110 c12 -8 10 -10 -9 -10 -17 0 -22 -4 -17 -16 3 -9 6 -18 6
-20 0 -2 10 -4 23 -3 21 0 21 1 -3 11 -25 11 -25 11 -2 15 26 5 30 33 5 33
-15 0 -16 -2 -3 -10z"/>
<path d="M511 6086 c1 -28 2 -29 8 -7 9 34 29 37 34 6 4 -24 4 -24 3 2 -1 22
-6 28 -23 29 -19 1 -23 -4 -22 -30z"/>
<path d="M576 6111 c-3 -5 1 -15 10 -22 14 -12 14 -14 -3 -20 -16 -7 -15 -8 5
-8 26 -1 30 24 5 34 -17 7 -16 8 2 15 16 7 17 9 3 9 -9 1 -19 -3 -22 -8z"/>
<path d="M632 6090 c0 -19 2 -27 5 -17 2 9 2 25 0 35 -3 9 -5 1 -5 -18z"/>
<path d="M666 6111 c-3 -5 3 -7 14 -4 16 4 20 0 20 -17 0 -17 -4 -21 -20 -17
-11 3 -20 1 -20 -5 0 -5 10 -8 23 -6 16 2 22 10 22 28 0 25 -27 40 -39 21z"/>
<path d="M731 6088 c2 -32 2 -32 6 -5 5 33 25 31 34 -4 4 -14 7 -17 8 -7 2 28
-10 48 -30 48 -15 0 -19 -7 -18 -32z"/>
<path d="M836 6111 c-3 -5 3 -7 14 -4 16 4 20 0 20 -17 0 -17 -4 -21 -20 -17
-11 3 -20 1 -20 -5 0 -5 10 -8 23 -6 16 2 22 10 22 28 0 25 -27 40 -39 21z"/>
<path d="M1803 5953 c-28 -19 -30 -37 -3 -28 18 6 20 2 20 -34 0 -30 4 -41 15
-41 12 0 15 13 15 60 0 65 -7 71 -47 43z"/>
<path d="M1902 5928 c-7 -7 -12 -21 -12 -33 0 -43 54 -62 81 -29 12 15 10 16
-19 10 -30 -7 -32 -6 -32 19 0 25 2 26 32 19 29 -6 31 -5 19 10 -16 19 -52 21
-69 4z"/>
<path d="M180 5805 l0 -125 790 0 790 0 0 125 0 125 -790 0 -790 0 0 -125z
m1550 0 l0 -95 -760 0 -760 0 0 95 0 95 760 0 760 0 0 -95z"/>
<path d="M220 5814 c0 -43 1 -45 27 -42 14 2 28 10 31 18 4 12 2 13 -9 3 -24
-24 -39 -15 -39 23 0 33 2 36 25 32 13 -3 22 -1 19 3 -3 5 -16 9 -30 9 -22 0
-24 -4 -24 -46z"/>
<path d="M892 5843 c-5 -10 -5 -31 -1 -48 l7 -30 1 28 c0 15 7 27 14 27 8 0 7
4 -3 10 -13 9 -13 11 0 20 9 6 11 10 3 10 -7 0 -16 -8 -21 -17z"/>
<path d="M961 5841 c6 -14 15 -36 19 -50 7 -26 7 -26 12 6 2 17 1 31 -3 30 -4
-1 -15 7 -24 18 -16 19 -16 19 -4 -4z"/>
<path d="M1300 5850 c-9 -6 -10 -10 -3 -10 6 0 14 -17 16 -37 3 -35 4 -34 5
10 1 26 1 47 0 47 -2 0 -10 -5 -18 -10z"/>
<path d="M1373 5853 c23 -6 22 -26 -3 -48 -27 -25 -25 -35 8 -34 24 2 25 2 4
6 l-24 5 22 23 c25 27 21 56 -7 54 -17 -1 -17 -2 0 -6z"/>
<path d="M1427 5853 c-4 -3 -7 -11 -7 -17 0 -6 4 -5 9 3 12 19 31 5 31 -24 0
-29 -19 -43 -32 -24 -8 12 -9 11 -5 -1 7 -26 36 -24 43 4 11 44 -15 84 -39 59z"/>
<path d="M302 5800 c0 -19 2 -27 5 -17 2 9 2 25 0 35 -3 9 -5 1 -5 -18z"/>
<path d="M331 5796 c1 -28 2 -29 8 -7 9 34 29 37 34 6 4 -24 4 -24 3 2 -1 22
-6 28 -23 29 -19 1 -23 -4 -22 -30z"/>
<path d="M396 5823 c7 -4 14 -19 17 -33 4 -22 5 -21 4 4 -1 17 -9 31 -17 33
-10 3 -11 2 -4 -4z"/>
<path d="M460 5820 c12 -8 10 -10 -9 -10 -17 0 -22 -4 -17 -16 3 -9 6 -18 6
-20 0 -2 10 -4 23 -3 21 0 21 1 -3 11 -25 11 -25 11 -2 15 26 5 30 33 5 33
-15 0 -16 -2 -3 -10z"/>
<path d="M501 5796 c1 -28 2 -29 8 -7 9 34 29 37 34 6 4 -24 4 -24 3 2 -1 22
-6 28 -23 29 -19 1 -23 -4 -22 -30z"/>
<path d="M566 5821 c-3 -5 1 -15 10 -22 14 -12 14 -14 -3 -20 -16 -7 -15 -8 5
-8 26 -1 30 24 5 34 -17 7 -16 8 2 15 16 7 17 9 3 9 -9 1 -19 -3 -22 -8z"/>
<path d="M622 5800 c0 -19 2 -27 5 -17 2 9 2 25 0 35 -3 9 -5 1 -5 -18z"/>
<path d="M656 5821 c-3 -5 3 -7 14 -4 16 4 20 0 20 -17 0 -17 -4 -21 -20 -17
-11 3 -20 1 -20 -5 0 -5 10 -8 23 -6 16 2 22 10 22 28 0 25 -27 40 -39 21z"/>
<path d="M721 5798 c2 -32 2 -32 6 -5 5 33 25 31 34 -4 4 -14 7 -17 8 -7 2 28
-10 48 -30 48 -15 0 -19 -7 -18 -32z"/>
<path d="M826 5821 c-3 -5 3 -7 14 -4 16 4 20 0 20 -17 0 -17 -4 -21 -20 -17
-11 3 -20 1 -20 -5 0 -5 10 -8 23 -6 16 2 22 10 22 28 0 25 -27 40 -39 21z"/>
<path d="M170 5530 l0 -130 760 0 760 0 0 130 0 130 -760 0 -760 0 0 -130z
m1490 0 l0 -100 -730 0 -730 0 0 100 0 100 730 0 730 0 0 -100z"/>
<path d="M221 5533 l2 -48 6 39 6 40 20 -37 c11 -20 23 -37 27 -37 5 0 7 21 7
48 l-2 47 -6 -39 -6 -40 -20 37 c-11 20 -23 37 -27 37 -5 0 -7 -21 -7 -47z"/>
<path d="M481 5538 c-1 -41 2 -48 18 -48 11 0 22 4 25 9 4 5 -3 7 -15 4 -17
-5 -20 -2 -17 13 2 10 11 18 21 18 9 -1 14 3 11 8 -3 5 -12 7 -19 4 -8 -3 -15
4 -18 17 -2 12 -5 1 -6 -25z"/>
<path d="M762 5563 c-5 -10 -5 -31 -1 -48 l7 -30 1 28 c0 15 7 27 14 27 8 0 7
4 -3 10 -13 9 -13 11 0 20 9 6 11 10 3 10 -7 0 -16 -8 -21 -17z"/>
<path d="M1343 5573 c9 -2 23 -2 30 0 6 3 -1 5 -18 5 -16 0 -22 -2 -12 -5z"/>
<path d="M314 5520 c1 -18 7 -26 24 -28 19 -3 22 1 21 30 -2 30 -2 31 -6 6 -5
-34 -30 -37 -36 -5 -3 19 -4 19 -3 -3z"/>
<path d="M381 5518 c2 -31 2 -31 6 -5 2 15 9 27 14 27 5 0 9 -12 10 -27 1 -28
1 -28 8 -4 9 34 29 37 34 6 4 -24 4 -24 3 2 -1 25 -5 28 -38 31 -37 2 -38 1
-37 -30z"/>
<path d="M554 5536 c-9 -23 3 -46 23 -45 17 1 17 2 1 6 -25 6 -22 23 3 23 12
0 19 5 17 13 -7 18 -37 21 -44 3z m33 -2 c-3 -3 -12 -4 -19 -1 -8 3 -5 6 6 6
11 1 17 -2 13 -5z"/>
<path d="M611 5516 c1 -21 3 -25 6 -11 3 11 9 25 14 31 5 7 3 11 -6 11 -10 0
-15 -10 -14 -31z"/>
<path d="M697 5543 c-3 -5 5 -8 18 -8 13 0 21 3 18 8 -2 4 -10 7 -18 7 -8 0
-16 -3 -18 -7z"/>
<path d="M835 5539 c-4 -6 -4 -13 -1 -16 3 -4 6 -1 6 5 0 7 7 12 15 12 9 0 15
-9 15 -21 0 -16 -5 -20 -20 -16 -11 3 -18 1 -14 -4 3 -5 12 -9 20 -9 23 0 16
-18 -8 -23 -20 -5 -20 -5 2 -4 22 2 25 7 28 45 3 36 0 42 -17 42 -11 0 -23 -5
-26 -11z"/>
<path d="M902 5520 c0 -19 2 -27 5 -17 2 9 2 25 0 35 -3 9 -5 1 -5 -18z"/>
<path d="M958 5543 c7 -3 16 -2 19 1 4 3 -2 6 -13 5 -11 0 -14 -3 -6 -6z"/>
<path d="M1002 5520 c0 -19 2 -27 5 -17 2 9 2 25 0 35 -3 9 -5 1 -5 -18z"/>
<path d="M1031 5515 c1 -28 1 -28 8 -6 9 35 29 37 34 4 4 -27 4 -27 6 4 1 29
-2 33 -24 31 -21 -2 -25 -7 -24 -33z"/>
<path d="M1100 5533 c0 -10 4 -14 8 -8 4 6 11 13 16 18 5 4 2 7 -7 7 -10 0
-17 -8 -17 -17z"/>
<path d="M947 5523 c-16 -15 -6 -33 18 -33 18 0 25 5 25 20 0 20 -28 28 -43
13z m28 -13 c-3 -5 -10 -10 -16 -10 -5 0 -9 5 -9 10 0 6 7 10 16 10 8 0 12 -4
9 -10z"/>
<path d="M1124 5512 c3 -6 -2 -13 -11 -15 -16 -4 -16 -5 -1 -6 21 -1 32 15 17
25 -7 4 -9 3 -5 -4z"/>
<path d="M697 5498 c2 -5 10 -8 18 -8 8 0 16 3 18 8 3 4 -5 7 -18 7 -13 0 -21
-3 -18 -7z"/>
<path d="M1743 5613 c-28 -19 -30 -37 -3 -28 18 6 20 2 20 -34 0 -30 4 -41 15
-41 12 0 15 13 15 60 0 65 -7 71 -47 43z"/>
<path d="M1890 5609 c0 -15 -4 -19 -16 -15 -37 14 -61 -48 -29 -74 12 -10 19
-10 27 -2 9 9 9 12 0 12 -7 0 -12 12 -12 26 0 30 24 28 26 -2 1 -10 2 -25 3
-31 1 -7 8 -13 16 -13 12 0 15 13 15 60 0 47 -3 60 -15 60 -9 0 -15 -9 -15
-21z"/>
<path d="M160 5080 l0 -260 1090 0 1090 0 0 260 0 260 -1090 0 -1090 0 0 -260z
m2150 0 l0 -230 -1060 0 -1060 0 0 230 0 230 1060 0 1060 0 0 -230z"/>
<path d="M220 5235 c0 -42 2 -46 23 -43 19 3 22 9 22 43 0 34 -3 40 -22 43
-21 3 -23 -1 -23 -43z m38 23 c-6 -18 -28 -21 -28 -4 0 9 7 16 16 16 9 0 14
-5 12 -12z m2 -43 c0 -8 -7 -15 -15 -15 -8 0 -15 7 -15 15 0 8 7 15 15 15 8 0
15 -7 15 -15z"/>
<path d="M1811 5238 c-1 -41 2 -48 18 -48 11 0 22 4 25 9 4 5 -3 7 -15 4 -17
-5 -20 -2 -17 13 2 10 11 18 21 18 9 -1 14 3 11 8 -3 5 -12 7 -19 4 -8 -3 -15
4 -18 17 -2 12 -5 1 -6 -25z"/>
<path d="M2041 5238 c-1 -44 1 -48 23 -48 26 0 39 21 29 46 -3 9 -13 14 -24
11 -12 -3 -19 2 -22 17 -2 11 -5 0 -6 -26z m45 -9 c10 -17 -13 -36 -27 -22
-12 12 -4 33 11 33 5 0 12 -5 16 -11z"/>
<path d="M1058 5259 c-6 -17 3 -69 11 -69 7 0 6 69 -2 76 -3 3 -7 0 -9 -7z"/>
<path d="M297 5243 c-3 -5 5 -8 18 -8 13 0 21 3 18 8 -2 4 -10 7 -18 7 -8 0
-16 -3 -18 -7z"/>
<path d="M364 5220 c1 -18 7 -26 24 -28 19 -3 22 1 21 30 -2 30 -2 31 -6 6 -5
-34 -30 -37 -36 -5 -3 19 -4 19 -3 -3z"/>
<path d="M431 5218 c2 -32 2 -32 6 -5 5 33 25 31 34 -4 4 -14 7 -17 8 -7 2 28
-10 48 -30 48 -15 0 -19 -7 -18 -32z"/>
<path d="M494 5235 c-13 -32 23 -63 40 -36 4 5 -3 7 -14 4 -16 -4 -20 0 -20
17 0 17 4 21 20 17 11 -3 18 -1 14 4 -8 14 -34 11 -40 -6z"/>
<path d="M584 5242 c19 -8 19 -9 -3 -15 -28 -7 -23 -31 8 -35 19 -3 22 0 19
25 -2 19 -9 29 -23 30 -19 3 -19 3 -1 -5z m16 -32 c0 -5 -7 -10 -15 -10 -8 0
-15 5 -15 10 0 6 7 10 15 10 8 0 15 -4 15 -10z"/>
<path d="M630 5220 c0 -16 2 -30 4 -30 2 0 6 14 8 30 3 17 1 30 -4 30 -4 0 -8
-13 -8 -30z"/>
<path d="M666 5237 c3 -10 9 -15 12 -12 3 3 0 11 -7 18 -10 9 -11 8 -5 -6z"/>
<path d="M705 5239 c-4 -6 -5 -12 -2 -15 2 -3 7 2 10 11 7 17 1 20 -8 4z"/>
<path d="M765 5239 c-4 -6 -4 -13 -1 -16 3 -4 6 -1 6 5 0 6 8 13 18 15 15 4
15 5 0 6 -9 0 -20 -4 -23 -10z"/>
<path d="M814 5235 c-9 -23 3 -45 25 -45 10 0 21 7 25 15 8 23 -4 45 -25 45
-11 0 -22 -7 -25 -15z m41 -15 c0 -8 -8 -16 -17 -18 -13 -2 -18 3 -18 18 0 15
5 20 18 18 9 -2 17 -10 17 -18z"/>
<path d="M891 5218 c2 -32 2 -32 6 -5 5 33 25 31 34 -4 4 -14 7 -17 8 -7 2 28
-10 48 -30 48 -15 0 -19 -7 -18 -32z"/>
<path d="M954 5235 c-13 -32 23 -63 40 -36 4 5 -3 7 -14 4 -16 -4 -20 0 -20
17 0 17 4 21 20 17 11 -3 18 -1 14 4 -8 14 -34 11 -40 -6z"/>
<path d="M1022 5220 c0 -19 2 -27 5 -17 2 9 2 25 0 35 -3 9 -5 1 -5 -18z"/>
<path d="M1092 5220 c0 -19 2 -27 5 -17 2 9 2 25 0 35 -3 9 -5 1 -5 -18z"/>
<path d="M1121 5216 c1 -21 3 -25 6 -11 3 11 9 25 14 31 5 7 3 11 -6 11 -10 0
-15 -10 -14 -31z"/>
<path d="M1164 5235 c-9 -23 3 -45 25 -45 10 0 21 7 25 15 8 23 -4 45 -25 45
-11 0 -22 -7 -25 -15z m41 -15 c0 -8 -8 -16 -17 -18 -13 -2 -18 3 -18 18 0 15
5 20 18 18 9 -2 17 -10 17 -18z"/>
<path d="M1231 5215 c1 -28 1 -28 8 -6 9 35 29 37 34 4 4 -27 4 -27 6 4 1 29
-2 33 -24 31 -21 -2 -25 -7 -24 -33z"/>
<path d="M1304 5239 c-4 -7 1 -16 12 -22 17 -10 17 -11 -1 -18 -16 -6 -17 -8
-3 -8 25 -1 33 20 12 32 -17 10 -17 11 1 18 16 6 17 8 3 8 -9 1 -20 -4 -24
-10z"/>
<path d="M1764 5241 c18 -7 18 -8 3 -14 -24 -9 -21 -37 3 -37 16 0 20 7 20 30
0 25 -4 30 -22 29 -21 0 -21 -1 -4 -8z m16 -31 c0 -5 -4 -10 -10 -10 -5 0 -10
5 -10 10 0 6 5 10 10 10 6 0 10 -4 10 -10z"/>
<path d="M1880 5233 c0 -10 4 -14 8 -8 4 6 11 13 16 18 5 4 2 7 -7 7 -10 0
-17 -8 -17 -17z"/>
<path d="M1934 5235 c-9 -23 3 -45 25 -45 21 0 33 22 25 45 -4 8 -15 15 -25
15 -11 0 -22 -7 -25 -15z m41 -15 c0 -8 -8 -16 -17 -18 -13 -2 -18 3 -18 18 0
15 5 20 18 18 9 -2 17 -10 17 -18z"/>
<path d="M2001 5216 c1 -21 3 -25 6 -11 3 11 9 25 14 31 5 7 3 11 -6 11 -10 0
-15 -10 -14 -31z"/>
<path d="M2122 5220 c0 -19 2 -27 5 -17 2 9 2 25 0 35 -3 9 -5 1 -5 -18z"/>
<path d="M2141 5215 c1 -28 1 -28 8 -6 9 35 29 37 34 4 4 -27 4 -27 6 4 1 29
-2 33 -24 31 -21 -2 -25 -7 -24 -33z"/>
<path d="M2217 5243 c-14 -14 -6 -45 13 -50 27 -7 25 -20 -2 -26 -20 -5 -20
-5 2 -4 18 2 25 8 26 23 1 16 -3 20 -17 17 -14 -4 -19 0 -19 17 0 17 4 21 20
17 11 -3 18 -1 14 4 -6 11 -28 12 -37 2z"/>
<path d="M1904 5212 c3 -6 -2 -13 -11 -15 -16 -4 -16 -5 -1 -6 21 -1 32 15 17
25 -7 4 -9 3 -5 -4z"/>
<path d="M297 5198 c2 -5 10 -8 18 -8 8 0 16 3 18 8 3 4 -5 7 -18 7 -13 0 -21
-3 -18 -7z"/>
<path d="M680 5191 c0 -11 -5 -22 -10 -24 -6 -3 -5 -4 1 -3 15 3 32 46 19 46
-6 0 -10 -9 -10 -19z"/>
<path d="M768 5198 c5 -5 16 -8 23 -6 8 3 3 7 -10 11 -17 4 -21 3 -13 -5z"/>
<path d="M1586 4964 c-9 -8 -16 -19 -16 -24 0 -11 29 -40 40 -40 11 0 40 29
40 40 0 11 -29 40 -40 40 -5 0 -16 -7 -24 -16z"/>
<path d="M1751 4910 c1 -25 3 -37 6 -27 2 9 11 17 18 17 8 0 16 4 19 9 4 5 -3
7 -15 4 -17 -5 -20 -2 -17 13 2 10 11 18 21 18 9 -1 14 2 12 6 -3 5 -14 8 -25
7 -17 -1 -20 -8 -19 -47z"/>
<path d="M1824 4946 c-9 -23 3 -46 23 -45 17 1 17 2 1 6 -25 6 -22 23 3 23 12
0 19 5 17 13 -7 18 -37 21 -44 3z m33 -2 c-3 -3 -12 -4 -19 -1 -8 3 -5 6 6 6
11 1 17 -2 13 -5z"/>
<path d="M1881 4926 c1 -21 3 -25 6 -11 3 11 9 25 14 31 5 7 3 11 -6 11 -10 0
-15 -10 -14 -31z"/>
<path d="M1932 4930 c0 -19 2 -27 5 -17 2 9 2 25 0 35 -3 9 -5 1 -5 -18z"/>
<path d="M1954 4945 c-9 -23 3 -45 25 -45 21 0 33 22 25 45 -4 8 -15 15 -25
15 -11 0 -22 -7 -25 -15z m41 -15 c0 -8 -8 -16 -17 -18 -13 -2 -18 3 -18 18 0
15 5 20 18 18 9 -2 17 -10 17 -18z"/>
<path d="M2024 4945 c-13 -32 23 -63 40 -36 4 5 -3 7 -14 4 -16 -4 -20 0 -20
17 0 17 4 21 20 17 11 -3 18 -1 14 4 -8 14 -34 11 -40 -6z"/>
<path d="M2102 4930 c0 -19 2 -27 5 -17 2 9 2 25 0 35 -3 9 -5 1 -5 -18z"/>
<path d="M2124 4945 c-9 -23 3 -45 23 -44 17 1 17 2 1 6 -10 2 -18 13 -18 23
0 10 8 21 18 23 16 4 16 5 -1 6 -10 0 -20 -6 -23 -14z"/>
<path d="M2413 5273 c-28 -19 -30 -37 -3 -28 18 6 20 2 20 -34 0 -30 4 -41 15
-41 12 0 15 13 15 60 0 65 -7 71 -47 43z"/>
<path d="M2512 5248 c-7 -7 -12 -21 -12 -33 0 -43 54 -62 81 -29 12 15 10 16
-19 10 -21 -5 -32 -4 -32 3 0 6 14 11 30 11 18 0 30 5 30 13 0 19 -21 37 -45
37 -12 0 -26 -5 -33 -12z m45 -14 c-3 -3 -12 -4 -19 -1 -8 3 -5 6 6 6 11 1 17
-2 13 -5z"/>
<path d="M200 4655 l0 -135 855 0 855 0 0 135 0 135 -855 0 -855 0 0 -135z
m1680 0 l0 -105 -825 0 -825 0 0 105 0 105 825 0 825 0 0 -105z"/>
<path d="M241 4653 l2 -48 6 39 6 40 20 -37 c11 -20 23 -37 27 -37 5 0 7 21 7
48 l-2 47 -6 -39 -6 -40 -20 37 c-11 20 -23 37 -27 37 -5 0 -7 -21 -7 -47z"/>
<path d="M501 4658 c-1 -41 2 -48 18 -48 11 0 22 4 25 9 4 5 -3 7 -15 4 -17
-5 -20 -2 -17 13 2 10 11 18 21 18 9 -1 14 3 11 8 -3 5 -12 7 -19 4 -8 -3 -15
4 -18 17 -2 12 -5 1 -6 -25z"/>
<path d="M782 4683 c-5 -10 -5 -31 -1 -48 l7 -30 1 28 c0 15 7 27 14 27 8 0 7
4 -3 10 -13 9 -13 11 0 20 9 6 11 10 3 10 -7 0 -16 -8 -21 -17z"/>
<path d="M1003 4655 c0 -27 2 -38 4 -22 2 15 2 37 0 50 -2 12 -4 0 -4 -28z"/>
<path d="M1541 4686 c-20 -23 -10 -71 14 -71 30 0 34 45 4 52 -21 6 -21 7 -4
20 11 7 14 13 8 13 -6 0 -16 -6 -22 -14z m29 -46 c0 -11 -7 -20 -15 -20 -8 0
-15 9 -15 20 0 11 7 20 15 20 8 0 15 -9 15 -20z"/>
<path d="M334 4640 c1 -18 7 -26 24 -28 19 -3 22 1 21 30 -2 30 -2 31 -6 6 -5
-34 -30 -37 -36 -5 -3 19 -4 19 -3 -3z"/>
<path d="M401 4638 c2 -31 2 -31 6 -5 2 15 9 27 14 27 5 0 9 -12 10 -27 1 -28
1 -28 8 -4 9 34 29 37 34 6 4 -24 4 -24 3 2 -1 25 -5 28 -38 31 -37 2 -38 1
-37 -30z"/>
<path d="M574 4656 c-9 -23 3 -46 23 -45 17 1 17 2 1 6 -25 6 -22 23 3 23 12
0 19 5 17 13 -7 18 -37 21 -44 3z m33 -2 c-3 -3 -12 -4 -19 -1 -8 3 -5 6 6 6
11 1 17 -2 13 -5z"/>
<path d="M631 4636 c1 -21 3 -25 6 -11 3 11 9 25 14 31 5 7 3 11 -6 11 -10 0
-15 -10 -14 -31z"/>
<path d="M717 4663 c-3 -5 5 -8 18 -8 13 0 21 3 18 8 -2 4 -10 7 -18 7 -8 0
-16 -3 -18 -7z"/>
<path d="M852 4640 c0 -19 2 -27 5 -17 2 9 2 25 0 35 -3 9 -5 1 -5 -18z"/>
<path d="M881 4636 c1 -28 2 -29 8 -7 9 34 29 37 34 6 4 -24 4 -24 3 2 -1 22
-6 28 -23 29 -19 1 -23 -4 -22 -30z"/>
<path d="M951 4656 c-16 -19 -3 -46 23 -45 21 0 21 0 -1 9 -13 5 -23 14 -23
20 0 6 10 15 23 20 15 6 17 9 6 9 -9 1 -22 -5 -28 -13z"/>
<path d="M1034 4640 c1 -18 7 -26 24 -28 19 -3 22 1 21 30 -2 30 -2 31 -6 6
-5 -34 -30 -37 -36 -5 -3 19 -4 19 -3 -3z"/>
<path d="M1100 4653 c0 -10 4 -14 8 -8 4 6 11 13 16 18 5 4 2 7 -7 7 -10 0
-17 -8 -17 -17z"/>
<path d="M1152 4640 c0 -19 2 -27 5 -17 2 9 2 25 0 35 -3 9 -5 1 -5 -18z"/>
<path d="M1187 4663 c-3 -5 5 -8 18 -8 13 0 21 3 18 8 -2 4 -10 7 -18 7 -8 0
-16 -3 -18 -7z"/>
<path d="M1251 4636 c1 -28 2 -29 8 -7 9 34 29 37 34 6 4 -24 4 -24 3 2 -1 22
-6 28 -23 29 -19 1 -23 -4 -22 -30z"/>
<path d="M1316 4661 c-3 -5 1 -15 10 -22 14 -12 14 -14 -3 -20 -16 -7 -15 -8
5 -8 26 -1 30 24 5 34 -17 7 -16 8 2 15 16 7 17 9 3 9 -9 1 -19 -3 -22 -8z"/>
<path d="M1124 4632 c3 -6 -2 -13 -11 -15 -16 -4 -16 -5 -1 -6 21 -1 32 15 17
25 -7 4 -9 3 -5 -4z"/>
<path d="M717 4618 c2 -5 10 -8 18 -8 8 0 16 3 18 8 3 4 -5 7 -18 7 -13 0 -21
-3 -18 -7z"/>
<path d="M1187 4618 c2 -5 10 -8 18 -8 8 0 16 3 18 8 3 4 -5 7 -18 7 -13 0
-21 -3 -18 -7z"/>
<path d="M2013 4703 c-28 -19 -30 -37 -3 -28 18 6 20 2 20 -34 0 -30 4 -41 15
-41 12 0 15 13 15 60 0 65 -7 71 -47 43z"/>
<path d="M2112 4703 c-13 -27 -3 -103 14 -103 12 0 19 33 17 88 -1 6 3 12 8
12 5 0 9 5 9 10 0 17 -39 11 -48 -7z"/>
<path d="M210 4260 l0 -140 725 0 725 0 0 140 0 140 -725 0 -725 0 0 -140z
m1420 0 l0 -110 -695 0 -695 0 0 110 0 110 695 0 695 0 0 -110z"/>
<path d="M253 4293 c-4 -11 1 -22 15 -31 28 -19 28 -32 0 -33 -19 -1 -20 -2
-4 -6 10 -3 23 0 30 7 8 9 5 16 -11 30 -27 22 -29 37 -5 43 16 4 16 5 -1 6
-10 0 -21 -7 -24 -16z"/>
<path d="M568 4293 c-2 -10 -1 -31 3 -48 6 -28 7 -28 9 -5 1 14 3 35 4 48 3
26 -10 30 -16 5z"/>
<path d="M793 4265 c0 -27 2 -38 4 -22 2 15 2 37 0 50 -2 12 -4 0 -4 -28z"/>
<path d="M1330 4305 c-1 -5 -1 -20 0 -32 1 -18 -4 -23 -22 -24 -20 -1 -21 -2
-3 -6 11 -3 23 -10 26 -15 10 -16 15 15 8 52 -3 19 -7 31 -9 25z"/>
<path d="M312 4250 c0 -19 2 -27 5 -17 2 9 2 25 0 35 -3 9 -5 1 -5 -18z"/>
<path d="M353 4271 c17 -6 17 -8 3 -20 -23 -19 -20 -31 7 -30 19 0 20 1 4 8
-17 6 -17 8 -3 20 23 19 20 31 -6 30 -20 0 -21 -1 -5 -8z"/>
<path d="M420 4270 c12 -8 10 -10 -9 -10 -17 0 -22 -4 -17 -16 3 -9 6 -18 6
-20 0 -2 10 -4 23 -3 21 0 21 1 -3 11 -25 11 -25 11 -2 15 26 5 30 33 5 33
-15 0 -16 -2 -3 -10z"/>
<path d="M494 4265 c-9 -23 3 -45 25 -45 10 0 21 7 25 15 8 23 -4 45 -25 45
-11 0 -22 -7 -25 -15z m41 -15 c0 -8 -8 -16 -17 -18 -13 -2 -18 3 -18 18 0 15
5 20 18 18 9 -2 17 -10 17 -18z"/>
<path d="M632 4250 c0 -19 2 -27 5 -17 2 9 2 25 0 35 -3 9 -5 1 -5 -18z"/>
<path d="M661 4245 c1 -28 1 -28 8 -6 9 35 29 37 34 4 4 -27 4 -27 6 4 1 29
-2 33 -24 31 -21 -2 -25 -7 -24 -33z"/>
<path d="M735 4269 c-4 -6 -4 -13 -1 -16 3 -4 6 -1 6 5 0 6 8 13 18 15 15 4
15 5 0 6 -9 0 -20 -4 -23 -10z"/>
<path d="M814 4250 c1 -18 7 -26 24 -28 19 -3 22 1 21 30 -2 30 -2 31 -6 6 -5
-34 -30 -37 -36 -5 -3 19 -4 19 -3 -3z"/>
<path d="M884 4269 c-4 -7 1 -16 12 -22 17 -10 17 -11 -1 -18 -16 -6 -17 -8
-3 -8 25 -1 33 20 12 32 -17 10 -17 11 1 18 16 6 17 8 3 8 -9 1 -20 -4 -24
-10z"/>
<path d="M932 4250 c0 -19 2 -27 5 -17 2 9 2 25 0 35 -3 9 -5 1 -5 -18z"/>
<path d="M964 4265 c-9 -23 3 -45 25 -45 10 0 21 7 25 15 8 23 -4 45 -25 45
-11 0 -22 -7 -25 -15z m41 -15 c0 -8 -8 -16 -17 -18 -13 -2 -18 3 -18 18 0 15
5 20 18 18 9 -2 17 -10 17 -18z"/>
<path d="M1031 4245 c1 -28 1 -28 8 -6 9 35 29 37 34 4 4 -27 4 -27 6 4 1 29
-2 33 -24 31 -21 -2 -25 -7 -24 -33z"/>
<path d="M1100 4263 c0 -10 4 -14 8 -8 4 6 11 13 16 18 5 4 2 7 -7 7 -10 0
-17 -8 -17 -17z"/>
<path d="M1124 4242 c3 -6 -2 -13 -11 -15 -16 -4 -16 -5 -1 -6 21 -1 32 15 17
25 -7 4 -9 3 -5 -4z"/>
<path d="M738 4228 c5 -5 16 -8 23 -6 8 3 3 7 -10 11 -17 4 -21 3 -13 -5z"/>
<path d="M1773 4353 c-28 -19 -30 -37 -3 -28 18 6 20 2 20 -34 0 -30 4 -41 15
-41 12 0 15 13 15 60 0 65 -7 71 -47 43z"/>
<path d="M1872 4328 c-28 -28 -3 -85 32 -72 9 3 16 1 16 -5 0 -6 -14 -11 -31
-11 -17 0 -28 -4 -24 -10 9 -14 58 -13 73 2 18 18 16 108 -3 108 -16 0 -18 -9
-15 -47 1 -15 -4 -23 -14 -23 -10 0 -16 9 -16 25 0 14 5 25 10 25 6 0 10 5 10
10 0 14 -23 13 -38 -2z"/>
<path d="M1240 3935 l0 -155 -525 0 -525 0 0 -165 0 -165 530 0 530 0 0 65 0
65 630 0 630 0 0 255 0 255 -635 0 -635 0 0 -155z m1240 -100 l0 -225 -605 0
-605 0 0 225 0 225 605 0 605 0 0 -225z m-1260 -220 l0 -135 -500 0 -500 0 0
135 0 135 500 0 500 0 0 -135z"/>
<path d="M2083 3975 c0 -27 2 -38 4 -22 2 15 2 37 0 50 -2 12 -4 0 -4 -28z"/>
<path d="M1540 3973 c0 -10 4 -14 8 -8 4 6 11 13 16 18 5 4 2 7 -7 7 -10 0
-17 -8 -17 -17z"/>
<path d="M1596 3981 c-4 -5 3 -7 14 -4 16 4 20 0 20 -17 0 -17 -4 -21 -20 -17
-11 3 -18 1 -14 -4 3 -5 11 -9 19 -9 7 0 16 -8 18 -17 3 -10 5 3 6 30 1 40 -2
47 -18 47 -11 0 -22 -4 -25 -9z"/>
<path d="M1664 3960 c1 -18 7 -26 24 -28 19 -3 22 1 21 30 -2 30 -2 31 -6 6
-5 -34 -30 -37 -36 -5 -3 19 -4 19 -3 -3z"/>
<path d="M1744 3981 c18 -7 18 -8 3 -14 -24 -9 -21 -37 3 -37 16 0 20 7 20 30
0 25 -4 30 -22 29 -21 0 -21 -1 -4 -8z m16 -31 c0 -5 -4 -10 -10 -10 -5 0 -10
5 -10 10 0 6 5 10 10 10 6 0 10 -4 10 -10z"/>
<path d="M1792 3960 c0 -19 2 -27 5 -17 2 9 2 25 0 35 -3 9 -5 1 -5 -18z"/>
<path d="M1834 3976 c-10 -25 3 -46 28 -45 l23 2 -22 4 c-29 6 -30 23 -2 23
12 0 19 5 17 13 -7 18 -37 21 -44 3z m33 -2 c-3 -3 -12 -4 -19 -1 -8 3 -5 6 6
6 11 1 17 -2 13 -5z"/>
<path d="M1932 3960 c0 -19 2 -27 5 -17 2 9 2 25 0 35 -3 9 -5 1 -5 -18z"/>
<path d="M1961 3958 c2 -32 2 -32 6 -5 5 33 25 31 34 -4 4 -14 7 -17 8 -7 2
28 -10 48 -30 48 -15 0 -19 -7 -18 -32z"/>
<path d="M2024 3975 c-9 -23 3 -45 23 -44 17 1 17 2 1 6 -10 2 -18 13 -18 23
0 10 8 21 18 23 16 4 16 5 -1 6 -10 0 -20 -6 -23 -14z"/>
<path d="M2114 3960 c1 -18 7 -26 24 -28 19 -3 22 1 21 30 -2 30 -2 31 -6 6
-5 -34 -30 -37 -36 -5 -3 19 -4 19 -3 -3z"/>
<path d="M2176 3981 c-3 -5 1 -15 10 -22 14 -12 14 -14 -3 -20 -16 -7 -15 -8
5 -8 26 -1 30 24 5 34 -17 7 -16 8 2 15 16 7 17 9 3 9 -9 1 -19 -3 -22 -8z"/>
<path d="M2232 3960 c0 -19 2 -27 5 -17 2 9 2 25 0 35 -3 9 -5 1 -5 -18z"/>
<path d="M2266 3981 c-3 -5 3 -7 14 -4 16 4 20 0 20 -17 0 -17 -4 -21 -20 -17
-11 3 -20 1 -20 -5 0 -5 10 -8 23 -6 16 2 22 10 22 28 0 25 -27 40 -39 21z"/>
<path d="M2331 3958 c2 -32 2 -32 6 -5 5 33 25 31 34 -4 4 -14 7 -17 8 -7 2
28 -10 48 -30 48 -15 0 -19 -7 -18 -32z"/>
<path d="M1564 3952 c3 -6 -2 -13 -11 -15 -16 -4 -16 -5 -1 -6 21 -1 32 15 17
25 -7 4 -9 3 -5 -4z"/>
<path d="M1723 3705 c0 -27 2 -38 4 -22 2 15 2 37 0 50 -2 12 -4 0 -4 -28z"/>
<path d="M2003 3705 c0 -27 2 -38 4 -22 2 15 2 37 0 50 -2 12 -4 0 -4 -28z"/>
<path d="M1376 3724 c-9 -8 -16 -19 -16 -24 0 -11 29 -40 40 -40 11 0 40 29
40 40 0 11 -29 40 -40 40 -5 0 -16 -7 -24 -16z"/>
<path d="M1545 3709 c-4 -6 -4 -13 -1 -16 3 -4 6 -1 6 5 0 6 8 13 18 15 15 4
15 5 0 6 -9 0 -20 -4 -23 -10z"/>
<path d="M1602 3690 c0 -19 2 -27 5 -17 2 9 2 25 0 35 -3 9 -5 1 -5 -18z"/>
<path d="M1621 3686 c1 -21 3 -25 6 -11 3 11 9 25 14 31 5 7 3 11 -6 11 -10 0
-15 -10 -14 -31z"/>
<path d="M1671 3706 c-16 -19 -3 -46 23 -45 21 0 21 0 -1 9 -13 5 -23 14 -23
20 0 6 10 15 23 20 15 6 17 9 6 9 -9 1 -22 -5 -28 -13z"/>
<path d="M1754 3706 c-9 -23 3 -46 23 -45 17 1 17 2 1 6 -25 6 -22 23 3 23 12
0 19 5 17 13 -7 18 -37 21 -44 3z m33 -2 c-3 -3 -12 -4 -19 -1 -8 3 -5 6 6 6
11 1 17 -2 13 -5z"/>
<path d="M1852 3690 c0 -19 2 -27 5 -17 2 9 2 25 0 35 -3 9 -5 1 -5 -18z"/>
<path d="M1881 3688 c2 -32 2 -32 6 -5 5 33 25 31 34 -4 4 -14 7 -17 8 -7 2
28 -10 48 -30 48 -15 0 -19 -7 -18 -32z"/>
<path d="M1944 3705 c-9 -23 3 -45 23 -44 17 1 17 2 1 6 -10 2 -18 13 -18 23
0 10 8 21 18 23 16 4 16 5 -1 6 -10 0 -20 -6 -23 -14z"/>
<path d="M2096 3711 c-3 -5 1 -15 10 -22 14 -12 14 -14 -3 -20 -16 -7 -15 -8
5 -8 26 -1 30 24 5 34 -17 7 -16 8 2 15 16 7 17 9 3 9 -9 1 -19 -3 -22 -8z"/>
<path d="M2152 3690 c0 -19 2 -27 5 -17 2 9 2 25 0 35 -3 9 -5 1 -5 -18z"/>
<path d="M2186 3711 c-3 -5 3 -7 14 -4 16 4 20 0 20 -17 0 -17 -4 -21 -20 -17
-11 3 -20 1 -20 -5 0 -5 10 -8 23 -6 16 2 22 10 22 28 0 25 -27 40 -39 21z"/>
<path d="M2251 3688 c2 -32 2 -32 6 -5 5 33 25 31 34 -4 4 -14 7 -17 8 -7 2
28 -10 48 -30 48 -15 0 -19 -7 -18 -32z"/>
<path d="M1548 3668 c5 -5 16 -8 23 -6 8 3 3 7 -10 11 -17 4 -21 3 -13 -5z"/>
<path d="M2030 3668 c0 -4 9 -8 20 -8 11 0 20 4 20 8 0 4 -9 8 -20 8 -11 0
-20 -4 -20 -8z"/>
<path d="M370 3651 c0 -5 5 -13 10 -16 15 -9 12 -35 -5 -35 -9 0 -12 6 -9 15
4 8 4 15 1 15 -3 0 -10 -15 -16 -32 -9 -26 -9 -30 1 -20 15 15 48 16 48 0 0
-6 3 -9 6 -5 8 7 -14 75 -27 82 -5 4 -9 2 -9 -4z"/>
<path d="M470 3641 c0 -14 -5 -18 -19 -14 -11 3 -21 -2 -24 -11 -10 -26 3 -46
29 -44 21 2 24 7 24 45 0 24 -2 43 -5 43 -3 0 -5 -9 -5 -19z m-4 -32 c10 -17
-13 -36 -27 -22 -12 12 -4 33 11 33 5 0 12 -5 16 -11z"/>
<path d="M540 3641 c0 -14 -5 -18 -19 -14 -11 3 -21 -2 -24 -11 -10 -26 3 -46
29 -44 21 2 24 7 24 45 0 24 -2 43 -5 43 -3 0 -5 -9 -5 -19z m-4 -32 c10 -17
-13 -36 -27 -22 -12 12 -4 33 11 33 5 0 12 -5 16 -11z"/>
<path d="M753 3615 c0 -27 2 -38 4 -22 2 15 2 37 0 50 -2 12 -4 0 -4 -28z"/>
<path d="M602 3600 c0 -19 2 -27 5 -17 2 9 2 25 0 35 -3 9 -5 1 -5 -18z"/>
<path d="M631 3596 c1 -28 2 -29 8 -7 9 34 29 37 34 6 4 -24 4 -24 3 2 -1 22
-6 28 -23 29 -19 1 -23 -4 -22 -30z"/>
<path d="M705 3619 c-4 -6 -4 -13 -1 -16 3 -4 6 -1 6 5 0 6 8 13 18 15 15 4
15 5 0 6 -9 0 -20 -4 -23 -10z"/>
<path d="M784 3600 c1 -18 7 -26 24 -28 19 -3 22 1 21 30 -2 30 -2 31 -6 6 -5
-34 -30 -37 -36 -5 -3 19 -4 19 -3 -3z"/>
<path d="M850 3613 c0 -10 4 -14 8 -8 4 6 11 13 16 18 5 4 2 7 -7 7 -10 0 -17
-8 -17 -17z"/>
<path d="M902 3600 c0 -19 2 -27 5 -17 2 9 2 25 0 35 -3 9 -5 1 -5 -18z"/>
<path d="M937 3623 c-3 -5 5 -8 18 -8 13 0 21 3 18 8 -2 4 -10 7 -18 7 -8 0
-16 -3 -18 -7z"/>
<path d="M1001 3596 c1 -28 2 -29 8 -7 9 34 29 37 34 6 4 -24 4 -24 3 2 -1 22
-6 28 -23 29 -19 1 -23 -4 -22 -30z"/>
<path d="M1070 3613 c0 -10 4 -14 8 -8 4 6 11 13 16 18 5 4 2 7 -7 7 -10 0
-17 -8 -17 -17z"/>
<path d="M874 3592 c3 -6 -2 -13 -11 -15 -16 -4 -16 -5 -1 -6 21 -1 32 15 17
25 -7 4 -9 3 -5 -4z"/>
<path d="M1094 3592 c3 -6 -2 -13 -11 -15 -16 -4 -16 -5 -1 -6 21 -1 32 15 17
25 -7 4 -9 3 -5 -4z"/>
<path d="M708 3578 c5 -5 16 -8 23 -6 8 3 3 7 -10 11 -17 4 -21 3 -13 -5z"/>
<path d="M937 3578 c2 -5 10 -8 18 -8 8 0 16 3 18 8 3 4 -5 7 -18 7 -13 0 -21
-3 -18 -7z"/>
<path d="M2603 3993 c-28 -19 -30 -37 -3 -28 18 6 20 2 20 -34 0 -30 4 -41 15
-41 12 0 15 13 15 60 0 65 -7 71 -47 43z"/>
<path d="M2690 3950 c0 -47 3 -60 15 -60 10 0 15 10 15 30 0 20 5 30 15 30 10
0 15 -10 15 -30 0 -20 5 -30 15 -30 10 0 15 10 15 33 0 44 -13 61 -39 52 -17
-5 -21 -2 -21 14 0 12 -7 21 -15 21 -12 0 -15 -13 -15 -60z"/>
<path d="M253 3923 c12 -3 17 -16 19 -46 l1 -42 4 40 c3 22 10 43 16 47 7 4
-4 7 -23 7 -19 -1 -27 -3 -17 -6z"/>
<path d="M612 3913 c-5 -10 -5 -31 -1 -48 l7 -30 2 30 c1 17 2 34 1 39 -1 5 4
13 11 17 9 6 10 9 1 9 -7 0 -16 -8 -21 -17z"/>
<path d="M833 3885 c0 -27 2 -38 4 -22 2 15 2 37 0 50 -2 12 -4 0 -4 -28z"/>
<path d="M32 3903 c-27 -19 -29 -37 -2 -28 18 6 20 2 20 -34 0 -30 4 -41 15
-41 12 0 15 13 15 60 0 65 -7 71 -48 43z"/>
<path d="M130 3910 c0 -5 5 -10 10 -10 6 0 10 5 10 10 0 6 -4 10 -10 10 -5 0
-10 -4 -10 -10z"/>
<path d="M311 3884 c0 -11 3 -14 6 -6 3 7 2 16 -1 19 -3 4 -6 -2 -5 -13z"/>
<path d="M371 3850 c1 -25 3 -37 6 -27 2 9 11 17 18 17 8 0 16 4 19 9 4 5 -3
7 -15 4 -17 -5 -20 -2 -17 13 2 10 11 18 21 18 9 -1 14 2 12 6 -3 5 -14 8 -25
7 -17 -1 -20 -8 -19 -47z"/>
<path d="M444 3886 c-9 -23 3 -46 23 -45 17 1 17 2 1 6 -25 6 -22 23 3 23 12
0 19 5 17 13 -7 18 -37 21 -44 3z m33 -2 c-3 -3 -12 -4 -19 -1 -8 3 -5 6 6 6
11 1 17 -2 13 -5z"/>
<path d="M546 3891 c-3 -5 3 -7 14 -4 16 4 20 0 20 -17 0 -17 -4 -21 -20 -17
-11 3 -20 1 -20 -5 0 -5 10 -8 23 -6 16 2 22 10 22 28 0 25 -27 40 -39 21z"/>
<path d="M682 3870 c0 -19 2 -27 5 -17 2 9 2 25 0 35 -3 9 -5 1 -5 -18z"/>
<path d="M711 3868 c2 -32 2 -32 6 -5 5 33 25 31 34 -4 4 -14 7 -17 8 -7 2 28
-10 48 -30 48 -15 0 -19 -7 -18 -32z"/>
<path d="M774 3885 c-9 -23 3 -45 23 -44 17 1 17 2 1 6 -10 2 -18 13 -18 23 0
10 8 21 18 23 16 4 16 5 -1 6 -10 0 -20 -6 -23 -14z"/>
<path d="M864 3870 c1 -18 7 -26 24 -28 19 -3 22 1 21 30 -2 30 -2 31 -6 6 -5
-34 -30 -37 -36 -5 -3 19 -4 19 -3 -3z"/>
<path d="M926 3891 c-3 -5 1 -15 10 -22 14 -12 14 -14 -3 -20 -16 -7 -15 -8 5
-8 26 -1 30 24 5 34 -17 7 -16 8 2 15 16 7 17 9 3 9 -9 1 -19 -3 -22 -8z"/>
<path d="M982 3870 c0 -19 2 -27 5 -17 2 9 2 25 0 35 -3 9 -5 1 -5 -18z"/>
<path d="M1016 3891 c-3 -5 3 -7 14 -4 16 4 20 0 20 -17 0 -17 -4 -21 -20 -17
-11 3 -20 1 -20 -5 0 -5 10 -8 23 -6 16 2 22 10 22 28 0 25 -27 40 -39 21z"/>
<path d="M1081 3868 c2 -32 2 -32 6 -5 5 33 25 31 34 -4 4 -14 7 -17 8 -7 2
28 -10 48 -30 48 -15 0 -19 -7 -18 -32z"/>
<path d="M1146 3891 c-3 -5 1 -15 10 -22 14 -12 14 -14 -3 -20 -16 -7 -15 -8
5 -8 26 -1 30 24 5 34 -17 7 -16 8 2 15 16 7 17 9 3 9 -9 1 -19 -3 -22 -8z"/>
<path d="M130 3845 c0 -25 5 -45 10 -45 6 0 10 20 10 45 0 25 -4 45 -10 45 -5
0 -10 -20 -10 -45z"/>
<path d="M270 3190 l0 -220 945 0 945 0 0 220 0 220 -945 0 -945 0 0 -220z
m1860 0 l0 -190 -915 0 -915 0 0 110 c0 91 3 110 15 110 11 0 15 -12 17 -42
l1 -43 4 40 c3 22 10 43 16 47 7 4 -2 8 -20 8 l-33 0 0 75 0 75 915 0 915 0 0
-190z"/>
<path d="M1863 3295 c0 -27 2 -38 4 -22 2 15 2 37 0 50 -2 12 -4 0 -4 -28z"/>
<path d="M1610 3293 c0 -10 4 -14 8 -8 4 6 11 13 16 18 5 4 2 7 -7 7 -10 0
-17 -8 -17 -17z"/>
<path d="M1662 3280 c0 -19 2 -27 5 -17 2 9 2 25 0 35 -3 9 -5 1 -5 -18z"/>
<path d="M1691 3275 c1 -28 1 -28 8 -6 9 35 29 37 34 4 l4 -28 2 28 c0 15 5
27 10 27 5 0 12 -12 14 -27 4 -27 4 -26 6 4 1 31 0 32 -39 30 -38 -1 -40 -3
-39 -32z"/>
<path d="M1791 3260 c1 -25 3 -37 6 -27 2 9 13 17 23 17 10 0 20 7 24 15 9 25
-4 45 -30 43 -22 -2 -24 -7 -23 -48z m45 29 c10 -17 -13 -36 -27 -22 -12 12
-4 33 11 33 5 0 12 -5 16 -11z"/>
<path d="M1894 3296 c-10 -25 3 -46 28 -45 l23 2 -22 4 c-29 6 -30 23 -2 23
12 0 19 5 17 13 -7 18 -37 21 -44 3z m33 -2 c-3 -3 -12 -4 -19 -1 -8 3 -5 6 6
6 11 1 17 -2 13 -5z"/>
<path d="M1634 3272 c3 -6 -2 -13 -11 -15 -16 -4 -16 -5 -1 -6 21 -1 32 15 17
25 -7 4 -9 3 -5 -4z"/>
<path d="M672 3213 c-5 -10 -5 -31 -1 -48 l7 -30 2 30 c1 17 2 34 1 39 -1 5 4
13 11 17 9 6 10 9 1 9 -7 0 -16 -8 -21 -17z"/>
<path d="M1053 3185 c0 -27 2 -37 4 -22 5 33 25 31 34 -4 4 -14 7 -17 8 -7 2
26 -10 48 -24 48 -8 0 -16 8 -18 18 -3 9 -5 -5 -4 -33z"/>
<path d="M1008 3209 c-6 -17 3 -69 11 -69 7 0 6 69 -2 76 -3 3 -7 0 -9 -7z"/>
<path d="M371 3184 c0 -11 3 -14 6 -6 3 7 2 16 -1 19 -3 4 -6 -2 -5 -13z"/>
<path d="M431 3150 c1 -25 3 -37 6 -27 2 9 11 17 18 17 8 0 16 4 19 9 4 5 -3
7 -15 4 -17 -5 -20 -2 -17 13 2 10 11 18 21 18 9 -1 14 2 12 6 -3 5 -14 8 -25
7 -17 -1 -20 -8 -19 -47z"/>
<path d="M504 3186 c-9 -23 3 -46 23 -45 17 1 17 2 1 6 -25 6 -22 23 3 23 12
0 19 5 17 13 -7 18 -37 21 -44 3z m33 -2 c-3 -3 -12 -4 -19 -1 -8 3 -5 6 6 6
11 1 17 -2 13 -5z"/>
<path d="M606 3191 c-3 -5 3 -7 14 -4 16 4 20 0 20 -17 0 -17 -4 -21 -20 -17
-11 3 -20 1 -20 -5 0 -5 10 -8 23 -6 16 2 22 10 22 28 0 25 -27 40 -39 21z"/>
<path d="M736 3185 c-9 -24 5 -47 25 -42 27 7 24 -12 -3 -23 -14 -5 -17 -9 -7
-9 23 -1 39 20 39 54 0 25 -4 31 -24 33 -13 1 -27 -5 -30 -13z m40 -6 c10 -17
-13 -36 -27 -22 -12 12 -4 33 11 33 5 0 12 -5 16 -11z"/>
<path d="M812 3170 c0 -19 2 -27 5 -17 2 9 2 25 0 35 -3 9 -5 1 -5 -18z"/>
<path d="M857 3193 c-3 -5 5 -8 18 -8 13 0 21 3 18 8 -2 4 -10 7 -18 7 -8 0
-16 -3 -18 -7z"/>
<path d="M946 3183 c-6 -14 -5 -15 5 -6 7 7 10 15 7 18 -3 3 -9 -2 -12 -12z"/>
<path d="M920 3175 c0 -5 5 -17 10 -25 5 -8 10 -10 10 -5 0 6 -5 17 -10 25 -5
8 -10 11 -10 5z"/>
<path d="M966 3157 c3 -10 9 -15 12 -12 3 3 0 11 -7 18 -10 9 -11 8 -5 -6z"/>
<path d="M857 3148 c2 -5 10 -8 18 -8 8 0 16 3 18 8 3 4 -5 7 -18 7 -13 0 -21
-3 -18 -7z"/>
<path d="M1446 3114 c-9 -8 -16 -19 -16 -24 0 -11 29 -40 40 -40 11 0 40 29
40 40 0 11 -29 40 -40 40 -5 0 -16 -7 -24 -16z"/>
<path d="M1898 3119 c-6 -17 3 -69 11 -69 7 0 6 69 -2 76 -3 3 -7 0 -9 -7z"/>
<path d="M1615 3099 c-4 -6 -4 -13 -1 -16 3 -4 6 -1 6 5 0 6 8 13 18 15 15 4
15 5 0 6 -9 0 -20 -4 -23 -10z"/>
<path d="M1731 3076 c1 -21 3 -25 6 -11 3 11 9 25 14 31 5 7 3 11 -6 11 -10 0
-15 -10 -14 -31z"/>
<path d="M1771 3105 c0 -5 6 -21 13 -34 12 -21 14 -22 20 -5 4 10 4 15 0 11
-5 -4 -14 3 -21 15 -7 13 -12 19 -12 13z"/>
<path d="M1848 3103 c7 -3 16 -2 19 1 4 3 -2 6 -13 5 -11 0 -14 -3 -6 -6z"/>
<path d="M1934 3080 c1 -18 7 -26 24 -28 19 -3 22 1 21 30 -2 30 -2 31 -6 6
-5 -34 -30 -37 -36 -5 -3 19 -4 19 -3 -3z"/>
<path d="M2001 3076 c1 -21 3 -25 6 -11 3 11 9 25 14 31 5 7 3 11 -6 11 -10 0
-15 -10 -14 -31z"/>
<path d="M2044 3096 c-10 -25 3 -46 28 -45 l23 2 -22 4 c-29 6 -30 23 -2 23
12 0 19 5 17 13 -7 18 -37 21 -44 3z m33 -2 c-3 -3 -12 -4 -19 -1 -8 3 -5 6 6
6 11 1 17 -2 13 -5z"/>
<path d="M1837 3083 c-16 -15 -6 -33 18 -33 18 0 25 5 25 20 0 20 -28 28 -43
13z m28 -13 c-3 -5 -10 -10 -16 -10 -5 0 -9 5 -9 10 0 6 7 10 16 10 8 0 12 -4
9 -10z"/>
<path d="M1618 3058 c5 -5 16 -8 23 -6 8 3 3 7 -10 11 -17 4 -21 3 -13 -5z"/>
<path d="M1670 3058 c0 -4 9 -8 20 -8 11 0 20 4 20 8 0 4 -9 8 -20 8 -11 0
-20 -4 -20 -8z"/>
<path d="M2243 3333 c-28 -19 -30 -37 -3 -28 18 6 20 2 20 -34 0 -30 4 -41 15
-41 12 0 15 13 15 60 0 65 -7 71 -47 43z"/>
<path d="M2340 3340 c0 -5 5 -10 10 -10 6 0 10 5 10 10 0 6 -4 10 -10 10 -5 0
-10 -4 -10 -10z"/>
<path d="M2340 3275 c0 -25 -4 -45 -10 -45 -5 0 -10 -7 -10 -16 0 -9 7 -14 18
-12 13 2 18 15 20 61 2 35 -1 57 -8 57 -5 0 -10 -20 -10 -45z"/>
<path d="M180 2805 l0 -155 1055 0 1055 0 0 155 0 155 -1055 0 -1055 0 0 -155z
m2080 0 l0 -125 -1025 0 -1025 0 0 125 0 125 1025 0 1025 0 0 -125z"/>
<path d="M1906 2831 c-4 -5 3 -7 14 -4 23 6 26 13 6 13 -8 0 -17 -4 -20 -9z"/>
<path d="M1964 2827 c-3 -9 -4 -28 -2 -44 2 -20 8 -28 23 -28 17 0 20 7 20 40
0 30 -4 41 -18 43 -9 2 -20 -3 -23 -11z m36 -32 c0 -24 -5 -35 -15 -35 -10 0
-15 11 -15 35 0 24 5 35 15 35 10 0 15 -11 15 -35z"/>
<path d="M221 2783 c1 -26 3 -41 6 -32 2 10 13 19 24 22 29 8 22 51 -8 55 -21
3 -23 0 -22 -45z m39 17 c0 -11 -7 -20 -15 -20 -8 0 -15 9 -15 20 0 11 7 20
15 20 8 0 15 -9 15 -20z"/>
<path d="M401 2788 c-1 -41 2 -48 18 -48 11 0 22 4 25 9 4 5 -3 7 -15 4 -17
-5 -20 -2 -17 13 2 10 11 18 21 18 9 -1 14 3 11 8 -3 5 -12 7 -19 4 -8 -3 -15
4 -18 17 -2 12 -5 1 -6 -25z"/>
<path d="M531 2788 c-1 -41 2 -48 18 -48 11 0 22 4 25 9 4 5 -3 7 -15 4 -17
-5 -20 -2 -17 13 2 10 11 18 21 18 9 -1 14 3 11 8 -3 5 -12 7 -19 4 -8 -3 -15
4 -18 17 -2 12 -5 1 -6 -25z"/>
<path d="M633 2785 c0 -27 2 -38 4 -22 2 15 2 37 0 50 -2 12 -4 0 -4 -28z"/>
<path d="M892 2813 c-5 -10 -5 -31 -1 -48 l7 -30 1 28 c0 15 7 27 14 27 8 0 7
4 -3 10 -13 9 -13 11 0 20 9 6 11 10 3 10 -7 0 -16 -8 -21 -17z"/>
<path d="M1023 2785 c0 -27 2 -37 4 -22 5 33 25 31 34 -4 4 -14 7 -17 8 -7 2
26 -10 48 -24 48 -8 0 -16 8 -18 18 -3 9 -5 -5 -4 -33z"/>
<path d="M1380 2775 c0 -30 3 -55 8 -55 4 0 7 25 7 55 0 30 -3 55 -7 55 -5 0
-8 -25 -8 -55z"/>
<path d="M1414 2819 c-10 -17 13 -36 27 -22 12 12 4 33 -11 33 -5 0 -12 -5
-16 -11z m26 -9 c0 -5 -4 -10 -10 -10 -5 0 -10 5 -10 10 0 6 5 10 10 10 6 0
10 -4 10 -10z"/>
<path d="M1515 2775 c0 -30 3 -55 8 -55 4 0 7 25 7 55 0 30 -3 55 -7 55 -5 0
-8 -25 -8 -55z"/>
<path d="M688 2808 c-7 -21 6 -61 22 -66 13 -3 13 -2 1 6 -8 6 -12 19 -9 30 7
24 -6 51 -14 30z"/>
<path d="M1918 2800 c12 -5 22 -14 22 -20 0 -6 -10 -15 -22 -20 -16 -6 -18 -9
-7 -9 22 -1 41 23 33 43 -3 9 -16 16 -28 15 -21 0 -21 0 2 -9z"/>
<path d="M291 2768 c2 -28 2 -29 6 -8 3 14 10 28 17 32 7 5 5 8 -6 8 -14 0
-18 -8 -17 -32z"/>
<path d="M337 2793 c-3 -5 5 -8 18 -8 13 0 21 3 18 8 -2 4 -10 7 -18 7 -8 0
-16 -3 -18 -7z"/>
<path d="M484 2791 c18 -7 18 -8 3 -14 -24 -9 -21 -37 3 -37 16 0 20 7 20 30
0 25 -4 30 -22 29 -21 0 -21 -1 -4 -8z m16 -31 c0 -5 -4 -10 -10 -10 -5 0 -10
5 -10 10 0 6 5 10 10 10 6 0 10 -4 10 -10z"/>
<path d="M602 2770 c0 -19 2 -27 5 -17 2 9 2 25 0 35 -3 9 -5 1 -5 -18z"/>
<path d="M662 2770 c0 -19 2 -27 5 -17 2 9 2 25 0 35 -3 9 -5 1 -5 -18z"/>
<path d="M726 2787 c3 -10 9 -15 12 -12 3 3 0 11 -7 18 -10 9 -11 8 -5 -6z"/>
<path d="M765 2789 c-4 -6 -5 -12 -2 -15 2 -3 7 2 10 11 7 17 1 20 -8 4z"/>
<path d="M827 2793 c-3 -5 5 -8 18 -8 13 0 21 3 18 8 -2 4 -10 7 -18 7 -8 0
-16 -3 -18 -7z"/>
<path d="M965 2789 c-4 -6 -4 -13 -1 -16 3 -4 6 -1 6 5 0 6 8 13 18 15 15 4
15 5 0 6 -9 0 -20 -4 -23 -10z"/>
<path d="M1098 2793 c7 -3 16 -2 19 1 4 3 -2 6 -13 5 -11 0 -14 -3 -6 -6z"/>
<path d="M1151 2768 c2 -32 2 -32 6 -5 5 33 25 31 34 -4 4 -14 7 -17 8 -7 2
28 -10 48 -30 48 -15 0 -19 -7 -18 -32z"/>
<path d="M1217 2793 c-14 -14 -6 -45 13 -50 27 -7 25 -20 -2 -26 -20 -5 -20
-5 2 -4 18 2 25 8 26 23 1 16 -3 20 -17 17 -14 -4 -19 0 -19 17 0 17 4 21 20
17 11 -3 18 -1 14 4 -6 11 -28 12 -37 2z"/>
<path d="M1284 2786 c-10 -25 3 -46 28 -45 l23 2 -22 4 c-29 6 -30 23 -2 23
12 0 19 5 17 13 -7 18 -37 21 -44 3z m33 -2 c-3 -3 -12 -4 -19 -1 -8 3 -5 6 6
6 11 1 17 -2 13 -5z"/>
<path d="M1087 2773 c-16 -15 -6 -33 18 -33 18 0 25 5 25 20 0 20 -28 28 -43
13z m28 -13 c-3 -5 -10 -10 -16 -10 -5 0 -9 5 -9 10 0 6 7 10 16 10 8 0 12 -4
9 -10z"/>
<path d="M1464 2769 c-10 -17 13 -36 27 -22 12 12 4 33 -11 33 -5 0 -12 -5
-16 -11z m26 -9 c0 -5 -4 -10 -10 -10 -5 0 -10 5 -10 10 0 6 5 10 10 10 6 0
10 -4 10 -10z"/>
<path d="M337 2748 c2 -5 10 -8 18 -8 8 0 16 3 18 8 3 4 -5 7 -18 7 -13 0 -21
-3 -18 -7z"/>
<path d="M740 2741 c0 -11 -5 -22 -10 -24 -6 -3 -5 -4 1 -3 15 3 32 46 19 46
-6 0 -10 -9 -10 -19z"/>
<path d="M827 2748 c2 -5 10 -8 18 -8 8 0 16 3 18 8 3 4 -5 7 -18 7 -13 0 -21
-3 -18 -7z"/>
<path d="M968 2748 c5 -5 16 -8 23 -6 8 3 3 7 -10 11 -17 4 -21 3 -13 -5z"/>
<path d="M2373 2913 c-28 -19 -30 -37 -3 -28 18 6 20 2 20 -34 0 -30 4 -41 15
-41 12 0 15 13 15 60 0 65 -7 71 -47 43z"/>
<path d="M2460 2870 c0 -62 11 -76 36 -42 12 16 13 16 19 0 4 -10 16 -18 26
-18 19 0 19 1 2 26 -13 21 -14 30 -5 45 18 29 -11 25 -31 -3 -16 -23 -16 -22
-16 15 -1 26 -5 37 -16 37 -12 0 -15 -13 -15 -60z"/>
<path d="M1490 2470 c0 -93 -4 -150 -10 -150 -6 0 -10 53 -10 140 l0 140 -685
0 -685 0 0 -140 0 -140 588 -2 587 -3 322 -34 c177 -19 320 -38 317 -43 -3 -5
-10 -6 -15 -3 -5 4 -9 -14 -8 -42 1 -26 3 -40 6 -30 2 9 13 17 23 17 21 0 32
23 23 46 -4 12 -2 15 8 12 8 -2 15 -17 17 -31 2 -15 7 -27 11 -27 5 0 6 11 4
24 -3 13 0 27 6 30 7 5 11 -5 12 -26 l2 -33 7 35 c7 35 10 33 25 -15 2 -8 13
-15 24 -15 20 0 35 25 25 41 -3 5 0 9 5 9 6 0 12 -12 12 -27 2 -24 2 -25 6 -5
2 12 11 22 18 22 7 0 16 -10 18 -22 l4 -23 2 22 c1 26 -7 27 324 -8 110 -11
202 -18 205 -15 3 4 1 11 -4 16 -5 5 -266 36 -579 67 l-570 58 693 3 692 2 0
150 0 150 -710 0 -710 0 0 -150z m1390 0 l0 -120 -680 0 -680 0 0 120 0 120
680 0 680 0 0 -120z m-1440 -10 l0 -110 -655 0 -655 0 0 110 0 110 655 0 655
0 0 -110z m496 -241 c10 -17 -13 -36 -27 -22 -12 12 -4 33 11 33 5 0 12 -5 16
-11z m139 -9 c0 -8 -8 -16 -17 -18 -13 -2 -18 3 -18 18 0 15 5 20 18 18 9 -2
17 -10 17 -18z"/>
<path d="M1773 2503 c-4 -11 1 -22 15 -31 28 -19 28 -32 0 -33 -19 -1 -20 -2
-4 -6 10 -3 23 0 30 7 8 9 5 16 -11 30 -27 22 -29 37 -5 43 16 4 16 5 -1 6
-10 0 -21 -7 -24 -16z"/>
<path d="M2303 2475 c0 -27 2 -38 4 -22 2 15 2 37 0 50 -2 12 -4 0 -4 -28z"/>
<path d="M1838 2499 c-6 -17 3 -69 11 -69 7 0 6 69 -2 76 -3 3 -7 0 -9 -7z"/>
<path d="M1980 2502 c0 -7 -9 -12 -20 -12 -16 0 -20 -6 -19 -32 2 -31 2 -31 6
-5 5 34 33 36 33 2 0 -14 3 -25 8 -25 9 0 7 68 -2 77 -3 4 -6 1 -6 -5z"/>
<path d="M2398 2499 c-6 -17 3 -69 11 -69 7 0 6 69 -2 76 -3 3 -7 0 -9 -7z"/>
<path d="M1888 2483 c7 -3 16 -2 19 1 4 3 -2 6 -13 5 -11 0 -14 -3 -6 -6z"/>
<path d="M2050 2473 c0 -10 4 -14 8 -8 4 6 11 13 16 18 5 4 2 7 -7 7 -10 0
-17 -8 -17 -17z"/>
<path d="M2102 2460 c0 -19 2 -27 5 -17 2 9 2 25 0 35 -3 9 -5 1 -5 -18z"/>
<path d="M2131 2455 c1 -28 1 -28 8 -6 9 35 29 37 34 4 l4 -28 2 28 c0 15 5
27 10 27 5 0 12 -12 14 -27 4 -27 4 -26 6 4 1 31 0 32 -39 30 -38 -1 -40 -3
-39 -32z"/>
<path d="M2234 2460 c1 -18 7 -26 24 -28 19 -3 22 1 21 30 -2 30 -2 31 -6 6
-5 -34 -30 -37 -36 -5 -3 19 -4 19 -3 -3z"/>
<path d="M2344 2481 c18 -7 18 -8 3 -14 -24 -9 -21 -37 3 -37 16 0 20 7 20 30
0 25 -4 30 -22 29 -21 0 -21 -1 -4 -8z m16 -31 c0 -5 -4 -10 -10 -10 -5 0 -10
5 -10 10 0 6 5 10 10 10 6 0 10 -4 10 -10z"/>
<path d="M2432 2460 c0 -19 2 -27 5 -17 2 9 2 25 0 35 -3 9 -5 1 -5 -18z"/>
<path d="M2464 2475 c-9 -23 3 -45 25 -45 21 0 33 22 25 45 -4 8 -15 15 -25
15 -11 0 -22 -7 -25 -15z m41 -15 c0 -8 -8 -16 -17 -18 -13 -2 -18 3 -18 18 0
15 5 20 18 18 9 -2 17 -10 17 -18z"/>
<path d="M2531 2455 c1 -28 1 -28 8 -6 9 35 29 37 34 4 4 -27 4 -27 6 4 1 29
-2 33 -24 31 -21 -2 -25 -7 -24 -33z"/>
<path d="M1877 2463 c-16 -15 -6 -33 18 -33 18 0 25 5 25 20 0 20 -28 28 -43
13z m28 -13 c-3 -5 -10 -10 -16 -10 -5 0 -9 5 -9 10 0 6 7 10 16 10 8 0 12 -4
9 -10z"/>
<path d="M2074 2452 c3 -6 -2 -13 -11 -15 -16 -4 -16 -5 -1 -6 21 -1 32 15 17
25 -7 4 -9 3 -5 -4z"/>
<path d="M383 2503 c-4 -11 1 -22 15 -31 28 -19 28 -32 0 -33 -19 -1 -20 -2
-4 -6 10 -3 23 0 30 7 8 9 5 16 -11 30 -27 22 -29 37 -5 43 16 4 16 5 -1 6
-10 0 -21 -7 -24 -16z"/>
<path d="M823 2475 c0 -27 2 -37 4 -22 5 33 25 31 34 -4 4 -14 7 -17 8 -7 2
26 -10 48 -24 48 -8 0 -16 8 -18 18 -3 9 -5 -5 -4 -33z"/>
<path d="M1073 2475 c0 -27 2 -38 4 -22 2 15 2 37 0 50 -2 12 -4 0 -4 -28z"/>
<path d="M448 2499 c-6 -17 3 -69 11 -69 7 0 6 69 -2 76 -3 3 -7 0 -9 -7z"/>
<path d="M590 2502 c0 -7 -9 -12 -20 -12 -16 0 -20 -6 -19 -32 2 -31 2 -31 6
-5 5 34 33 36 33 2 0 -14 3 -25 8 -25 9 0 7 68 -2 77 -3 4 -6 1 -6 -5z"/>
<path d="M778 2499 c-6 -17 3 -69 11 -69 7 0 6 69 -2 76 -3 3 -7 0 -9 -7z"/>
<path d="M498 2483 c7 -3 16 -2 19 1 4 3 -2 6 -13 5 -11 0 -14 -3 -6 -6z"/>
<path d="M686 2473 c-6 -14 -5 -15 5 -6 7 7 10 15 7 18 -3 3 -9 -2 -12 -12z"/>
<path d="M752 2460 c0 -19 2 -27 5 -17 2 9 2 25 0 35 -3 9 -5 1 -5 -18z"/>
<path d="M922 2460 c0 -19 2 -27 5 -17 2 9 2 25 0 35 -3 9 -5 1 -5 -18z"/>
<path d="M951 2458 c2 -32 2 -32 6 -5 5 33 25 31 34 -4 4 -14 7 -17 8 -7 2 28
-10 48 -30 48 -15 0 -19 -7 -18 -32z"/>
<path d="M1014 2475 c-9 -23 3 -45 23 -44 17 1 17 2 1 6 -10 2 -18 13 -18 23
0 10 8 21 18 23 16 4 16 5 -1 6 -10 0 -20 -6 -23 -14z"/>
<path d="M1104 2460 c1 -18 7 -26 24 -28 19 -3 22 1 21 30 -2 30 -2 31 -6 6
-5 -34 -30 -37 -36 -5 -3 19 -4 19 -3 -3z"/>
<path d="M1166 2481 c-3 -5 1 -15 10 -22 14 -12 14 -14 -3 -20 -16 -7 -15 -8
5 -8 26 -1 30 24 5 34 -17 7 -16 8 2 15 16 7 17 9 3 9 -9 1 -19 -3 -22 -8z"/>
<path d="M1222 2460 c0 -19 2 -27 5 -17 2 9 2 25 0 35 -3 9 -5 1 -5 -18z"/>
<path d="M1256 2481 c-3 -5 3 -7 14 -4 16 4 20 0 20 -17 0 -17 -4 -21 -20 -17
-11 3 -20 1 -20 -5 0 -5 10 -8 23 -6 16 2 22 10 22 28 0 25 -27 40 -39 21z"/>
<path d="M1321 2458 c2 -32 2 -32 6 -5 5 33 25 31 34 -4 4 -14 7 -17 8 -7 2
28 -10 48 -30 48 -15 0 -19 -7 -18 -32z"/>
<path d="M1386 2481 c-3 -5 1 -15 10 -22 14 -12 14 -14 -3 -20 -16 -7 -15 -8
5 -8 26 -1 30 24 5 34 -17 7 -16 8 2 15 16 7 17 9 3 9 -9 1 -19 -3 -22 -8z"/>
<path d="M487 2463 c-16 -15 -6 -33 18 -33 18 0 25 5 25 20 0 20 -28 28 -43
13z m28 -13 c-3 -5 -10 -10 -16 -10 -5 0 -9 5 -9 10 0 6 7 10 16 10 8 0 12 -4
9 -10z"/>
<path d="M660 2465 c0 -5 5 -17 10 -25 5 -8 10 -10 10 -5 0 6 -5 17 -10 25 -5
8 -10 11 -10 5z"/>
<path d="M706 2447 c3 -10 9 -15 12 -12 3 3 0 11 -7 18 -10 9 -11 8 -5 -6z"/>
<path d="M2963 2533 c-28 -19 -30 -37 -3 -28 18 6 20 2 20 -34 0 -30 4 -41 15
-41 12 0 15 13 15 60 0 65 -7 71 -47 43z"/>
<path d="M3050 2474 c0 -32 4 -44 15 -44 10 0 15 10 15 30 0 20 5 30 15 30 10
0 15 -10 15 -30 0 -20 5 -30 15 -30 10 0 15 10 15 30 0 20 5 30 15 30 10 0 15
-10 15 -30 0 -20 5 -30 15 -30 21 0 20 63 -1 81 -12 10 -20 10 -35 1 -10 -7
-19 -8 -19 -3 0 4 -18 8 -40 8 l-40 0 0 -43z"/>
<path d="M380 2224 c0 -43 1 -45 27 -42 14 2 28 10 31 18 4 12 2 13 -9 3 -24
-24 -39 -15 -39 23 0 33 2 36 25 32 13 -3 22 -1 19 3 -3 5 -16 9 -30 9 -22 0
-24 -4 -24 -46z"/>
<path d="M593 2225 c0 -27 2 -38 4 -22 2 15 2 37 0 50 -2 12 -4 0 -4 -28z"/>
<path d="M733 2225 c0 -27 2 -37 4 -22 5 33 25 31 34 -4 4 -14 7 -17 8 -7 2
26 -10 48 -24 48 -8 0 -16 8 -18 18 -3 9 -5 -5 -4 -33z"/>
<path d="M1008 2246 c-4 -63 -5 -61 35 -62 25 -1 35 2 28 9 -5 5 -7 17 -4 26
4 14 3 14 -6 1 -11 -15 -13 -11 -15 25 -1 11 -9 21 -18 23 -13 3 -18 -4 -20
-22z m32 4 c0 -5 -4 -10 -10 -10 -5 0 -10 5 -10 10 0 6 5 10 10 10 6 0 10 -4
10 -10z m4 -51 c-8 -14 -34 -11 -34 4 0 8 3 17 7 20 9 9 34 -13 27 -24z"/>
<path d="M1251 2228 c-1 -41 2 -48 18 -48 11 0 22 4 25 9 4 5 -3 7 -15 4 -17
-5 -20 -2 -17 13 2 10 11 18 21 18 9 -1 14 3 11 8 -3 5 -12 7 -19 4 -8 -3 -15
4 -18 17 -2 12 -5 1 -6 -25z"/>
<path d="M1368 2247 c-7 -19 6 -60 20 -63 7 -1 8 0 2 3 -12 6 -13 40 -1 45 5
2 3 8 -4 15 -10 9 -14 9 -17 0z"/>
<path d="M1578 2249 c-6 -17 3 -69 11 -69 7 0 6 69 -2 76 -3 3 -7 0 -9 -7z"/>
<path d="M464 2210 c1 -18 7 -26 24 -28 19 -3 22 1 21 30 -2 30 -2 31 -6 6 -5
-34 -30 -37 -36 -5 -3 19 -4 19 -3 -3z"/>
<path d="M548 2233 c7 -3 16 -2 19 1 4 3 -2 6 -13 5 -11 0 -14 -3 -6 -6z"/>
<path d="M661 2193 c1 -26 3 -41 6 -32 2 10 13 19 24 22 29 8 22 51 -8 55 -21
3 -23 0 -22 -45z m39 17 c0 -11 -7 -20 -15 -20 -8 0 -15 9 -15 20 0 11 7 20
15 20 8 0 15 -9 15 -20z"/>
<path d="M808 2233 c7 -3 16 -2 19 1 4 3 -2 6 -13 5 -11 0 -14 -3 -6 -6z"/>
<path d="M854 2229 c-4 -7 1 -16 12 -22 17 -10 17 -11 -1 -18 -16 -6 -17 -8
-3 -8 25 -1 33 20 12 32 -17 10 -17 11 1 18 16 6 17 8 3 8 -9 1 -20 -4 -24
-10z"/>
<path d="M930 2230 c12 -8 10 -10 -9 -10 -17 0 -22 -4 -17 -16 3 -9 6 -18 6
-20 0 -2 10 -4 23 -3 21 0 21 1 -3 11 -25 11 -25 11 -2 15 26 5 30 33 5 33
-15 0 -16 -2 -3 -10z"/>
<path d="M1130 2223 c0 -10 4 -14 8 -8 4 6 11 13 16 18 5 4 2 7 -7 7 -10 0
-17 -8 -17 -17z"/>
<path d="M1184 2210 c1 -18 7 -26 24 -28 19 -3 22 1 21 30 -2 30 -2 31 -6 6
-5 -34 -30 -37 -36 -5 -3 19 -4 19 -3 -3z"/>
<path d="M1320 2223 c0 -10 4 -14 8 -8 4 6 11 13 16 18 5 4 2 7 -7 7 -10 0
-17 -8 -17 -17z"/>
<path d="M1412 2210 c0 -19 2 -27 5 -17 2 9 2 25 0 35 -3 9 -5 1 -5 -18z"/>
<path d="M1454 2210 c1 -18 7 -26 24 -28 19 -3 22 1 21 30 -2 30 -2 31 -6 6
-5 -34 -30 -37 -36 -5 -3 19 -4 19 -3 -3z"/>
<path d="M1525 2229 c-4 -6 -4 -13 -1 -16 3 -4 6 -1 6 5 0 6 8 13 18 15 15 4
15 5 0 6 -9 0 -20 -4 -23 -10z"/>
<path d="M1681 2206 c1 -21 3 -25 6 -11 3 11 9 25 14 31 5 7 3 11 -6 11 -10 0
-15 -10 -14 -31z"/>
<path d="M1750 2230 c12 -8 10 -10 -9 -10 -17 0 -22 -4 -17 -16 3 -9 6 -18 6
-20 0 -2 10 -4 23 -3 21 0 21 1 -3 11 -25 11 -25 11 -2 15 26 5 30 33 5 33
-15 0 -16 -2 -3 -10z"/>
<path d="M1824 2225 c-9 -23 3 -45 25 -45 21 0 33 22 25 45 -4 8 -15 15 -25
15 -11 0 -22 -7 -25 -15z m41 -15 c0 -8 -8 -16 -17 -18 -13 -2 -18 3 -18 18 0
15 5 20 18 18 9 -2 17 -10 17 -18z"/>
<path d="M2713 2223 c-28 -19 -30 -37 -3 -28 18 6 20 2 20 -34 0 -30 4 -41 15
-41 12 0 15 13 15 60 0 65 -7 71 -47 43z"/>
<path d="M2810 2180 c0 -33 4 -60 10 -60 6 0 10 27 10 60 0 33 -4 60 -10 60
-6 0 -10 -27 -10 -60z"/>
<path d="M537 2213 c-16 -15 -6 -33 18 -33 18 0 25 5 25 20 0 20 -28 28 -43
13z m28 -13 c-3 -5 -10 -10 -16 -10 -5 0 -9 5 -9 10 0 6 7 10 16 10 8 0 12 -4
9 -10z"/>
<path d="M797 2213 c-16 -15 -6 -33 18 -33 18 0 25 5 25 20 0 20 -28 28 -43
13z m28 -13 c-3 -5 -10 -10 -16 -10 -5 0 -9 5 -9 10 0 6 7 10 16 10 8 0 12 -4
9 -10z"/>
<path d="M1154 2202 c3 -6 -2 -13 -11 -15 -16 -4 -16 -5 -1 -6 21 -1 32 15 17
25 -7 4 -9 3 -5 -4z"/>
<path d="M1344 2202 c3 -6 -2 -13 -11 -15 -16 -4 -16 -5 -1 -6 21 -1 32 15 17
25 -7 4 -9 3 -5 -4z"/>
<path d="M2194 2202 c3 -6 -2 -13 -11 -15 -16 -4 -16 -5 -1 -6 21 -1 32 15 17
25 -7 4 -9 3 -5 -4z"/>
<path d="M1528 2188 c5 -5 16 -8 23 -6 8 3 3 7 -10 11 -17 4 -21 3 -13 -5z"/>
<path d="M1620 2188 c0 -4 9 -8 20 -8 11 0 20 4 20 8 0 4 -9 8 -20 8 -11 0
-20 -4 -20 -8z"/>
<path d="M110 1965 l0 -155 1255 0 1255 0 0 155 0 155 -1255 0 -1255 0 0 -155z
m2480 0 l0 -125 -1225 0 -1225 0 0 125 0 125 1225 0 1225 0 0 -125z"/>
<path d="M171 1953 l2 -48 6 39 6 40 20 -37 c11 -20 23 -37 27 -37 5 0 7 21 7
48 l-2 47 -6 -39 -6 -40 -20 37 c-11 20 -23 37 -27 37 -5 0 -7 -21 -7 -47z"/>
<path d="M431 1958 c-1 -41 2 -48 18 -48 11 0 22 4 25 9 4 5 -3 7 -15 4 -17
-5 -20 -2 -17 13 2 10 11 18 21 18 9 -1 14 3 11 8 -3 5 -12 7 -19 4 -8 -3 -15
4 -18 17 -2 12 -5 1 -6 -25z"/>
<path d="M712 1983 c-5 -10 -5 -31 -1 -48 l7 -30 1 28 c0 15 7 27 14 27 8 0 7
4 -3 10 -13 9 -13 11 0 20 9 6 11 10 3 10 -7 0 -16 -8 -21 -17z"/>
<path d="M1381 1958 c-1 -44 1 -48 23 -48 26 0 39 21 29 46 -3 9 -13 14 -24
11 -12 -3 -19 2 -22 17 -2 11 -5 0 -6 -26z m45 -9 c10 -17 -13 -36 -27 -22
-12 12 -4 33 11 33 5 0 12 -5 16 -11z"/>
<path d="M2253 1994 c19 -6 24 -34 5 -34 -6 0 -3 -6 8 -14 18 -14 18 -15 -6
-25 -15 -6 -19 -10 -9 -10 19 -1 42 23 32 33 -4 4 -8 17 -8 29 0 14 -7 22 -20
24 -16 1 -16 1 -2 -3z"/>
<path d="M1508 1979 c-6 -17 3 -69 11 -69 7 0 6 69 -2 76 -3 3 -7 0 -9 -7z"/>
<path d="M1708 1977 c-7 -19 6 -60 20 -63 7 -1 8 0 2 3 -12 6 -13 40 -1 45 5
2 3 8 -4 15 -10 9 -14 9 -17 0z"/>
<path d="M264 1940 c1 -18 7 -26 24 -28 19 -3 22 1 21 30 -2 30 -2 31 -6 6 -5
-34 -30 -37 -36 -5 -3 19 -4 19 -3 -3z"/>
<path d="M331 1938 c2 -31 2 -31 6 -5 2 15 9 27 14 27 5 0 9 -12 10 -27 1 -28
1 -28 8 -4 9 34 29 37 34 6 4 -24 4 -24 3 2 -1 25 -5 28 -38 31 -37 2 -38 1
-37 -30z"/>
<path d="M504 1956 c-9 -23 3 -46 23 -45 17 1 17 2 1 6 -25 6 -22 23 3 23 12
0 19 5 17 13 -7 18 -37 21 -44 3z m33 -2 c-3 -3 -12 -4 -19 -1 -8 3 -5 6 6 6
11 1 17 -2 13 -5z"/>
<path d="M561 1936 c1 -21 3 -25 6 -11 3 11 9 25 14 31 5 7 3 11 -6 11 -10 0
-15 -10 -14 -31z"/>
<path d="M647 1963 c-3 -5 5 -8 18 -8 13 0 21 3 18 8 -2 4 -10 7 -18 7 -8 0
-16 -3 -18 -7z"/>
<path d="M785 1959 c-4 -6 -4 -13 -1 -16 3 -4 6 -1 6 5 0 7 7 12 15 12 9 0 15
-9 15 -21 0 -16 -5 -20 -20 -16 -11 3 -18 1 -14 -4 3 -5 12 -9 20 -9 23 0 16
-18 -8 -23 -20 -5 -20 -5 2 -4 22 2 25 7 28 45 3 36 0 42 -17 42 -11 0 -23 -5
-26 -11z"/>
<path d="M852 1940 c0 -19 2 -27 5 -17 2 9 2 25 0 35 -3 9 -5 1 -5 -18z"/>
<path d="M908 1963 c7 -3 16 -2 19 1 4 3 -2 6 -13 5 -11 0 -14 -3 -6 -6z"/>
<path d="M952 1940 c0 -19 2 -27 5 -17 2 9 2 25 0 35 -3 9 -5 1 -5 -18z"/>
<path d="M981 1935 c1 -28 1 -28 8 -6 9 35 29 37 34 4 4 -27 4 -27 6 4 1 29
-2 33 -24 31 -21 -2 -25 -7 -24 -33z"/>
<path d="M1050 1953 c0 -10 4 -14 8 -8 4 6 11 13 16 18 5 4 2 7 -7 7 -10 0
-17 -8 -17 -17z"/>
<path d="M1132 1940 c0 -19 2 -27 5 -17 2 9 2 25 0 35 -3 9 -5 1 -5 -18z"/>
<path d="M1161 1935 c1 -28 1 -28 8 -6 9 35 29 37 34 4 4 -27 4 -27 6 4 1 29
-2 33 -24 31 -21 -2 -25 -7 -24 -33z"/>
<path d="M1264 1959 c-4 -7 1 -16 12 -22 17 -10 17 -11 -1 -18 -16 -6 -17 -8
-3 -8 25 -1 33 20 12 32 -17 10 -17 11 1 18 16 6 17 8 3 8 -9 1 -20 -4 -24
-10z"/>
<path d="M1314 1940 c1 -18 7 -26 24 -28 19 -3 22 1 21 30 -2 30 -2 31 -6 6
-5 -34 -30 -37 -36 -5 -3 19 -4 19 -3 -3z"/>
<path d="M1454 1959 c-4 -7 1 -16 12 -22 17 -10 17 -11 -1 -18 -16 -6 -17 -8
-3 -8 25 -1 33 20 12 32 -17 10 -17 11 1 18 16 6 17 8 3 8 -9 1 -20 -4 -24
-10z"/>
<path d="M1541 1936 c1 -21 3 -25 6 -11 3 11 9 25 14 31 5 7 3 11 -6 11 -10 0
-15 -10 -14 -31z"/>
<path d="M1654 1955 c-9 -23 3 -45 23 -44 17 1 17 2 1 6 -10 2 -18 13 -18 23
0 10 8 21 18 23 16 4 16 5 -1 6 -10 0 -20 -6 -23 -14z"/>
<path d="M1754 1940 c1 -18 7 -26 24 -28 19 -3 22 1 21 30 -2 30 -2 31 -6 6
-5 -34 -30 -37 -36 -5 -3 19 -4 19 -3 -3z"/>
<path d="M1821 1938 c2 -28 2 -29 6 -8 3 14 10 28 17 32 7 5 5 8 -6 8 -14 0
-18 -8 -17 -32z"/>
<path d="M1864 1956 c-9 -23 3 -46 23 -45 17 1 17 2 1 6 -25 6 -22 23 3 23 12
0 19 5 17 13 -7 18 -37 21 -44 3z m33 -2 c-3 -3 -12 -4 -19 -1 -8 3 -5 6 6 6
11 1 17 -2 13 -5z"/>
<path d="M1924 1959 c-4 -7 1 -16 12 -22 17 -10 17 -11 -1 -18 -16 -6 -17 -8
-3 -8 25 -1 33 20 12 32 -17 10 -17 11 1 18 16 6 17 8 3 8 -9 1 -20 -4 -24
-10z"/>
<path d="M897 1943 c-16 -15 -6 -33 18 -33 18 0 25 5 25 20 0 20 -28 28 -43
13z m28 -13 c-3 -5 -10 -10 -16 -10 -5 0 -9 5 -9 10 0 6 7 10 16 10 8 0 12 -4
9 -10z"/>
<path d="M1074 1932 c3 -6 -2 -13 -11 -15 -16 -4 -16 -5 -1 -6 21 -1 32 15 17
25 -7 4 -9 3 -5 -4z"/>
<path d="M647 1918 c2 -5 10 -8 18 -8 8 0 16 3 18 8 3 4 -5 7 -18 7 -13 0 -21
-3 -18 -7z"/>
<path d="M1590 1918 c0 -4 9 -8 20 -8 11 0 20 4 20 8 0 4 -9 8 -20 8 -11 0
-20 -4 -20 -8z"/>
<path d="M2683 2003 c-28 -19 -30 -37 -3 -28 18 6 20 2 20 -34 0 -30 4 -41 15
-41 12 0 15 13 15 60 0 65 -7 71 -47 43z"/>
<path d="M2770 1945 c0 -33 4 -45 15 -45 10 0 15 10 15 30 0 20 5 30 15 30 10
0 15 -10 15 -30 0 -20 5 -30 15 -30 17 0 21 55 5 80 -8 12 -13 13 -30 2 -12
-7 -20 -8 -20 -2 0 5 -7 10 -15 10 -11 0 -15 -12 -15 -45z"/>
<path d="M160 1620 l0 -150 620 0 620 0 0 150 0 150 -620 0 -620 0 0 -150z
m1210 0 l0 -120 -590 0 -590 0 0 120 0 120 590 0 590 0 0 -120z"/>
<path d="M353 1653 c-4 -11 1 -22 15 -31 28 -19 28 -32 0 -33 -19 -1 -20 -2
-4 -6 10 -3 23 0 30 7 8 9 5 16 -11 30 -27 22 -29 37 -5 43 16 4 16 5 -1 6
-10 0 -21 -7 -24 -16z"/>
<path d="M483 1625 c0 -27 2 -38 4 -22 2 15 2 37 0 50 -2 12 -4 0 -4 -28z"/>
<path d="M740 1651 c0 -14 -5 -18 -19 -14 -11 3 -21 -2 -24 -11 -10 -26 3 -46
29 -44 21 2 24 7 24 45 0 24 -2 43 -5 43 -3 0 -5 -9 -5 -19z m-4 -32 c10 -17
-13 -36 -27 -22 -12 12 -4 33 11 33 5 0 12 -5 16 -11z"/>
<path d="M903 1625 c0 -27 2 -38 4 -22 2 15 2 37 0 50 -2 12 -4 0 -4 -28z"/>
<path d="M1003 1625 c0 -27 2 -37 4 -22 5 33 25 31 34 -4 4 -14 7 -17 8 -7 2
26 -10 48 -24 48 -8 0 -16 8 -18 18 -3 9 -5 -5 -4 -33z"/>
<path d="M628 1649 c-6 -17 3 -69 11 -69 7 0 6 69 -2 76 -3 3 -7 0 -9 -7z"/>
<path d="M414 1626 c-10 -25 3 -46 28 -45 l23 2 -22 4 c-29 6 -30 23 -2 23 12
0 19 5 17 13 -7 18 -37 21 -44 3z m33 -2 c-3 -3 -12 -4 -19 -1 -8 3 -5 6 6 6
11 1 17 -2 13 -5z"/>
<path d="M530 1630 c12 -8 10 -10 -9 -10 -17 0 -22 -4 -17 -16 3 -9 6 -18 6
-20 0 -2 10 -4 23 -3 21 0 21 1 -3 11 -25 11 -25 11 -2 15 26 5 30 33 5 33
-15 0 -16 -2 -3 -10z"/>
<path d="M571 1626 c-16 -19 -3 -46 23 -45 21 0 21 0 -1 9 -13 5 -23 14 -23
20 0 6 10 15 23 20 15 6 17 9 6 9 -9 1 -22 -5 -28 -13z"/>
<path d="M854 1632 c19 -8 19 -9 -3 -15 -28 -7 -23 -31 8 -35 19 -3 22 0 19
25 -2 19 -9 29 -23 30 -19 3 -19 3 -1 -5z m16 -32 c0 -5 -7 -10 -15 -10 -8 0
-15 5 -15 10 0 6 7 10 15 10 8 0 15 -4 15 -10z"/>
<path d="M931 1593 c1 -26 3 -41 6 -32 2 10 13 19 24 22 29 8 22 51 -8 55 -21
3 -23 0 -22 -45z m39 17 c0 -11 -7 -20 -15 -20 -8 0 -15 9 -15 20 0 11 7 20
15 20 8 0 15 -9 15 -20z"/>
<path d="M1078 1633 c7 -3 16 -2 19 1 4 3 -2 6 -13 5 -11 0 -14 -3 -6 -6z"/>
<path d="M1126 1631 c-3 -5 1 -15 10 -22 14 -12 14 -14 -3 -20 -16 -7 -15 -8
5 -8 26 -1 30 24 5 34 -17 7 -16 8 2 15 16 7 17 9 3 9 -9 1 -19 -3 -22 -8z"/>
<path d="M1200 1630 c12 -8 10 -10 -9 -10 -17 0 -22 -4 -17 -16 3 -9 6 -18 6
-20 0 -2 10 -4 23 -3 21 0 21 1 -3 11 -25 11 -25 11 -2 15 26 5 30 33 5 33
-15 0 -16 -2 -3 -10z"/>
<path d="M1067 1613 c-16 -15 -6 -33 18 -33 18 0 25 5 25 20 0 20 -28 28 -43
13z m28 -13 c-3 -5 -10 -10 -16 -10 -5 0 -9 5 -9 10 0 6 7 10 16 10 8 0 12 -4
9 -10z"/>
<path d="M770 1588 c0 -4 9 -8 20 -8 11 0 20 4 20 8 0 4 -9 8 -20 8 -11 0 -20
-4 -20 -8z"/>
<path d="M1460 1620 l0 -150 625 0 625 0 0 150 0 150 -625 0 -625 0 0 -150z
m1220 0 l0 -120 -595 0 -595 0 0 120 0 120 595 0 595 0 0 -120z"/>
<path d="M1630 1661 c0 -5 5 -13 10 -16 15 -9 12 -35 -5 -35 -9 0 -12 6 -9 15
4 8 4 15 1 15 -3 0 -10 -15 -16 -32 -9 -26 -9 -30 1 -20 15 15 48 16 48 0 0
-6 3 -9 6 -5 8 7 -14 75 -27 82 -5 4 -9 2 -9 -4z"/>
<path d="M1730 1651 c0 -14 -5 -18 -19 -14 -11 3 -21 -2 -24 -11 -10 -26 3
-46 29 -44 21 2 24 7 24 45 0 24 -2 43 -5 43 -3 0 -5 -9 -5 -19z m-4 -32 c10
-17 -13 -36 -27 -22 -12 12 -4 33 11 33 5 0 12 -5 16 -11z"/>
<path d="M1800 1651 c0 -14 -5 -18 -19 -14 -11 3 -21 -2 -24 -11 -10 -26 3
-46 29 -44 21 2 24 7 24 45 0 24 -2 43 -5 43 -3 0 -5 -9 -5 -19z m-4 -32 c10
-17 -13 -36 -27 -22 -12 12 -4 33 11 33 5 0 12 -5 16 -11z"/>
<path d="M1981 1628 c-1 -41 2 -48 18 -48 11 0 22 4 25 9 4 5 -3 7 -15 4 -17
-5 -20 -2 -17 13 2 10 11 18 21 18 9 -1 14 3 11 8 -3 5 -12 7 -19 4 -8 -3 -15
4 -18 17 -2 12 -5 1 -6 -25z"/>
<path d="M2108 1649 c-6 -17 3 -69 11 -69 7 0 6 69 -2 76 -3 3 -7 0 -9 -7z"/>
<path d="M2308 1649 c-6 -17 3 -69 11 -69 7 0 6 69 -2 76 -3 3 -7 0 -9 -7z"/>
<path d="M1860 1623 c0 -10 4 -14 8 -8 4 6 11 13 16 18 5 4 2 7 -7 7 -10 0
-17 -8 -17 -17z"/>
<path d="M1914 1610 c1 -18 7 -26 24 -28 19 -3 22 1 21 30 -2 30 -2 31 -6 6
-5 -34 -30 -37 -36 -5 -3 19 -4 19 -3 -3z"/>
<path d="M2050 1623 c0 -10 4 -14 8 -8 4 6 11 13 16 18 5 4 2 7 -7 7 -10 0
-17 -8 -17 -17z"/>
<path d="M2141 1606 c1 -21 3 -25 6 -11 3 11 9 25 14 31 5 7 3 11 -6 11 -10 0
-15 -10 -14 -31z"/>
<path d="M2184 1610 c1 -18 7 -26 24 -28 19 -3 22 1 21 30 -2 30 -2 31 -6 6
-5 -34 -30 -37 -36 -5 -3 19 -4 19 -3 -3z"/>
<path d="M2254 1625 c-9 -23 3 -45 23 -44 17 1 17 2 1 6 -10 2 -18 13 -18 23
0 10 8 21 18 23 16 4 16 5 -1 6 -10 0 -20 -6 -23 -14z"/>
<path d="M2421 1608 c2 -28 2 -29 6 -8 3 14 10 28 17 32 7 5 5 8 -6 8 -14 0
-18 -8 -17 -32z"/>
<path d="M2480 1630 c12 -8 10 -10 -9 -10 -17 0 -22 -4 -17 -16 3 -9 6 -18 6
-20 0 -2 10 -4 23 -3 21 0 21 1 -3 11 -25 11 -25 11 -2 15 26 5 30 33 5 33
-15 0 -16 -2 -3 -10z"/>
<path d="M2520 1623 c0 -10 4 -14 8 -8 4 6 11 13 16 18 5 4 2 7 -7 7 -10 0
-17 -8 -17 -17z"/>
<path d="M1884 1602 c3 -6 -2 -13 -11 -15 -16 -4 -16 -5 -1 -6 21 -1 32 15 17
25 -7 4 -9 3 -5 -4z"/>
<path d="M2074 1602 c3 -6 -2 -13 -11 -15 -16 -4 -16 -5 -1 -6 21 -1 32 15 17
25 -7 4 -9 3 -5 -4z"/>
<path d="M2544 1602 c3 -6 -2 -13 -11 -15 -16 -4 -16 -5 -1 -6 21 -1 32 15 17
25 -7 4 -9 3 -5 -4z"/>
<path d="M2350 1588 c0 -4 9 -8 20 -8 11 0 20 4 20 8 0 4 -9 8 -20 8 -11 0
-20 -4 -20 -8z"/>
<path d="M2763 1573 c-28 -19 -30 -37 -3 -28 18 6 20 2 20 -34 0 -30 4 -41 15
-41 12 0 15 13 15 60 0 65 -7 71 -47 43z"/>
<path d="M2850 1528 c0 -49 14 -66 40 -50 12 7 20 8 20 2 0 -5 7 -10 15 -10
11 0 15 12 15 45 0 33 -4 45 -15 45 -10 0 -15 -10 -15 -30 0 -20 -5 -30 -15
-30 -10 0 -15 10 -15 30 0 20 -5 30 -15 30 -10 0 -15 -10 -15 -32z"/>
<path d="M93 1433 c-28 -19 -30 -37 -3 -28 18 6 20 2 20 -34 0 -30 4 -41 15
-41 12 0 15 13 15 60 0 65 -7 71 -47 43z"/>
<path d="M192 1408 c-15 -15 -15 -51 0 -66 28 -28 78 -7 78 33 0 27 -18 45
-45 45 -12 0 -26 -5 -33 -12z m48 -33 c0 -16 -6 -25 -15 -25 -9 0 -15 9 -15
25 0 16 6 25 15 25 9 0 15 -9 15 -25z"/>
<path d="M442 1378 c-7 -7 -12 -16 -12 -22 0 -5 6 -3 13 6 6 9 21 18 32 21 20
5 20 5 0 6 -12 0 -26 -4 -33 -11z"/>
<path d="M741 1348 c-1 -44 1 -48 23 -48 26 0 39 21 29 46 -3 9 -13 14 -24 11
-12 -3 -19 2 -22 17 -2 11 -5 0 -6 -26z m45 -9 c10 -17 -13 -36 -27 -22 -12
12 -4 33 11 33 5 0 12 -5 16 -11z"/>
<path d="M1060 1375 c0 -8 -6 -15 -14 -15 -8 0 -17 -4 -20 -9 -4 -5 3 -7 14
-4 16 4 20 0 20 -17 0 -17 -4 -21 -20 -17 -11 3 -18 1 -14 -4 3 -5 14 -9 25
-9 16 0 19 7 19 45 0 25 -2 45 -5 45 -3 0 -5 -7 -5 -15z"/>
<path d="M1553 1345 c0 -27 2 -38 4 -22 2 15 2 37 0 50 -2 12 -4 0 -4 -28z"/>
<path d="M1728 1369 c-6 -17 3 -69 11 -69 7 0 6 69 -2 76 -3 3 -7 0 -9 -7z"/>
<path d="M2108 1369 c-6 -17 3 -69 11 -69 7 0 6 69 -2 76 -3 3 -7 0 -9 -7z"/>
<path d="M511 1326 c1 -21 3 -25 6 -11 3 11 9 25 14 31 5 7 3 11 -6 11 -10 0
-15 -10 -14 -31z"/>
<path d="M568 1353 c7 -3 16 -2 19 1 4 3 -2 6 -13 5 -11 0 -14 -3 -6 -6z"/>
<path d="M622 1330 c0 -19 2 -27 5 -17 2 9 2 25 0 35 -3 9 -5 1 -5 -18z"/>
<path d="M641 1325 c1 -28 1 -28 8 -6 9 35 29 37 34 4 4 -27 4 -27 6 4 1 29
-2 33 -24 31 -21 -2 -25 -7 -24 -33z"/>
<path d="M826 1351 c-3 -5 3 -7 14 -4 16 4 20 0 20 -17 0 -17 -4 -21 -20 -17
-11 3 -20 1 -20 -5 0 -5 10 -8 23 -6 16 2 22 10 22 28 0 25 -27 40 -39 21z"/>
<path d="M951 1325 c1 -28 1 -28 8 -6 9 35 29 37 34 4 4 -27 4 -27 6 4 1 29
-2 33 -24 31 -21 -2 -25 -7 -24 -33z"/>
<path d="M1108 1353 c7 -3 16 -2 19 1 4 3 -2 6 -13 5 -11 0 -14 -3 -6 -6z"/>
<path d="M1151 1326 c1 -21 3 -25 6 -11 3 11 9 25 14 31 5 7 3 11 -6 11 -10 0
-15 -10 -14 -31z"/>
<path d="M1190 1355 c0 -5 5 -17 10 -25 5 -8 10 -10 10 -5 0 6 -5 17 -10 25
-5 8 -10 11 -10 5z"/>
<path d="M1281 1355 c0 -5 6 -21 13 -34 12 -21 14 -22 20 -5 4 10 4 15 0 11
-5 -4 -14 3 -21 15 -7 13 -12 19 -12 13z"/>
<path d="M1342 1330 c0 -19 2 -27 5 -17 2 9 2 25 0 35 -3 9 -5 1 -5 -18z"/>
<path d="M1374 1349 c-4 -7 1 -16 12 -22 17 -10 17 -11 -1 -18 -16 -6 -17 -8
-3 -8 25 -1 33 20 12 32 -17 10 -17 11 1 18 16 6 17 8 3 8 -9 1 -20 -4 -24
-10z"/>
<path d="M1424 1330 c1 -18 7 -26 24 -28 19 -3 22 1 21 30 -2 30 -2 31 -6 6
-5 -34 -30 -37 -36 -5 -3 19 -4 19 -3 -3z"/>
<path d="M1504 1351 c18 -7 18 -8 3 -14 -24 -9 -21 -37 3 -37 16 0 20 7 20 30
0 25 -4 30 -22 29 -21 0 -21 -1 -4 -8z m16 -31 c0 -5 -4 -10 -10 -10 -5 0 -10
5 -10 10 0 6 5 10 10 10 6 0 10 -4 10 -10z"/>
<path d="M1582 1330 c0 -19 2 -27 5 -17 2 9 2 25 0 35 -3 9 -5 1 -5 -18z"/>
<path d="M1610 1356 c0 -9 30 -14 35 -6 4 6 -3 10 -14 10 -12 0 -21 -2 -21 -4z"/>
<path d="M1678 1353 c7 -3 16 -2 19 1 4 3 -2 6 -13 5 -11 0 -14 -3 -6 -6z"/>
<path d="M1772 1330 c0 -19 2 -27 5 -17 2 9 2 25 0 35 -3 9 -5 1 -5 -18z"/>
<path d="M1806 1351 c-3 -5 3 -7 14 -4 16 4 20 0 20 -17 0 -17 -4 -21 -20 -17
-11 3 -20 1 -20 -5 0 -5 10 -8 23 -6 16 2 22 10 22 28 0 25 -27 40 -39 21z"/>
<path d="M1871 1328 c2 -32 2 -32 6 -5 5 33 25 31 34 -4 4 -14 7 -17 8 -7 2
28 -10 48 -30 48 -15 0 -19 -7 -18 -32z"/>
<path d="M1976 1351 c-3 -5 3 -7 14 -4 16 4 20 0 20 -17 0 -17 -4 -21 -20 -17
-11 3 -20 1 -20 -5 0 -5 10 -8 23 -6 16 2 22 10 22 28 0 25 -27 40 -39 21z"/>
<path d="M2041 1313 c1 -26 3 -41 6 -32 2 10 13 19 24 22 29 8 22 51 -8 55
-21 3 -23 0 -22 -45z m39 17 c0 -11 -7 -20 -15 -20 -8 0 -15 9 -15 20 0 11 7
20 15 20 8 0 15 -9 15 -20z"/>
<path d="M2152 1330 c0 -19 2 -27 5 -17 2 9 2 25 0 35 -3 9 -5 1 -5 -18z"/>
<path d="M2186 1351 c-3 -5 3 -7 14 -4 16 4 20 0 20 -17 0 -17 -4 -21 -20 -17
-11 3 -20 1 -20 -5 0 -5 10 -8 23 -6 16 2 22 10 22 28 0 25 -27 40 -39 21z"/>
<path d="M2251 1328 c2 -32 2 -32 6 -5 5 33 25 31 34 -4 4 -14 7 -17 8 -7 2
28 -10 48 -30 48 -15 0 -19 -7 -18 -32z"/>
<path d="M2316 1351 c-3 -5 1 -15 10 -22 14 -12 14 -14 -3 -20 -16 -7 -15 -8
5 -8 26 -1 30 24 5 34 -17 7 -16 8 2 15 16 7 17 9 3 9 -9 1 -19 -3 -22 -8z"/>
<path d="M430 1334 c0 -18 27 -36 47 -31 14 4 14 5 -4 6 -12 0 -27 9 -32 19
-6 9 -11 12 -11 6z"/>
<path d="M557 1333 c-16 -15 -6 -33 18 -33 18 0 25 5 25 20 0 20 -28 28 -43
13z m28 -13 c-3 -5 -10 -10 -16 -10 -5 0 -9 5 -9 10 0 6 7 10 16 10 8 0 12 -4
9 -10z"/>
<path d="M1097 1333 c-16 -15 -6 -33 18 -33 18 0 25 5 25 20 0 20 -28 28 -43
13z m28 -13 c-3 -5 -10 -10 -16 -10 -5 0 -9 5 -9 10 0 6 7 10 16 10 8 0 12 -4
9 -10z"/>
<path d="M1667 1333 c-16 -15 -6 -33 18 -33 18 0 25 5 25 20 0 20 -28 28 -43
13z m28 -13 c-3 -5 -10 -10 -16 -10 -5 0 -9 5 -9 10 0 6 7 10 16 10 8 0 12 -4
9 -10z"/>
<path d="M1610 1315 c-11 -13 -8 -15 16 -14 17 1 22 3 11 6 -9 2 -15 9 -12 14
10 15 -1 10 -15 -6z"/>
<path d="M890 1308 c0 -4 9 -8 20 -8 11 0 20 4 20 8 0 4 -9 8 -20 8 -11 0 -20
-4 -20 -8z"/>
<path d="M1202 1290 c-7 -11 -8 -20 -3 -20 9 0 24 30 18 36 -1 2 -8 -6 -15
-16z"/>
<path d="M1713 1253 c-28 -19 -30 -37 -3 -28 18 6 20 2 20 -34 0 -30 4 -41 15
-41 12 0 15 13 15 60 0 65 -7 71 -47 43z"/>
<path d="M1800 1179 c0 -46 3 -59 15 -59 8 0 15 9 15 20 0 13 5 18 15 14 21
-8 45 14 45 41 0 29 -17 42 -57 43 l-33 1 0 -60z m60 16 c0 -16 -6 -25 -15
-25 -9 0 -15 9 -15 25 0 16 6 25 15 25 9 0 15 -9 15 -25z"/>
<path d="M173 1213 c12 -3 17 -16 19 -46 l1 -42 4 40 c3 22 10 43 16 47 7 4
-4 7 -23 7 -19 -1 -27 -3 -17 -6z"/>
<path d="M232 1175 c0 -34 2 -42 7 -26 9 35 29 37 34 4 4 -26 4 -25 6 6 1 28
-2 33 -18 28 -15 -3 -21 1 -24 17 -2 11 -4 -1 -5 -29z"/>
<path d="M392 1175 c0 -27 2 -44 5 -37 4 10 8 10 21 0 15 -12 16 -11 3 5 -11
14 -11 20 0 35 13 15 12 16 -3 4 -15 -12 -17 -10 -21 15 -2 16 -4 6 -5 -22z"/>
<path d="M782 1203 c-5 -10 -5 -31 -1 -48 l7 -30 1 28 c0 15 7 27 14 27 8 0 7
4 -3 10 -13 9 -13 11 0 20 9 6 11 10 3 10 -7 0 -16 -8 -21 -17z"/>
<path d="M851 1178 c-1 -41 2 -48 18 -48 11 0 22 4 25 9 4 5 -3 7 -15 4 -17
-5 -20 -2 -17 13 2 10 11 18 21 18 9 -1 14 3 11 8 -3 5 -12 7 -19 4 -8 -3 -15
4 -18 17 -2 12 -5 1 -6 -25z"/>
<path d="M1170 1201 c0 -14 -5 -18 -20 -14 -11 3 -20 0 -20 -6 0 -5 6 -8 14
-5 18 7 31 -15 18 -28 -8 -8 -16 -7 -27 2 -13 11 -14 10 -9 -3 3 -10 16 -16
30 -15 21 2 24 7 24 45 0 24 -2 43 -5 43 -3 0 -5 -9 -5 -19z"/>
<path d="M1480 1186 c0 -43 -28 -56 -59 -29 -20 16 -20 18 -4 25 16 6 16 7 1
7 -26 1 -32 -19 -12 -34 18 -13 18 -14 2 -16 -43 -4 -83 -10 -233 -35 -154
-26 -178 -27 -613 -31 l-452 -4 0 -229 0 -230 455 0 455 0 2 222 3 223 195 27
c248 34 290 38 290 25 0 -6 6 -4 13 5 13 17 127 34 127 19 0 -5 -6 -12 -12
-14 -8 -4 -7 -6 3 -6 9 -1 19 8 22 19 3 14 14 20 31 20 17 0 26 5 26 16 0 12
-7 15 -30 12 -26 -4 -30 -1 -30 19 0 16 -6 23 -17 22 -11 0 -13 -3 -5 -6 17
-7 15 -43 -3 -43 -8 0 -15 5 -15 11 0 6 -7 3 -16 -5 -19 -20 -33 -20 -40 -1
-8 21 -54 15 -54 -7 0 -10 -5 -18 -11 -18 -7 0 -10 14 -7 35 2 19 0 35 -4 35
-4 0 -8 -15 -8 -34z m74 -15 c3 -5 -3 -11 -14 -14 -20 -5 -26 3 -13 16 9 10
21 9 27 -2z m-564 -331 l0 -200 -425 0 -425 0 0 200 0 200 425 0 425 0 0 -200z"/>
<path d="M248 723 c7 -3 16 -2 19 1 4 3 -2 6 -13 5 -11 0 -14 -3 -6 -6z"/>
<path d="M925 720 c-3 -6 1 -13 9 -16 19 -7 21 -30 4 -37 -10 -4 -10 -6 0 -6
21 -2 27 31 8 44 -13 10 -14 14 -4 18 9 4 9 6 1 6 -6 1 -15 -4 -18 -9z"/>
<path d="M583 673 c9 -2 23 -2 30 0 6 3 -1 5 -18 5 -16 0 -22 -2 -12 -5z"/>
<path d="M248 663 c6 -2 18 -2 25 0 6 3 1 5 -13 5 -14 0 -19 -2 -12 -5z"/>
<path d="M302 1160 c0 -19 2 -27 5 -17 2 9 2 25 0 35 -3 9 -5 1 -5 -18z"/>
<path d="M335 1179 c-4 -6 -4 -13 -1 -16 3 -4 6 -1 6 5 0 6 8 13 18 15 15 4
15 5 0 6 -9 0 -20 -4 -23 -10z"/>
<path d="M441 1155 c1 -28 1 -28 8 -6 9 35 29 37 34 4 4 -27 4 -27 6 4 1 29
-2 33 -24 31 -21 -2 -25 -7 -24 -33z"/>
<path d="M514 1176 c-10 -25 3 -46 28 -45 l23 2 -22 4 c-29 6 -30 23 -2 23 12
0 19 5 17 13 -7 18 -37 21 -44 3z m33 -2 c-3 -3 -12 -4 -19 -1 -8 3 -5 6 6 6
11 1 17 -2 13 -5z"/>
<path d="M576 1181 c-3 -5 1 -15 10 -22 14 -12 14 -14 -3 -20 -16 -7 -15 -8 5
-8 26 -1 30 24 5 34 -17 7 -16 8 2 15 16 7 17 9 3 9 -9 1 -19 -3 -22 -8z"/>
<path d="M626 1181 c-3 -5 1 -15 10 -22 14 -12 14 -14 -3 -20 -16 -7 -15 -8 5
-8 26 -1 30 24 5 34 -17 7 -16 8 2 15 16 7 17 9 3 9 -9 1 -19 -3 -22 -8z"/>
<path d="M717 1183 c-3 -5 5 -8 18 -8 13 0 21 3 18 8 -2 4 -10 7 -18 7 -8 0
-16 -3 -18 -7z"/>
<path d="M927 1183 c-3 -5 5 -8 18 -8 13 0 21 3 18 8 -2 4 -10 7 -18 7 -8 0
-16 -3 -18 -7z"/>
<path d="M994 1160 c1 -18 7 -26 24 -28 19 -3 22 1 21 30 -2 30 -2 31 -6 6 -5
-34 -30 -37 -36 -5 -3 19 -4 19 -3 -3z"/>
<path d="M1061 1156 c1 -28 2 -29 8 -7 9 34 29 37 34 6 4 -24 4 -24 3 2 -1 22
-6 28 -23 29 -19 1 -23 -4 -22 -30z"/>
<path d="M1214 1181 c18 -7 18 -8 3 -14 -24 -9 -21 -37 3 -37 16 0 20 7 20 30
0 25 -4 30 -22 29 -21 0 -21 -1 -4 -8z m16 -31 c0 -5 -4 -10 -10 -10 -5 0 -10
5 -10 10 0 6 5 10 10 10 6 0 10 -4 10 -10z"/>
<path d="M1262 1160 c0 -19 2 -27 5 -17 2 9 2 25 0 35 -3 9 -5 1 -5 -18z"/>
<path d="M1302 1160 c0 -19 2 -27 5 -17 2 9 2 25 0 35 -3 9 -5 1 -5 -18z"/>
<path d="M1337 1184 c-4 -4 -7 -17 -6 -28 0 -12 3 -15 6 -8 2 6 14 12 25 12
11 0 18 5 16 13 -5 14 -31 21 -41 11z m30 -10 c-3 -3 -12 -4 -19 -1 -8 3 -5 6
6 6 11 1 17 -2 13 -5z"/>
<path d="M338 1138 c5 -5 16 -8 23 -6 8 3 3 7 -10 11 -17 4 -21 3 -13 -5z"/>
<path d="M717 1138 c2 -5 10 -8 18 -8 8 0 16 3 18 8 3 4 -5 7 -18 7 -13 0 -21
-3 -18 -7z"/>
<path d="M927 1138 c2 -5 10 -8 18 -8 8 0 16 3 18 8 3 4 -5 7 -18 7 -13 0 -21
-3 -18 -7z"/>
<path d="M1030 860 l0 -180 682 -2 681 -3 -399 -53 c-219 -29 -403 -57 -408
-62 -6 -6 -274 -10 -733 -10 l-723 0 0 -180 0 -180 1070 0 1070 0 0 180 0 180
-282 1 -283 1 240 33 c132 18 261 36 288 39 l47 7 0 -271 0 -270 330 0 330 0
0 275 0 275 -277 1 -278 1 125 18 c69 10 180 19 248 19 101 1 122 4 122 16 0
8 3 15 8 15 4 0 52 7 107 15 55 8 106 15 113 15 6 0 12 7 12 15 0 18 0 18
-125 0 -55 -8 -103 -15 -107 -15 -5 0 -8 68 -8 150 l0 150 -925 0 -925 0 0
-180z m1818 13 l-3 -138 -85 -12 c-59 -8 -333 -12 -892 -12 l-808 -1 0 150 0
150 895 0 896 0 -3 -137z m62 -508 l0 -245 -300 0 -300 0 0 245 0 245 300 0
300 0 0 -245z m-670 5 l0 -150 -1040 0 -1040 0 0 150 0 150 1040 0 1040 0 0
-150z"/>
<path d="M1513 863 c-4 -11 1 -22 15 -31 28 -19 28 -32 0 -33 -19 -1 -20 -2
-4 -6 10 -3 23 0 30 7 8 9 5 16 -11 30 -27 22 -29 37 -5 43 16 4 16 5 -1 6
-10 0 -21 -7 -24 -16z"/>
<path d="M1572 835 c0 -34 2 -42 7 -26 9 35 29 37 34 4 4 -26 4 -25 6 6 1 28
-2 33 -18 28 -15 -3 -21 1 -24 17 -2 11 -4 -1 -5 -29z"/>
<path d="M1831 838 c-1 -41 2 -48 18 -48 11 0 22 4 25 9 4 5 -3 7 -15 4 -17
-5 -20 -2 -17 13 2 10 11 18 21 18 9 -1 14 3 11 8 -3 5 -12 7 -19 4 -8 -3 -15
4 -18 17 -2 12 -5 1 -6 -25z"/>
<path d="M2150 861 c0 -14 -5 -18 -19 -14 -11 3 -21 -2 -24 -11 -10 -26 3 -46
29 -44 21 2 24 7 24 45 0 24 -2 43 -5 43 -3 0 -5 -9 -5 -19z m-4 -32 c10 -17
-13 -36 -27 -22 -12 12 -4 33 11 33 5 0 12 -5 16 -11z"/>
<path d="M1647 843 c-3 -5 5 -8 18 -8 13 0 21 3 18 8 -2 4 -10 7 -18 7 -8 0
-16 -3 -18 -7z"/>
<path d="M1711 834 c0 -11 3 -14 6 -6 3 7 2 16 -1 19 -3 4 -6 -2 -5 -13z"/>
<path d="M1740 846 c0 -3 5 -17 12 -31 8 -18 14 -22 20 -13 4 7 8 18 8 23 0 6
-5 3 -10 -5 -8 -13 -10 -13 -10 2 0 9 -4 20 -10 23 -5 3 -10 4 -10 1z"/>
<path d="M1904 835 c-9 -23 3 -45 25 -45 21 0 33 22 25 45 -4 8 -15 15 -25 15
-11 0 -22 -7 -25 -15z m41 -15 c0 -8 -8 -16 -17 -18 -13 -2 -18 3 -18 18 0 15
5 20 18 18 9 -2 17 -10 17 -18z"/>
<path d="M1974 820 c1 -18 7 -26 24 -28 19 -3 22 1 21 30 -2 30 -2 31 -6 6 -5
-34 -30 -37 -36 -5 -3 19 -4 19 -3 -3z"/>
<path d="M2041 816 c1 -28 2 -29 8 -7 9 34 29 37 34 6 4 -24 4 -24 3 2 -1 22
-6 28 -23 29 -19 1 -23 -4 -22 -30z"/>
<path d="M2194 841 c18 -7 18 -8 3 -14 -24 -9 -21 -37 3 -37 16 0 20 7 20 30
0 25 -4 30 -22 29 -21 0 -21 -1 -4 -8z m16 -31 c0 -5 -4 -10 -10 -10 -5 0 -10
5 -10 10 0 6 5 10 10 10 6 0 10 -4 10 -10z"/>
<path d="M2241 818 c2 -28 2 -29 6 -8 3 14 10 28 17 32 7 5 5 8 -6 8 -14 0
-18 -8 -17 -32z"/>
<path d="M2282 820 c0 -19 2 -27 5 -17 2 9 2 25 0 35 -3 9 -5 1 -5 -18z"/>
<path d="M2314 836 c-9 -23 3 -46 23 -45 17 1 17 2 1 6 -25 6 -22 23 3 23 12
0 19 5 17 13 -7 18 -37 21 -44 3z m33 -2 c-3 -3 -12 -4 -19 -1 -8 3 -5 6 6 6
11 1 17 -2 13 -5z"/>
<path d="M2374 839 c-4 -7 1 -16 12 -22 17 -10 17 -11 -1 -18 -16 -6 -17 -8
-3 -8 25 -1 33 20 12 32 -17 10 -17 11 1 18 16 6 17 8 3 8 -9 1 -20 -4 -24
-10z"/>
<path d="M1647 798 c2 -5 10 -8 18 -8 8 0 16 3 18 8 3 4 -5 7 -18 7 -13 0 -21
-3 -18 -7z"/>
<path d="M2430 475 c-7 -9 -10 -18 -6 -22 3 -3 6 -1 6 6 0 6 10 16 23 21 15 6
17 9 6 9 -9 1 -22 -6 -29 -14z"/>
<path d="M2493 445 c0 -27 2 -38 4 -22 2 15 2 37 0 50 -2 12 -4 0 -4 -28z"/>
<path d="M2524 446 c-10 -25 3 -46 28 -45 l23 2 -22 4 c-29 6 -30 23 -2 23 12
0 19 5 17 13 -7 18 -37 21 -44 3z m33 -2 c-3 -3 -12 -4 -19 -1 -8 3 -5 6 6 6
11 1 17 -2 13 -5z"/>
<path d="M2604 452 c19 -8 19 -9 -3 -15 -28 -7 -23 -31 8 -35 19 -3 22 0 19
25 -2 19 -9 29 -23 30 -19 3 -19 3 -1 -5z m16 -32 c0 -5 -7 -10 -15 -10 -8 0
-15 5 -15 10 0 6 7 10 15 10 8 0 15 -4 15 -10z"/>
<path d="M2651 428 c2 -28 2 -29 6 -8 3 14 10 28 17 32 7 5 5 8 -6 8 -14 0
-18 -8 -17 -32z"/>
<path d="M2420 428 c0 -17 36 -35 47 -24 4 3 -1 6 -10 6 -9 0 -21 8 -26 18 -9
15 -10 16 -11 0z"/>
<path d="M2420 273 c0 -10 4 -14 8 -8 4 6 11 13 16 18 5 4 2 7 -7 7 -10 0 -17
-8 -17 -17z"/>
<path d="M2471 240 c1 -25 3 -37 6 -27 2 9 11 17 18 17 8 0 16 4 19 9 4 5 -3
7 -15 4 -17 -5 -20 -2 -17 13 2 10 11 18 21 18 9 -1 14 2 12 6 -3 5 -14 8 -25
7 -17 -1 -20 -8 -19 -47z"/>
<path d="M2554 281 c18 -7 18 -8 3 -14 -24 -9 -21 -37 3 -37 16 0 20 7 20 30
0 25 -4 30 -22 29 -21 0 -21 -1 -4 -8z m16 -31 c0 -5 -4 -10 -10 -10 -5 0 -10
5 -10 10 0 6 5 10 10 10 6 0 10 -4 10 -10z"/>
<path d="M2604 275 c-9 -23 3 -45 23 -44 17 1 17 2 1 6 -10 2 -18 13 -18 23 0
10 8 21 18 23 16 4 16 5 -1 6 -10 0 -20 -6 -23 -14z"/>
<path d="M2680 280 c12 -8 10 -10 -9 -10 -17 0 -22 -4 -17 -16 3 -9 6 -18 6
-20 0 -2 10 -4 23 -3 21 0 21 1 -3 11 -25 11 -25 11 -2 15 26 5 30 33 5 33
-15 0 -16 -2 -3 -10z"/>
<path d="M2444 252 c3 -6 -2 -13 -11 -15 -16 -4 -16 -5 -1 -6 21 -1 32 15 17
25 -7 4 -9 3 -5 -4z"/>
<path d="M301 363 c2 -45 2 -46 8 -13 l6 35 14 -33 c10 -24 16 -30 22 -20 5 7
9 18 9 23 0 6 -4 4 -9 -4 -6 -10 -12 -4 -22 23 -18 50 -29 45 -28 -11z"/>
<path d="M377 368 c8 -59 13 -61 13 -5 0 26 -4 47 -9 47 -5 0 -7 -19 -4 -42z"/>
<path d="M511 365 c0 -31 3 -45 8 -36 6 9 11 10 15 2 4 -6 12 -11 19 -11 6 0
2 7 -9 15 -19 15 -19 15 0 30 11 8 15 15 9 15 -7 0 -15 -6 -20 -12 -5 -9 -10
-3 -14 17 -5 25 -7 21 -8 -20z"/>
<path d="M611 368 c-1 -41 2 -48 18 -48 11 0 22 4 25 9 4 5 -3 7 -15 4 -17 -5
-20 -2 -17 13 2 10 11 18 21 18 9 -1 14 3 11 8 -3 5 -12 7 -19 4 -8 -3 -15 4
-18 17 -2 12 -5 1 -6 -25z"/>
<path d="M930 391 c0 -14 -5 -18 -19 -14 -11 3 -21 -2 -24 -11 -10 -26 3 -46
29 -44 21 2 24 7 24 45 0 24 -2 43 -5 43 -3 0 -5 -9 -5 -19z m-4 -32 c10 -17
-13 -36 -27 -22 -12 12 -4 33 11 33 5 0 12 -5 16 -11z"/>
<path d="M1312 393 c-5 -10 -5 -31 -1 -48 l7 -30 2 30 c1 17 2 34 1 39 -1 5 4
13 11 17 9 6 10 9 1 9 -7 0 -16 -8 -21 -17z"/>
<path d="M1743 365 c0 -27 2 -38 4 -22 2 15 2 37 0 50 -2 12 -4 0 -4 -28z"/>
<path d="M1550 390 c0 -5 -9 -10 -20 -10 -16 0 -20 -6 -19 -32 2 -31 2 -31 6
-5 5 32 30 36 35 5 2 -12 9 -23 16 -24 7 -1 8 0 2 3 -12 6 -13 40 -1 45 5 2 3
9 -5 16 -8 7 -14 8 -14 2z"/>
<path d="M424 372 c19 -8 19 -9 -3 -15 -28 -7 -23 -31 8 -35 19 -3 22 0 19 25
-2 19 -9 29 -23 30 -19 3 -19 3 -1 -5z m16 -32 c0 -5 -7 -10 -15 -10 -8 0 -15
5 -15 10 0 6 7 10 15 10 8 0 15 -4 15 -10z"/>
<path d="M471 348 c2 -28 2 -29 6 -8 3 14 10 28 17 32 7 5 5 8 -6 8 -14 0 -18
-8 -17 -32z"/>
<path d="M684 365 c-9 -23 3 -45 25 -45 10 0 21 7 25 15 8 23 -4 45 -25 45
-11 0 -22 -7 -25 -15z m41 -15 c0 -8 -8 -16 -17 -18 -13 -2 -18 3 -18 18 0 15
5 20 18 18 9 -2 17 -10 17 -18z"/>
<path d="M754 350 c1 -18 7 -26 24 -28 19 -3 22 1 21 30 -2 30 -2 31 -6 6 -5
-34 -30 -37 -36 -5 -3 19 -4 19 -3 -3z"/>
<path d="M821 346 c1 -28 2 -29 8 -7 9 34 29 37 34 6 4 -24 4 -24 3 2 -1 22
-6 28 -23 29 -19 1 -23 -4 -22 -30z"/>
<path d="M974 371 c18 -7 18 -8 3 -14 -24 -9 -21 -37 3 -37 16 0 20 7 20 30 0
25 -4 30 -22 29 -21 0 -21 -1 -4 -8z m16 -31 c0 -5 -4 -10 -10 -10 -5 0 -10 5
-10 10 0 6 5 10 10 10 6 0 10 -4 10 -10z"/>
<path d="M1021 348 c2 -28 2 -29 6 -8 3 14 10 28 17 32 7 5 5 8 -6 8 -14 0
-18 -8 -17 -32z"/>
<path d="M1062 350 c0 -19 2 -27 5 -17 2 9 2 25 0 35 -3 9 -5 1 -5 -18z"/>
<path d="M1094 366 c-9 -23 3 -46 23 -45 17 1 17 2 1 6 -25 6 -22 23 3 23 12
0 19 5 17 13 -7 18 -37 21 -44 3z m33 -2 c-3 -3 -12 -4 -19 -1 -8 3 -5 6 6 6
11 1 17 -2 13 -5z"/>
<path d="M1154 369 c-4 -7 1 -16 12 -22 17 -10 17 -11 -1 -18 -16 -6 -17 -8
-3 -8 25 -1 33 20 12 32 -17 10 -17 11 1 18 16 6 17 8 3 8 -9 1 -20 -4 -24
-10z"/>
<path d="M1241 367 c-17 -21 -3 -49 23 -45 15 2 21 10 21 28 0 28 -26 38 -44
17z m39 -17 c0 -21 -24 -28 -35 -10 -8 14 3 30 21 30 8 0 14 -9 14 -20z"/>
<path d="M1381 333 c1 -26 3 -41 6 -32 2 10 13 19 24 22 29 8 22 51 -8 55 -21
3 -23 0 -22 -45z m39 17 c0 -11 -7 -20 -15 -20 -8 0 -15 9 -15 20 0 11 7 20
15 20 8 0 15 -9 15 -20z"/>
<path d="M1464 371 c18 -7 18 -8 3 -14 -24 -9 -21 -37 3 -37 16 0 20 7 20 30
0 25 -4 30 -22 29 -21 0 -21 -1 -4 -8z m16 -31 c0 -5 -4 -10 -10 -10 -5 0 -10
5 -10 10 0 6 5 10 10 10 6 0 10 -4 10 -10z"/>
<path d="M1592 350 c0 -19 2 -27 5 -17 2 9 2 25 0 35 -3 9 -5 1 -5 -18z"/>
<path d="M1625 369 c-4 -6 -4 -13 -1 -16 3 -4 6 -1 6 5 0 6 8 13 18 15 15 4
15 5 0 6 -9 0 -20 -4 -23 -10z"/>
<path d="M1788 373 c7 -3 16 -2 19 1 4 3 -2 6 -13 5 -11 0 -14 -3 -6 -6z"/>
<path d="M1831 346 c1 -21 3 -25 6 -11 3 11 9 25 14 31 5 7 3 11 -6 11 -10 0
-15 -10 -14 -31z"/>
<path d="M1915 369 c-4 -6 -4 -13 -1 -16 3 -4 6 -1 6 5 0 7 7 12 15 12 9 0 15
-9 15 -21 0 -16 -5 -20 -20 -16 -11 3 -18 1 -14 -4 3 -5 12 -9 20 -9 23 0 16
-18 -8 -23 -20 -5 -20 -5 2 -4 22 2 25 7 28 45 3 36 0 42 -17 42 -11 0 -23 -5
-26 -11z"/>
<path d="M1981 348 c2 -28 2 -29 6 -8 3 14 10 28 17 32 7 5 5 8 -6 8 -14 0
-18 -8 -17 -32z"/>
<path d="M2034 371 c18 -7 18 -8 3 -14 -24 -9 -21 -37 3 -37 16 0 20 7 20 30
0 25 -4 30 -22 29 -21 0 -21 -1 -4 -8z m16 -31 c0 -5 -4 -10 -10 -10 -5 0 -10
5 -10 10 0 6 5 10 10 10 6 0 10 -4 10 -10z"/>
<path d="M2082 350 c0 -19 2 -27 5 -17 2 9 2 25 0 35 -3 9 -5 1 -5 -18z"/>
<path d="M2111 346 c1 -28 2 -29 8 -7 9 34 29 37 34 6 4 -24 4 -24 3 2 -1 22
-6 28 -23 29 -19 1 -23 -4 -22 -30z"/>
<path d="M1777 353 c-16 -15 -6 -33 18 -33 18 0 25 5 25 20 0 20 -28 28 -43
13z m28 -13 c-3 -5 -10 -10 -16 -10 -5 0 -9 5 -9 10 0 6 7 10 16 10 8 0 12 -4
9 -10z"/>
<path d="M1628 328 c5 -5 16 -8 23 -6 8 3 3 7 -10 11 -17 4 -21 3 -13 -5z"/>
<path d="M1680 328 c0 -4 9 -8 20 -8 11 0 20 4 20 8 0 4 -9 8 -20 8 -11 0 -20
-4 -20 -8z"/>
<path d="M5945 1000 c-3 -5 -1 -10 4 -10 6 0 11 5 11 10 0 6 -2 10 -4 10 -3 0
-8 -4 -11 -10z"/>
<path d="M2953 953 c-28 -19 -30 -37 -3 -28 18 6 20 2 20 -34 0 -30 4 -41 15
-41 12 0 15 13 15 60 0 65 -7 71 -47 43z"/>
<path d="M3040 895 c0 -33 4 -45 15 -45 9 0 15 9 15 23 0 12 10 31 22 42 16
13 19 20 9 23 -7 2 -17 -2 -22 -9 -6 -10 -9 -11 -9 -1 0 6 -7 12 -15 12 -11 0
-15 -12 -15 -45z"/>
<path d="M3153 783 c-28 -19 -30 -37 -3 -28 18 6 20 2 20 -34 0 -30 4 -41 15
-41 12 0 15 13 15 60 0 65 -7 71 -47 43z"/>
<path d="M3247 763 c-15 -15 -5 -34 26 -48 l32 -15 -32 6 c-21 4 -33 2 -33 -6
0 -15 26 -23 55 -16 35 9 31 34 -7 52 l-33 15 35 -7 c31 -6 33 -5 21 10 -13
16 -52 22 -64 9z"/>
<path d="M2993 363 c-28 -19 -30 -37 -3 -28 18 6 20 2 20 -34 0 -30 4 -41 15
-41 12 0 15 13 15 60 0 65 -7 71 -47 43z"/>
<path d="M3097 366 c-15 -16 -16 -47 -1 -93 4 -15 44 -18 44 -3 0 6 -4 10 -10
10 -15 0 -12 47 3 53 8 4 9 8 1 14 -6 4 -13 14 -15 22 -4 11 -8 10 -22 -3z"/>
</g>
</svg>
