<?xml version="1.0" standalone="no"?>
<!DOCTYPE svg PUBLIC "-//W3C//DTD SVG 20010904//EN"
 "http://www.w3.org/TR/2001/REC-SVG-20010904/DTD/svg10.dtd">
<svg version="1.0" xmlns="http://www.w3.org/2000/svg"
 width="120.000000pt" height="120.000000pt" viewBox="0 0 120.000000 120.000000"
 preserveAspectRatio="xMidYMid meet">
<metadata>
Created by potrace 1.16, written by Peter Selinger 2001-2019
</metadata>
<g transform="translate(0.000000,120.000000) scale(0.100000,-0.100000)"
fill="#000000" stroke="none">
<path d="M118 1193 c7 -3 16 -2 19 1 4 3 -2 6 -13 5 -11 0 -14 -3 -6 -6z"/>
<path d="M341 1176 c-13 -14 -20 -30 -16 -36 18 -29 100 -95 114 -92 9 2 26 4
39 4 14 0 33 13 49 34 l26 35 -22 21 c-16 14 -20 23 -12 31 22 22 9 27 -72 27
-75 0 -86 -2 -106 -24z"/>
<path d="M1100 1180 c23 -42 -27 -56 -67 -19 -26 25 -29 21 -36 -53 -4 -41 -1
-50 24 -74 15 -14 34 -24 42 -21 15 6 97 -70 97 -89 0 -6 9 -19 20 -29 20 -18
20 -17 20 28 0 37 -4 49 -21 58 -16 8 -20 17 -15 39 3 18 0 33 -9 40 -8 7 -13
16 -10 20 3 5 1 11 -5 15 -6 4 -10 -12 -10 -42 l0 -48 -18 30 c-34 56 -33 70
9 111 35 35 39 36 39 16 0 -12 4 -22 9 -22 5 0 7 -10 4 -21 -4 -15 -2 -20 7
-17 7 2 15 24 17 47 4 36 2 43 -11 38 -9 -4 -16 -2 -16 3 0 6 -18 10 -40 10
-38 0 -40 -1 -30 -20z"/>
<path d="M0 1165 c0 -18 5 -25 20 -25 15 0 20 7 20 25 0 18 -5 25 -20 25 -15
0 -20 -7 -20 -25z"/>
<path d="M60 1129 c0 -42 -3 -50 -17 -47 -26 4 -43 -10 -43 -36 0 -15 19 -38
54 -69 60 -51 67 -54 86 -32 10 13 10 19 -4 33 -9 10 -16 29 -16 42 0 13 -8
32 -17 42 -15 17 -15 20 7 50 l23 31 -23 19 c-38 31 -50 24 -50 -33z"/>
<path d="M721 1149 l-23 -31 68 -69 69 -69 30 30 30 30 -70 70 c-38 38 -72 70
-75 70 -4 0 -17 -14 -29 -31z"/>
<path d="M570 1156 c0 -14 59 -76 64 -67 3 4 -10 23 -29 41 -19 19 -35 30 -35
26z"/>
<path d="M216 1041 l-26 -27 30 -29 30 -29 -25 -14 -26 -13 48 -52 c26 -29 53
-52 58 -52 6 0 11 37 13 85 3 76 1 83 -12 65 -13 -18 -15 -17 -26 23 -9 29
-10 45 -2 54 22 27 -36 16 -62 -11z"/>
<path d="M344 1043 c13 -28 36 -30 36 -4 0 12 -9 20 -23 23 -21 4 -23 2 -13
-19z"/>
<path d="M1184 1059 c-3 -6 -1 -16 5 -22 8 -8 11 -5 11 11 0 24 -5 28 -16 11z"/>
<path d="M1 904 c-1 -21 8 -39 29 -59 36 -34 40 -15 7 29 -13 17 -26 38 -30
46 -3 8 -6 1 -6 -16z"/>
<path d="M534 813 c-18 -2 -35 -12 -39 -21 -3 -9 -17 -37 -30 -62 l-23 -45 99
-3 99 -3 0 -49 0 -50 48 -1 c26 -1 56 -2 67 -3 11 -1 33 -3 49 -4 28 -2 28 -3
13 -20 -22 -25 -21 -48 4 -83 l20 -29 31 23 c16 12 34 32 39 45 7 18 16 22 48
22 59 0 68 20 27 59 -37 36 -38 56 -3 65 l21 5 -24 26 c-13 14 -31 25 -41 25
-10 0 -21 5 -25 11 -4 7 -23 -6 -50 -32 l-44 -43 -29 22 c-23 17 -44 22 -89
22 l-59 0 -7 47 c-7 50 -29 84 -55 81 -9 0 -30 -3 -47 -5z"/>
<path d="M1100 792 c0 -19 -11 -39 -35 -62 -19 -18 -32 -36 -29 -39 3 -3 41
-5 84 -6 l80 0 0 68 0 67 -50 0 c-48 0 -50 -1 -50 -28z"/>
<path d="M1 739 c1 -73 1 -73 15 -41 15 34 32 40 52 20 9 -9 12 -6 12 13 0 29
-25 68 -36 56 -4 -4 -16 0 -26 10 -17 15 -18 13 -17 -58z"/>
<path d="M142 750 c3 -49 2 -52 -49 -102 -41 -41 -55 -50 -65 -40 -22 22 -28
13 -28 -42 0 -49 2 -54 25 -58 29 -6 34 4 27 52 -4 29 -2 33 9 23 24 -24 45
-13 110 55 60 62 64 70 59 102 -4 28 -10 36 -30 38 -14 2 -29 8 -34 13 -21 19
-28 7 -24 -41z"/>
<path d="M405 666 c-15 -11 -17 -18 -9 -26 8 -8 14 -7 23 4 20 24 9 39 -14 22z"/>
<path d="M1122 607 c-31 -32 -52 -61 -52 -75 0 -20 5 -22 65 -22 l65 0 0 53
c0 56 -8 97 -19 97 -4 0 -30 -24 -59 -53z"/>
<path d="M295 561 c-12 -23 -12 -36 -3 -63 6 -18 16 -39 21 -46 11 -14 -5 -32
-29 -32 -20 0 -24 -27 -24 -156 l0 -124 60 47 c33 25 60 49 60 52 0 3 -14 20
-32 38 l-32 33 24 25 23 25 -22 23 c-26 29 -19 57 28 101 37 35 39 55 8 84
-33 31 -63 28 -82 -7z"/>
<path d="M160 526 c24 -24 48 -39 73 -43 37 -6 37 -5 37 30 l0 35 -52 -1 c-29
-1 -62 2 -73 7 -13 6 -8 -4 15 -28z"/>
<path d="M590 482 c0 -21 5 -43 10 -48 8 -8 6 -15 -5 -24 -8 -7 -15 -19 -15
-27 0 -9 -13 -31 -30 -50 -16 -18 -30 -39 -30 -45 0 -7 -14 -26 -31 -44 -33
-34 -32 -56 1 -47 14 4 20 14 20 33 0 37 26 57 85 67 l50 9 0 47 c0 38 3 47
18 47 36 0 31 31 -14 76 -24 24 -47 44 -51 44 -4 0 -8 -17 -8 -38z"/>
<path d="M785 380 c-10 -11 -28 -20 -40 -20 -33 0 -51 -25 -34 -46 10 -13 27
-15 76 -12 l63 4 0 -31 c0 -40 53 -96 72 -77 7 7 21 12 33 12 12 0 26 5 33 12
15 15 16 64 2 73 -5 3 -10 24 -10 46 l0 39 -80 0 c-47 0 -80 4 -80 10 0 16
-15 12 -35 -10z"/>
<path d="M754 209 c-10 -12 -32 -27 -49 -35 -16 -7 -41 -24 -54 -38 -30 -31
-38 -32 -67 -5 l-23 21 -33 -23 c-18 -13 -38 -23 -43 -21 -6 1 -35 -23 -65
-53 l-54 -55 77 0 77 0 -6 27 c-5 23 -4 26 7 16 23 -22 93 -16 117 10 12 13
22 31 22 40 0 31 51 20 90 -18 34 -33 37 -34 58 -19 13 9 28 27 33 41 6 16 14
23 24 19 31 -11 14 25 -31 66 -25 24 -49 44 -53 46 -4 1 -16 -7 -27 -19z"/>
<path d="M90 70 c0 -11 -7 -23 -15 -27 -14 -5 -14 -8 1 -24 22 -24 64 -25 64
-2 0 9 7 24 16 34 17 18 19 17 -48 35 -13 4 -18 0 -18 -16z"/>
<path d="M1064 76 c-3 -9 -12 -16 -20 -16 -20 0 -17 -19 4 -27 9 -4 22 -13 27
-21 7 -9 26 -12 53 -10 l42 3 -50 43 c-40 35 -51 40 -56 28z"/>
</g>
</svg>
