<?xml version="1.0" standalone="no"?>
<!DOCTYPE svg PUBLIC "-//W3C//DTD SVG 20010904//EN"
 "http://www.w3.org/TR/2001/REC-SVG-20010904/DTD/svg10.dtd">
<svg version="1.0" xmlns="http://www.w3.org/2000/svg"
 width="120.000000pt" height="120.000000pt" viewBox="0 0 120.000000 120.000000"
 preserveAspectRatio="xMidYMid meet">
<metadata>
Created by potrace 1.16, written by Peter Selinger 2001-2019
</metadata>
<g transform="translate(0.000000,120.000000) scale(0.100000,-0.100000)"
fill="#000000" stroke="none">
<path d="M0 1108 l0 -93 33 -2 c49 -2 107 -40 114 -74 3 -18 12 -29 22 -29 9
0 36 -19 59 -43 37 -37 42 -48 42 -87 0 -37 -6 -50 -37 -82 -35 -35 -36 -38
-20 -56 9 -10 17 -25 17 -33 0 -8 25 -39 55 -69 l54 -53 -47 -24 c-82 -41
-105 -59 -186 -141 -34 -34 -49 -43 -72 -40 l-29 3 -3 -142 -3 -143 371 0 370
0 0 49 c0 51 -13 72 -33 52 -11 -11 -147 -16 -147 -6 0 3 15 26 33 52 19 28
32 57 30 69 -3 14 4 27 21 37 18 12 25 28 29 64 11 94 17 111 46 118 14 3 42
22 62 41 l36 35 30 -25 c31 -26 69 -34 75 -16 2 6 46 -33 98 -86 57 -57 86
-93 73 -90 -12 4 -24 2 -28 -4 -3 -5 -20 -10 -37 -10 -16 0 -43 -9 -59 -20
l-28 -21 19 -32 c16 -25 20 -50 20 -119 l0 -88 110 0 110 0 0 159 0 158 -87
86 c-72 71 -94 87 -119 87 -40 0 -90 52 -99 103 -8 42 -15 45 -40 17 -24 -26
-34 -25 -80 6 l-38 26 -33 -36 c-37 -40 -40 -41 -59 -22 -11 11 -2 25 60 86
41 41 72 77 69 82 -3 4 -15 8 -28 8 -13 0 -40 18 -66 46 l-45 46 73 69 c56 52
69 69 53 69 -32 0 -71 22 -71 40 0 18 40 60 56 60 16 0 54 44 54 62 0 43 -10
48 -91 48 -58 0 -79 -3 -79 -13 0 -7 -15 -28 -34 -46 -27 -26 -34 -29 -39 -17
-4 9 -14 16 -23 16 -22 0 -76 39 -69 51 4 5 -88 9 -229 9 l-236 0 0 -92z"/>
<path d="M1030 1174 c-6 -14 -10 -28 -10 -32 0 -3 -10 -16 -22 -29 -12 -12
-23 -35 -24 -50 -2 -15 -7 -37 -13 -48 -11 -24 -23 -72 -25 -103 -1 -15 9 -31
31 -48 18 -14 33 -31 33 -39 0 -17 47 -51 83 -60 57 -15 55 -31 -14 -101 l-64
-64 98 -98 97 -97 0 398 0 397 -80 0 c-77 0 -81 -1 -90 -26z"/>
</g>
</svg>
