<?xml version="1.0" standalone="no"?>
<!DOCTYPE svg PUBLIC "-//W3C//DTD SVG 20010904//EN"
 "http://www.w3.org/TR/2001/REC-SVG-20010904/DTD/svg10.dtd">
<svg version="1.0" xmlns="http://www.w3.org/2000/svg"
 width="120.000000pt" height="120.000000pt" viewBox="0 0 120.000000 120.000000"
 preserveAspectRatio="xMidYMid meet">
<metadata>
Created by potrace 1.16, written by Peter Selinger 2001-2019
</metadata>
<g transform="translate(0.000000,120.000000) scale(0.100000,-0.100000)"
fill="#000000" stroke="none">
<path d="M0 919 c0 -249 2 -280 15 -269 10 8 15 31 15 70 0 80 13 90 121 90
l85 0 10 -37 c5 -23 6 -54 1 -78 -5 -22 -11 -50 -13 -63 -4 -18 -9 -21 -30
-16 -19 5 -29 1 -39 -13 -11 -16 -24 -18 -89 -16 -96 4 -98 -5 -11 -88 57 -54
65 -67 65 -99 0 -24 -7 -43 -20 -55 -20 -18 -21 -18 -65 25 l-45 44 0 -78 0
-79 46 6 c33 3 43 2 35 -6 -6 -6 -11 -26 -11 -44 0 -31 -2 -33 -35 -33 l-35 0
0 -90 c0 -82 2 -90 19 -90 11 0 23 4 26 10 3 5 14 10 24 10 10 0 30 9 44 20
16 13 40 20 69 20 36 0 50 -6 73 -30 31 -32 79 -41 88 -16 4 11 16 13 44 9 21
-3 42 -10 47 -14 6 -5 95 -9 198 -9 l188 0 0 45 0 45 38 0 c54 0 82 -10 75
-26 -3 -8 -2 -25 1 -39 l6 -25 130 0 130 0 0 85 0 85 -40 36 c-22 20 -37 40
-34 45 3 5 21 9 41 9 l36 0 -5 103 c-3 59 -11 113 -19 125 -11 18 -11 24 4 40
20 22 23 68 5 75 -10 4 -10 7 0 18 9 10 12 83 12 296 l0 283 -131 0 -131 0 3
-34 c2 -19 0 -38 -4 -42 -4 -4 -7 -17 -7 -28 0 -12 -7 -30 -16 -41 -12 -16
-17 -17 -32 -7 -9 7 -27 16 -39 22 -20 8 -23 17 -23 70 l0 60 -182 -1 c-101
-1 -175 -3 -165 -6 12 -3 17 -15 17 -43 0 -52 -14 -57 -56 -21 -21 19 -46 31
-63 31 -29 0 -57 21 -44 33 3 4 -3 7 -15 7 -11 0 -22 -4 -24 -8 -1 -4 -20 -21
-40 -36 -21 -16 -38 -35 -38 -42 0 -8 -4 -14 -9 -14 -6 0 -18 -13 -27 -29 -12
-20 -27 -31 -53 -35 -64 -10 -90 26 -93 132 -1 19 -7 32 -15 32 -10 0 -13 -54
-13 -281z m1088 99 c31 -31 -14 -118 -60 -118 -10 0 -35 -16 -57 -35 -44 -40
-71 -45 -71 -14 0 26 136 179 159 179 10 0 22 -5 29 -12z m-683 -118 c3 -6 19
-10 36 -10 16 0 29 -3 29 -7 0 -5 -24 -34 -53 -66 -48 -53 -56 -58 -97 -60
-45 -2 -45 -2 -53 38 -5 22 -15 55 -23 73 -22 52 -20 55 39 49 30 -3 60 -1 67
3 14 9 44 -2 55 -20z m542 -122 c18 -18 33 -38 33 -45 0 -8 20 -35 45 -62 46
-49 48 -61 11 -61 -23 0 -92 22 -102 33 -4 4 -17 7 -29 7 -12 0 -29 6 -40 13
-17 13 -17 15 5 55 13 23 21 45 17 48 -7 7 10 44 20 44 4 0 22 -14 40 -32z
m-511 -33 c16 -8 40 -15 54 -15 37 0 150 -115 150 -153 0 -16 -7 -30 -16 -34
-17 -6 -91 42 -144 96 -20 20 -51 48 -70 62 -31 23 -33 28 -21 43 16 19 12 19
47 1z m379 -15 c18 0 21 -6 18 -47 -1 -27 -2 -67 -2 -90 -1 -37 -6 -45 -42
-72 -37 -27 -47 -30 -88 -24 -25 3 -47 6 -48 7 -1 1 3 42 9 91 8 76 13 94 36
118 23 24 33 28 62 23 19 -3 44 -6 55 -6z m101 -111 c5 -3 28 -12 52 -19 l43
-13 -26 -27 c-20 -21 -25 -36 -25 -76 0 -40 -5 -55 -24 -73 l-23 -22 1 57 c0
51 -2 59 -32 85 -22 20 -32 38 -32 57 0 16 2 31 5 33 5 6 48 4 61 -2z m-706
-53 c0 -8 11 -21 24 -30 17 -11 23 -22 19 -36 -3 -11 0 -27 7 -35 11 -13 5
-15 -47 -15 -58 0 -59 1 -112 54 -47 48 -51 54 -32 59 12 3 38 3 59 0 27 -4
42 -1 51 11 14 17 31 13 31 -8z m589 -112 c-35 -35 -72 -64 -82 -64 -10 0 -43
-23 -73 -52 l-55 -52 -59 59 c-61 60 -66 75 -25 75 13 0 27 5 30 10 3 6 25 10
47 10 23 0 46 6 52 14 13 17 50 22 88 11 23 -6 36 -1 75 28 72 53 73 33 2 -39z
m-466 -252 c-2 -50 1 -97 7 -113 10 -23 9 -30 -10 -49 l-22 -22 -32 31 c-27
26 -40 31 -82 31 -42 0 -55 5 -77 28 -36 38 -37 105 -3 144 26 29 38 32 147
35 l76 2 -4 -87z m581 40 c-4 -24 0 -47 10 -67 9 -16 16 -39 16 -50 0 -18 -5
-20 -47 -17 -34 3 -56 11 -75 29 l-27 26 56 63 c30 35 59 61 64 58 5 -3 6 -22
3 -42z"/>
</g>
</svg>
