<?xml version="1.0" standalone="no"?>
<!DOCTYPE svg PUBLIC "-//W3C//DTD SVG 20010904//EN"
 "http://www.w3.org/TR/2001/REC-SVG-20010904/DTD/svg10.dtd">
<svg version="1.0" xmlns="http://www.w3.org/2000/svg"
 width="120.000000pt" height="120.000000pt" viewBox="0 0 120.000000 120.000000"
 preserveAspectRatio="xMidYMid meet">
<metadata>
Created by potrace 1.16, written by Peter Selinger 2001-2019
</metadata>
<g transform="translate(0.000000,120.000000) scale(0.100000,-0.100000)"
fill="#000000" stroke="none">
<path d="M0 908 c0 -290 0 -291 20 -273 16 14 20 31 20 75 0 78 14 90 112 90
l76 0 6 -32 c3 -18 2 -55 -2 -83 -7 -46 -10 -50 -37 -53 -16 -2 -34 -10 -40
-19 -9 -11 -28 -14 -83 -11 l-72 3 0 -32 c0 -26 11 -42 60 -89 63 -60 77 -98
45 -124 -14 -11 -23 -7 -60 30 l-45 44 0 -92 0 -92 30 0 c27 0 30 -3 30 -30 0
-27 -3 -30 -30 -30 l-30 0 0 -96 0 -97 48 7 c26 3 59 15 74 26 37 28 89 26
116 -3 22 -24 23 -24 307 -26 l285 -2 0 41 c0 39 1 40 33 40 43 0 55 -9 59
-45 l3 -30 138 -3 137 -3 0 93 c0 90 -1 93 -32 125 l-32 33 32 0 32 0 0 118
c0 72 -4 122 -11 129 -8 8 -8 13 0 17 8 5 11 113 11 347 l0 339 -134 0 -133 0
-7 -57 c-7 -60 -28 -103 -41 -83 -4 6 -18 15 -31 20 -21 8 -24 16 -24 65 l0
55 -202 -1 c-157 -1 -197 -4 -175 -12 20 -8 27 -18 27 -39 0 -34 -6 -35 -37
-6 -12 11 -40 24 -60 28 -22 3 -37 11 -36 18 2 8 -10 12 -33 12 -38 0 -114
-51 -114 -77 0 -7 -4 -13 -9 -13 -6 0 -18 -13 -27 -29 -31 -53 -114 -42 -114
15 0 14 -5 34 -10 45 -8 13 -7 25 0 39 9 18 8 20 -15 20 l-25 0 0 -292z m392
-15 c7 -6 23 -13 36 -15 22 -3 21 -6 -25 -56 -38 -42 -55 -53 -83 -55 -33 -2
-35 0 -43 38 -5 22 -15 54 -23 72 l-13 32 69 -3 c37 -1 74 -7 82 -13z m406
-173 c21 0 22 -4 22 -79 l0 -79 -39 -29 c-31 -23 -47 -28 -78 -25 l-39 4 9 81
c7 69 13 87 35 110 18 19 33 26 47 23 11 -3 30 -6 43 -6z m-38 -285 c-19 -19
-42 -35 -52 -35 -11 0 -41 -21 -69 -47 l-50 -47 -52 52 c-50 50 -51 52 -25 52
15 0 30 5 33 10 3 6 26 10 50 10 30 0 45 5 49 16 5 13 16 15 65 9 39 -4 61 -3
65 4 4 6 10 11 14 11 3 0 -9 -16 -28 -35z m-439 -179 c1 -11 0 -51 -1 -88 -1
-36 3 -75 8 -85 8 -15 7 -22 -8 -30 -14 -10 -22 -7 -41 13 -18 19 -32 24 -74
24 -43 0 -56 4 -78 28 -35 36 -36 86 -3 124 26 29 40 32 134 34 57 1 62 0 63
-20z"/>
</g>
</svg>
