<?xml version="1.0" standalone="no"?>
<!DOCTYPE svg PUBLIC "-//W3C//DTD SVG 20010904//EN"
 "http://www.w3.org/TR/2001/REC-SVG-20010904/DTD/svg10.dtd">
<svg version="1.0" xmlns="http://www.w3.org/2000/svg"
 width="120.000000pt" height="120.000000pt" viewBox="0 0 120.000000 120.000000"
 preserveAspectRatio="xMidYMid meet">

<g transform="translate(0.000000,120.000000) scale(0.100000,-0.100000)"
fill="#000000" stroke="none">
<path d="M0 861 l0 -340 55 -52 c53 -50 67 -80 44 -95 -18 -11 -87 65 -92 100
-2 17 -5 -29 -5 -101 l-2 -133 25 0 c18 0 25 -5 25 -20 0 -15 -7 -20 -25 -20
l-25 0 0 -100 0 -100 54 0 c38 0 60 6 79 20 32 26 69 26 92 0 17 -19 31 -20
317 -20 l298 0 0 35 c0 28 4 35 19 35 37 0 51 -12 51 -41 l0 -29 145 0 145 0
0 102 c0 80 -3 105 -17 120 -15 17 -15 18 0 18 16 0 17 40 17 480 l0 480 -139
0 -139 0 -7 -55 c-7 -62 -13 -69 -49 -55 -23 8 -26 15 -26 60 l0 50 -217 0
c-194 -1 -216 -2 -199 -15 11 -8 26 -15 33 -15 7 0 13 -7 13 -16 0 -13 -5 -12
-26 5 -15 12 -40 21 -55 21 -16 0 -29 5 -29 10 0 6 -23 10 -51 10 -39 0 -58
-6 -85 -26 -19 -15 -34 -33 -34 -40 0 -8 -4 -14 -9 -14 -6 0 -18 -13 -28 -30
-19 -32 -62 -41 -80 -17 -17 20 -25 98 -12 113 9 12 5 14 -25 14 l-36 0 0
-339z m588 255 c10 -10 9 -16 -8 -31 -16 -14 -22 -15 -35 -5 -8 7 -15 23 -15
37 0 21 3 23 23 18 12 -4 28 -13 35 -19z m488 -127 c9 -15 -42 -66 -72 -72
-27 -5 -24 1 25 56 27 29 36 33 47 16z m-499 -24 c7 -20 5 -21 -37 -30 l-35
-7 24 26 c28 30 39 32 48 11z m-194 -83 c7 -5 19 -11 27 -14 21 -6 -58 -86
-90 -90 -20 -3 -25 2 -33 32 -4 19 -12 47 -16 61 -8 26 -8 26 46 23 30 -1 59
-7 66 -12z m-160 -119 c2 -16 2 -48 -2 -73 -5 -41 -9 -45 -36 -48 -16 -2 -34
-10 -38 -18 -6 -10 -27 -14 -69 -14 -59 0 -60 1 -45 18 12 13 17 36 17 72 0
76 16 90 100 90 66 0 68 -1 73 -27z m737 -49 c0 -7 12 -26 26 -43 27 -32 23
-33 -31 -11 -11 5 -33 11 -48 15 -28 6 -28 7 -13 30 9 13 16 34 16 46 l0 22
25 -23 c14 -13 25 -29 25 -36z m-150 -74 c0 -65 -1 -69 -34 -94 -21 -15 -48
-26 -67 -26 l-32 0 7 72 c8 91 35 126 91 120 l35 -4 0 -68z m-250 5 c35 -35
61 -67 58 -71 -8 -8 -71 39 -125 93 -38 39 -40 43 -20 43 14 0 46 -23 87 -65z
m-259 -52 c13 -16 12 -17 -3 -4 -10 7 -18 15 -18 17 0 8 8 3 21 -13z m623 -4
c28 -8 35 -14 27 -22 -6 -6 -12 -27 -12 -46 -1 -23 -3 -28 -6 -14 -2 12 -18
33 -34 47 -27 23 -38 46 -21 46 4 0 24 -5 46 -11z m-719 -65 c35 -23 33 -54
-3 -54 -19 0 -39 11 -62 35 l-34 35 37 0 c21 0 49 -7 62 -16z m504 -80 c25 -5
29 -9 20 -20 -6 -8 -20 -14 -30 -14 -11 0 -40 -19 -65 -42 l-45 -41 -34 33
-34 33 25 14 c15 7 43 13 64 13 24 0 40 5 44 15 6 17 11 18 55 9z m-397 -275
c2 -56 0 -103 -3 -105 -4 -2 -14 5 -24 16 -14 15 -31 20 -69 20 -90 0 -135 72
-82 132 21 24 33 28 93 31 37 1 71 4 75 5 4 1 8 -43 10 -99z m589 -4 c30 -31
-19 -49 -52 -19 -17 15 -17 18 9 50 l27 34 3 -27 c2 -16 8 -32 13 -38z"/>
</g>
</svg>
