<?xml version="1.0" standalone="no"?>
<!DOCTYPE svg PUBLIC "-//W3C//DTD SVG 20010904//EN"
 "http://www.w3.org/TR/2001/REC-SVG-20010904/DTD/svg10.dtd">
<svg version="1.0" xmlns="http://www.w3.org/2000/svg"
 width="120.000000pt" height="120.000000pt" viewBox="0 0 120.000000 120.000000"
 preserveAspectRatio="xMidYMid meet">

<g transform="translate(0.000000,120.000000) scale(0.100000,-0.100000)"
fill="#000000" stroke="none">
<path d="M3 1158 c3 -24 8 -56 12 -72 5 -19 4 -31 -5 -36 -18 -11 -3 -30 25
-30 37 0 37 -14 0 -50 -30 -29 -35 -40 -35 -81 0 -29 6 -51 15 -59 9 -8 12
-17 6 -24 -4 -6 -11 -46 -14 -89 -5 -67 -4 -77 9 -66 9 7 14 31 14 69 0 80 13
90 121 90 l85 0 10 -37 c5 -23 6 -54 1 -78 -5 -22 -11 -50 -13 -63 -4 -18 -9
-21 -30 -16 -19 5 -29 1 -39 -13 -11 -16 -24 -18 -89 -16 -96 4 -98 -5 -11
-88 57 -54 65 -67 65 -99 0 -24 -7 -43 -20 -55 -20 -18 -21 -18 -65 25 -37 36
-45 41 -45 24 0 -11 18 -38 41 -59 l40 -40 -37 -5 c-21 -3 -40 -11 -42 -19 -4
-11 5 -13 43 -9 34 4 44 3 36 -5 -6 -6 -11 -26 -11 -44 0 -31 -2 -33 -35 -33
-44 0 -46 -18 -3 -22 24 -2 34 -9 36 -23 2 -11 13 -30 24 -41 19 -22 19 -22
-3 -38 -28 -19 -60 -21 -77 -4 -9 9 -12 8 -12 -7 0 -11 5 -27 10 -35 8 -12 13
-13 30 -3 11 7 26 13 34 13 7 0 25 9 39 20 16 13 40 20 69 20 36 0 50 -6 73
-30 31 -32 79 -41 88 -16 4 11 16 13 44 9 21 -3 42 -10 47 -14 6 -5 26 -9 45
-9 l36 1 -32 14 c-18 8 -33 19 -33 26 0 7 -9 9 -24 5 -29 -7 -56 2 -56 18 0
19 44 56 66 56 11 0 46 27 79 60 33 33 63 60 67 60 4 0 8 -54 8 -120 0 -131
17 -168 22 -47 l3 72 74 3 c96 4 111 -8 111 -90 0 -32 4 -58 10 -58 6 0 10 20
10 45 l0 45 38 0 c54 0 82 -10 75 -26 -7 -19 5 -64 18 -64 6 0 10 10 9 23 -1
12 -2 47 -1 77 l1 54 58 -57 c40 -40 65 -57 83 -57 14 0 34 -9 44 -20 10 -11
27 -20 38 -20 19 0 18 3 -8 30 -17 18 -39 30 -55 30 -18 0 -43 17 -85 60 -55
56 -58 60 -34 60 14 0 34 9 44 20 19 21 19 20 67 -27 37 -36 48 -54 48 -79 0
-18 8 -38 20 -49 19 -18 20 -17 20 3 0 11 -4 23 -9 26 -15 10 -18 86 -4 86 20
0 16 7 -27 46 -22 20 -37 40 -34 45 3 5 21 9 40 9 42 0 45 18 4 27 -26 5 -30
10 -30 38 0 35 31 72 50 60 15 -9 5 67 -12 102 -9 18 -8 27 5 41 20 22 22 68
5 75 -10 4 -10 7 0 18 6 7 12 22 12 33 0 18 -3 17 -29 -8 -18 -17 -31 -24 -35
-17 -4 6 -15 11 -25 11 -20 0 -111 92 -111 111 0 7 -10 23 -22 36 l-22 23 29
30 c16 17 41 33 55 37 14 3 35 15 47 26 16 14 26 17 35 9 7 -5 24 -12 38 -14
16 -2 27 -12 31 -28 6 -20 7 -17 8 17 1 37 -1 41 -19 36 -28 -7 -60 24 -60 57
0 30 17 42 49 33 14 -3 23 0 27 11 9 24 5 25 -44 16 -23 -4 -45 -3 -48 1 -3 5
-25 9 -50 9 -48 0 -54 8 -26 33 13 12 37 17 79 17 75 0 93 6 93 32 0 18 -2 18
-22 4 -15 -11 -45 -16 -87 -16 -52 0 -69 -4 -87 -21 -25 -24 -48 -17 -39 11 8
25 -4 90 -17 90 -5 0 -8 -16 -7 -34 2 -19 0 -38 -4 -42 -4 -4 -7 -17 -7 -28 0
-12 -7 -30 -16 -41 -12 -16 -17 -17 -32 -7 -9 7 -27 16 -39 22 -20 8 -23 17
-23 70 0 33 -4 60 -10 60 -5 0 -10 -25 -10 -56 l0 -57 -52 7 c-64 8 -105 25
-112 46 -5 13 -11 25 -34 60 -2 2 -7 -1 -11 -9 -6 -10 -17 -10 -47 -2 -22 6
-50 10 -64 10 -17 -1 -19 -3 -7 -6 12 -3 17 -15 17 -43 0 -52 -14 -57 -56 -21
-21 19 -46 31 -63 31 -29 0 -57 21 -44 33 3 4 -3 7 -15 7 -11 0 -22 -4 -24 -8
-1 -4 -20 -21 -40 -36 -21 -16 -38 -35 -38 -42 0 -8 -4 -14 -9 -14 -6 0 -18
-13 -27 -29 -12 -20 -27 -31 -53 -35 -64 -10 -90 26 -93 132 -1 20 -7 32 -16
32 -11 0 -13 -10 -9 -42z m582 -8 c41 -16 48 -50 17 -82 -30 -33 -48 -35 -76
-9 -17 16 -20 29 -18 66 4 51 7 51 77 25z m-270 0 c3 -5 19 -10 35 -10 19 0
42 -11 62 -29 l33 -29 -24 -26 c-14 -14 -34 -26 -46 -26 -11 0 -40 -19 -63
-43 -41 -41 -45 -43 -76 -33 -30 9 -56 42 -56 72 0 6 11 23 25 38 14 15 25 30
25 34 0 8 62 61 72 62 4 0 10 -4 13 -10z m377 -87 c10 -9 18 -25 18 -36 0 -12
10 -31 22 -44 21 -23 21 -23 1 -23 -11 0 -41 -3 -67 -6 l-46 -7 0 31 c0 17 -5
34 -11 38 -7 4 0 17 17 35 32 33 41 35 66 12z m-197 -63 c-14 -14 -25 -33 -25
-42 0 -24 -11 -48 -21 -48 -6 0 -23 10 -39 21 -23 17 -36 20 -67 14 l-38 -7
34 36 c19 20 44 36 56 36 12 0 34 13 50 30 l29 30 23 -22 23 -22 -25 -26z
m316 54 c65 -29 81 -41 69 -49 -7 -4 -9 -17 -5 -32 3 -14 3 -34 0 -44 -6 -19
-8 -19 -43 7 -67 49 -102 87 -102 111 0 28 31 31 81 7z m183 -22 c2 -4 -17
-32 -44 -62 l-49 -55 -1 33 c0 18 11 50 25 72 22 34 28 39 45 30 10 -5 21 -14
24 -18z m94 -14 c31 -31 -14 -118 -60 -118 -10 0 -35 -16 -57 -35 -44 -40 -71
-45 -71 -14 0 26 136 179 159 179 10 0 22 -5 29 -12z m-908 -65 c0 -7 6 -13
14 -13 9 0 16 -14 18 -37 3 -21 8 -46 12 -55 7 -16 0 -18 -80 -18 -76 0 -91 3
-111 22 -32 30 -29 46 22 100 66 69 76 73 102 40 13 -15 23 -33 23 -39z m402
50 c10 -9 18 -30 18 -48 0 -28 -4 -33 -31 -39 -60 -12 -79 -8 -79 16 0 19 54
88 69 88 2 0 13 -7 23 -17z m219 -79 c8 -9 12 -35 10 -62 -3 -55 -40 -102 -80
-102 -13 0 -35 -10 -48 -22 -16 -15 -27 -18 -34 -11 -7 7 -5 14 6 23 11 9 15
33 15 95 0 93 -1 92 76 94 27 1 46 -5 55 -15z m-396 -24 c3 -6 19 -10 36 -10
16 0 29 -3 29 -7 0 -5 -24 -34 -53 -66 -48 -53 -56 -58 -97 -60 -45 -2 -45 -2
-53 38 -5 22 -15 55 -23 73 -22 52 -20 55 39 49 30 -3 60 -1 67 3 14 9 44 -2
55 -20z m233 -126 c-11 -10 -26 0 -83 52 l-70 64 45 0 c25 1 61 7 80 13 l35
12 3 -64 c2 -43 -1 -68 -10 -77z m231 107 c9 -6 12 -19 7 -42 -19 -94 -16 -89
-54 -89 l-35 0 21 23 c15 16 22 36 22 63 0 52 10 63 39 45z m-264 -144 c41
-47 58 -87 37 -87 -4 0 -29 22 -56 49 -37 38 -57 50 -88 54 -62 8 -73 25 -42
65 l26 32 39 -31 c21 -17 59 -54 84 -82z m342 41 c18 -18 33 -38 33 -45 0 -8
20 -35 45 -62 46 -49 48 -61 11 -61 -23 0 -92 22 -102 33 -4 4 -17 7 -29 7
-12 0 -29 6 -40 13 -17 13 -17 15 5 55 13 23 21 45 17 48 -7 7 10 44 20 44 4
0 22 -14 40 -32z m-511 -33 c16 -8 40 -15 54 -15 37 0 150 -115 150 -153 0
-16 -7 -30 -16 -34 -17 -6 -91 42 -144 96 -20 20 -51 48 -70 62 -31 23 -33 28
-21 43 16 19 12 19 47 1z m379 -15 c18 0 21 -6 18 -47 -1 -27 -2 -67 -2 -90
-1 -37 -6 -45 -42 -72 -37 -27 -47 -30 -88 -24 -25 3 -47 6 -48 7 -1 1 3 42 9
91 8 76 13 94 36 118 23 24 33 28 62 23 19 -3 44 -6 55 -6z m-473 -47 c19 -21
38 -51 41 -67 4 -26 1 -24 -54 30 -32 31 -56 61 -53 66 10 16 31 7 66 -29z
m28 -137 c-7 -7 -14 -6 -22 2 -7 7 -24 12 -38 12 -39 0 -58 27 -52 73 l4 39
59 -58 c39 -38 55 -62 49 -68z m80 83 c0 -5 -11 -9 -25 -9 -20 0 -25 5 -25 25
0 25 1 25 25 9 14 -9 25 -20 25 -25z m466 -10 c5 -3 28 -12 52 -19 l43 -13
-26 -27 c-20 -21 -25 -36 -25 -76 0 -40 -5 -55 -24 -73 l-23 -22 1 57 c0 51
-2 59 -32 85 -22 20 -32 38 -32 57 0 16 2 31 5 33 5 6 48 4 61 -2z m230 -25
c38 -18 41 -26 19 -44 -8 -7 -15 -20 -15 -29 0 -29 -82 -101 -115 -101 -21 0
-42 -13 -77 -47 -26 -26 -48 -43 -48 -37 0 6 16 25 35 44 31 30 35 40 35 85 0
45 4 55 34 84 33 32 72 58 89 60 5 1 24 -6 43 -15z m-617 -34 c31 -22 62 -40
68 -40 21 0 32 -24 19 -43 -7 -9 -17 -17 -22 -17 -5 0 -36 27 -69 60 -33 33
-64 60 -69 60 -5 0 -20 -10 -33 -22 -26 -25 -31 -13 -7 20 22 32 48 27 113
-18z m-319 6 c0 -8 11 -21 24 -30 17 -11 23 -22 19 -36 -3 -11 0 -27 7 -35 11
-13 5 -15 -47 -15 -58 0 -59 1 -112 54 -47 48 -51 54 -32 59 12 3 38 3 59 0
27 -4 42 -1 51 11 14 17 31 13 31 -8z m309 -113 c-17 -13 -23 -12 -50 11 -17
14 -40 26 -52 26 -19 0 -19 2 8 30 l29 30 43 -42 c41 -40 42 -42 22 -55z
m-187 70 c22 -20 23 -31 1 -55 -15 -17 -17 -17 -35 -2 -23 22 -25 74 -1 74 9
0 25 -7 35 -17z m467 -69 c-35 -35 -72 -64 -82 -64 -10 0 -43 -23 -73 -52
l-55 -52 -59 59 c-61 60 -66 75 -25 75 13 0 27 5 30 10 3 6 25 10 47 10 23 0
46 6 52 14 13 17 50 22 88 11 23 -6 36 -1 75 28 72 53 73 33 2 -39z m91 -50
l0 -87 -66 -74 -67 -74 -71 3 -71 3 -3 46 c-3 43 -1 47 52 97 30 29 63 52 73
52 10 0 45 27 78 60 33 33 63 60 67 60 4 0 8 -39 8 -86z m-453 51 c13 -9 19
-22 16 -34 -4 -15 -14 -18 -63 -17 -32 0 -61 4 -65 8 -11 10 47 57 70 58 11 0
30 -7 42 -15z m733 -14 c0 -10 -11 -28 -25 -41 -17 -16 -25 -34 -25 -59 -1
-26 -9 -45 -30 -68 -16 -18 -34 -33 -38 -33 -5 0 -17 -9 -27 -20 -14 -15 -29
-20 -54 -18 l-35 3 1 53 c1 49 4 58 44 98 33 33 51 44 74 44 22 0 41 10 65 35
34 35 50 37 50 6z m-870 -36 c5 -14 14 -25 19 -25 5 0 5 -14 -2 -35 -8 -28
-16 -35 -36 -36 -14 0 -58 -1 -98 -2 l-72 -2 20 21 c10 11 19 34 19 50 0 43
17 54 82 54 53 0 59 -2 68 -25z m215 -86 l50 -49 -65 -65 c-40 -40 -73 -65
-86 -65 -12 0 -27 -7 -34 -15 -21 -25 -25 -8 -22 91 3 78 1 94 -11 94 -21 0
-10 37 17 56 38 26 94 9 151 -47z m-182 -117 c-2 -50 1 -97 7 -113 10 -23 9
-30 -10 -49 l-22 -22 -32 31 c-27 26 -40 31 -82 31 -42 0 -55 5 -77 28 -36 38
-37 105 -3 144 26 29 38 32 147 35 l76 2 -4 -87z m581 40 c-4 -24 0 -47 10
-67 9 -16 16 -39 16 -50 0 -18 -5 -20 -47 -17 -34 3 -56 11 -75 29 l-27 26 56
63 c30 35 59 61 64 58 5 -3 6 -22 3 -42z"/>
<path d="M1170 1196 c0 -2 7 -9 15 -16 12 -10 15 -10 15 4 0 9 -7 16 -15 16
-8 0 -15 -2 -15 -4z"/>
</g>
</svg>
