<?xml version="1.0" standalone="no"?>
<!DOCTYPE svg PUBLIC "-//W3C//DTD SVG 20010904//EN"
 "http://www.w3.org/TR/2001/REC-SVG-20010904/DTD/svg10.dtd">
<svg version="1.0" xmlns="http://www.w3.org/2000/svg"
 width="120.000000pt" height="120.000000pt" viewBox="0 0 120.000000 120.000000"
 preserveAspectRatio="xMidYMid meet">

<g transform="translate(0.000000,120.000000) scale(0.100000,-0.100000)"
fill="#000000" stroke="none">
<path d="M0 1148 l0 -52 49 48 c33 33 51 44 56 36 5 -8 20 -10 41 -7 19 3 37
1 40 -5 4 -5 -18 -34 -47 -64 l-53 -54 107 0 108 0 -16 -30 c-9 -16 -20 -30
-25 -30 -5 0 -12 -11 -16 -25 -3 -14 -13 -25 -22 -25 -9 0 -36 -19 -60 -42
-39 -39 -47 -43 -90 -42 -26 1 -52 -5 -59 -12 -17 -16 -18 -236 -2 -267 13
-26 60 -77 70 -77 4 0 14 16 24 36 9 20 26 39 36 41 12 4 19 15 20 32 0 17 11
35 30 50 l31 24 28 -29 c25 -26 29 -37 31 -97 l2 -68 -79 -80 c-43 -43 -81
-79 -85 -79 -3 0 -21 15 -40 33 -19 17 -45 41 -57 51 l-22 19 0 -76 0 -76 48
-3 c43 -3 47 -5 47 -29 0 -14 7 -34 15 -44 10 -12 15 -40 15 -83 l0 -64 -48
53 c-26 29 -45 59 -43 65 3 7 -4 20 -15 30 -19 17 -19 15 -19 -94 l0 -112 112
0 112 0 -27 28 c-15 15 -27 37 -27 47 0 10 -10 30 -22 44 -20 22 -20 23 -2 8
11 -9 34 -17 50 -17 23 0 43 -13 84 -55 l55 -55 335 2 335 3 3 32 c3 33 15 42
27 23 3 -5 21 -10 40 -10 19 0 37 -5 40 -10 5 -9 69 -40 81 -40 2 0 4 51 4
113 0 101 -2 116 -20 132 -25 23 -25 35 0 35 18 0 20 7 20 78 0 64 -4 82 -18
95 -26 24 -32 21 -32 -13 0 -19 -5 -30 -13 -30 -15 0 -97 56 -109 74 -10 15
11 26 50 26 17 0 32 4 32 9 0 11 -25 32 -42 35 -7 1 -18 5 -24 9 -7 4 -14 -1
-17 -13 -3 -11 -16 -24 -29 -29 -12 -5 -33 -20 -46 -34 l-23 -24 71 -66 72
-66 32 34 c24 25 38 33 54 28 25 -6 29 -35 7 -53 -8 -7 -15 -18 -15 -26 0 -14
-52 -54 -71 -54 -7 0 -22 9 -34 20 -20 19 -24 19 -51 5 -37 -19 -44 -19 -44 3
0 10 -18 36 -40 57 -25 24 -38 45 -35 55 3 10 -9 29 -30 50 -19 19 -35 41 -35
50 0 8 -7 26 -16 38 -19 28 -11 42 25 42 16 0 37 10 51 25 30 31 36 31 44 -1
7 -28 48 -74 66 -74 9 0 25 29 29 55 1 6 16 25 33 42 42 44 81 44 125 1 l33
-32 0 116 c0 84 -3 118 -12 121 -10 4 -10 7 0 18 19 20 16 183 -3 199 -14 12
-14 15 0 30 8 9 15 35 15 60 l0 43 -25 -23 c-14 -13 -25 -31 -25 -40 0 -9 -9
-25 -21 -36 -21 -19 -21 -19 -43 9 -11 15 -36 46 -55 67 l-33 40 -329 0 c-274
0 -329 -2 -329 -14 0 -7 -12 -21 -26 -31 -26 -16 -27 -16 -58 14 -32 31 -32
31 -144 31 l-112 0 0 -52z m783 2 c19 -16 43 -30 53 -30 10 0 33 -14 50 -31
l32 -31 34 26 34 25 57 -57 c31 -32 57 -67 57 -78 0 -11 -24 -43 -52 -71 -41
-40 -63 -53 -96 -58 -37 -6 -47 -4 -68 16 -13 12 -24 30 -24 38 -1 9 -9 26
-19 39 -17 20 -28 22 -103 22 -91 0 -86 3 -130 -77 -22 -40 -23 -53 -3 -53 25
0 17 -34 -14 -64 -29 -28 -30 -28 -42 -8 -7 11 -19 17 -29 15 -10 -3 -21 0
-24 6 -4 6 -16 11 -28 11 -17 0 -18 -2 -8 -15 12 -15 8 -110 -5 -123 -3 -3
-31 20 -63 50 -52 52 -59 56 -76 43 -15 -11 -23 -12 -33 -3 -13 11 -43 61 -43
72 0 3 24 6 53 8 l52 3 3 41 c3 36 13 50 97 134 52 52 95 89 95 83 0 -7 20 1
44 17 24 17 57 30 73 30 19 0 38 9 53 25 13 14 27 25 31 25 5 0 24 -13 42 -30z
m-213 -585 c23 -24 23 -25 5 -45 -10 -11 -25 -20 -34 -20 -9 0 -66 -50 -128
-112 -110 -110 -112 -112 -132 -94 -20 19 -19 20 112 157 72 76 137 138 143
138 6 1 21 -10 34 -24z m150 -165 c0 -42 -16 -52 -50 -30 -12 8 -10 14 15 40
16 16 30 30 32 30 2 0 3 -18 3 -40z m-176 -129 c14 -16 15 -23 6 -41 -6 -12
-9 -28 -6 -37 4 -10 -16 -38 -57 -80 -53 -55 -67 -64 -92 -61 l-30 3 21 21
c16 16 19 26 12 39 -8 13 -3 24 24 49 18 18 41 45 51 59 10 15 25 27 33 27 11
0 13 6 9 20 -8 25 7 26 29 1z m276 -16 c10 -12 10 -21 1 -41 -6 -14 -11 -31
-11 -39 0 -8 -9 -24 -20 -35 -25 -25 -91 -27 -111 -4 -11 14 -5 24 48 75 34
32 65 59 71 59 5 0 15 -7 22 -15z"/>
<path d="M725 1139 c-8 -24 -1 -73 13 -84 11 -9 9 -14 -7 -29 -28 -26 -26 -36
7 -36 37 0 108 70 90 88 -7 7 -17 12 -22 12 -6 0 -25 14 -43 32 -24 23 -34 28
-38 17z"/>
<path d="M0 948 l1 -83 19 24 c14 16 20 38 20 72 0 27 1 52 3 57 1 4 -8 8 -20
10 -22 3 -23 1 -23 -80z"/>
</g>
</svg>
