<?xml version="1.0" standalone="no"?>
<!DOCTYPE svg PUBLIC "-//W3C//DTD SVG 20010904//EN"
 "http://www.w3.org/TR/2001/REC-SVG-20010904/DTD/svg10.dtd">
<svg version="1.0" xmlns="http://www.w3.org/2000/svg"
 width="120.000000pt" height="120.000000pt" viewBox="0 0 120.000000 120.000000"
 preserveAspectRatio="xMidYMid meet">

<g transform="translate(0.000000,120.000000) scale(0.100000,-0.100000)"
fill="#000000" stroke="none">
<path d="M720 463 c1 -100 3 -110 25 -138 l25 -30 57 57 57 58 -37 38 c-20 21
-37 45 -37 54 0 27 -40 68 -66 68 -24 0 -24 0 -24 -107z m59 71 c12 -15 21
-34 21 -42 0 -9 14 -31 32 -49 l32 -33 -46 -47 -47 -47 -20 25 c-17 20 -20 39
-21 122 0 107 10 121 49 71z"/>
</g>
</svg>
