<?xml version="1.0" standalone="no"?>
<!DOCTYPE svg PUBLIC "-//W3C//DTD SVG 20010904//EN"
 "http://www.w3.org/TR/2001/REC-SVG-20010904/DTD/svg10.dtd">
<svg version="1.0" xmlns="http://www.w3.org/2000/svg"
 width="120.000000pt" height="120.000000pt" viewBox="0 0 120.000000 120.000000"
 preserveAspectRatio="xMidYMid meet">
<metadata>
Created by potrace 1.16, written by Peter Selinger 2001-2019
</metadata>
<g transform="translate(0.000000,120.000000) scale(0.100000,-0.100000)"
fill="#000000" stroke="none">
<path d="M0 1117 l0 -83 243 -242 243 -242 140 0 139 0 210 -210 c115 -115
213 -210 217 -210 5 0 8 241 8 535 l0 535 -600 0 -600 0 0 -83z"/>
<path d="M0 262 l0 -262 273 0 272 0 -63 58 c-35 31 -157 149 -272 262 l-210
204 0 -262z"/>
<path d="M581 182 c-6 -11 -11 -57 -11 -101 l0 -81 193 0 192 0 -66 65 -67 65
-78 0 c-76 0 -79 1 -115 36 -36 35 -37 36 -48 16z"/>
</g>
</svg>
