<?xml version="1.0" standalone="no"?>
<!DOCTYPE svg PUBLIC "-//W3C//DTD SVG 20010904//EN"
 "http://www.w3.org/TR/2001/REC-SVG-20010904/DTD/svg10.dtd">
<svg version="1.0" xmlns="http://www.w3.org/2000/svg"
 width="120.000000pt" height="120.000000pt" viewBox="0 0 120.000000 120.000000"
 preserveAspectRatio="xMidYMid meet">
<metadata>
Created by potrace 1.16, written by Peter Selinger 2001-2019
</metadata>
<g transform="translate(0.000000,120.000000) scale(0.100000,-0.100000)"
fill="#000000" stroke="none">
<path d="M0 862 l0 -338 68 -67 67 -67 207 0 c114 -1 210 -5 212 -9 3 -4 -24
-36 -59 -71 l-65 -64 0 -123 0 -123 385 0 385 0 0 600 0 600 -600 0 -600 0 0
-338z"/>
<path d="M230 200 c-22 -22 -17 -45 11 -61 27 -14 64 23 50 50 -16 28 -39 33
-61 11z"/>
</g>
</svg>
