<?xml version="1.0" standalone="no"?>
<!DOCTYPE svg PUBLIC "-//W3C//DTD SVG 20010904//EN"
 "http://www.w3.org/TR/2001/REC-SVG-20010904/DTD/svg10.dtd">
<svg version="1.0" xmlns="http://www.w3.org/2000/svg"
 width="120.000000pt" height="120.000000pt" viewBox="0 0 120.000000 120.000000"
 preserveAspectRatio="xMidYMid meet">
<metadata>
Created by potrace 1.16, written by Peter Selinger 2001-2019
</metadata>
<g transform="translate(0.000000,120.000000) scale(0.100000,-0.100000)"
fill="#000000" stroke="none">
<path d="M0 600 l0 -600 338 0 c230 0 341 3 349 11 8 8 13 8 17 0 5 -7 86 -11
252 -11 l244 0 0 600 0 600 -242 0 -242 0 72 -73 72 -72 0 -104 0 -104 65 -68
c36 -37 65 -73 65 -81 0 -8 14 -27 30 -43 29 -28 41 -65 20 -65 -5 0 -14 -9
-20 -20 -8 -15 -6 -24 10 -40 14 -14 20 -33 20 -68 0 -41 5 -53 30 -77 17 -16
30 -36 30 -45 0 -25 -105 -124 -124 -117 -23 9 -56 -26 -49 -52 5 -20 1 -21
-73 -21 -66 0 -81 -3 -101 -22 l-23 -22 -48 47 c-40 39 -54 47 -86 47 -30 0
-37 3 -32 15 7 20 -29 56 -49 49 -13 -5 -15 9 -15 97 l0 104 -91 91 -92 92 0
56 0 57 77 80 c65 69 75 83 66 99 -6 11 -16 20 -22 20 -7 0 1 14 18 31 18 19
35 28 47 25 24 -6 59 28 50 50 -4 11 13 35 53 75 l58 59 -337 0 -337 0 0 -600z"/>
</g>
</svg>
