<?xml version="1.0" standalone="no"?>
<!DOCTYPE svg PUBLIC "-//W3C//DTD SVG 20010904//EN"
 "http://www.w3.org/TR/2001/REC-SVG-20010904/DTD/svg10.dtd">
<svg version="1.0" xmlns="http://www.w3.org/2000/svg"
 width="120.000000pt" height="120.000000pt" viewBox="0 0 120.000000 120.000000"
 preserveAspectRatio="xMidYMid meet">
<metadata>
Created by potrace 1.16, written by Peter Selinger 2001-2019
</metadata>
<g transform="translate(0.000000,120.000000) scale(0.100000,-0.100000)"
fill="#000000" stroke="none">
<path d="M0 698 l0 -503 88 88 c48 48 95 87 105 87 10 0 17 8 17 20 0 27 30
40 92 40 51 0 54 2 114 61 63 62 84 68 84 23 0 -18 5 -24 23 -24 27 0 87 -58
87 -83 0 -10 8 -17 18 -17 25 0 42 -19 42 -47 0 -14 6 -23 15 -23 8 0 15 -9
15 -20 0 -14 7 -20 23 -20 31 0 97 -68 97 -101 0 -17 22 -47 78 -102 l77 -77
113 0 112 0 0 350 0 350 -59 0 c-33 0 -63 5 -66 10 -4 6 -57 10 -126 10 l-121
0 -64 62 -65 62 80 80 c43 45 81 90 83 101 2 16 12 21 45 23 25 2 48 11 58 23
10 10 24 19 32 19 7 0 13 5 13 12 0 7 19 32 42 55 l42 43 -547 0 -547 0 0
-502z"/>
</g>
</svg>
