<?xml version="1.0" standalone="no"?>
<!DOCTYPE svg PUBLIC "-//W3C//DTD SVG 20010904//EN"
 "http://www.w3.org/TR/2001/REC-SVG-20010904/DTD/svg10.dtd">
<svg version="1.0" xmlns="http://www.w3.org/2000/svg"
 width="120.000000pt" height="120.000000pt" viewBox="0 0 120.000000 120.000000"
 preserveAspectRatio="xMidYMid meet">
<metadata>
Created by potrace 1.16, written by Peter Selinger 2001-2019
</metadata>
<g transform="translate(0.000000,120.000000) scale(0.100000,-0.100000)"
fill="#000000" stroke="none">
<path d="M618 1163 c3 -21 14 -51 25 -67 11 -15 21 -46 23 -69 2 -22 9 -44 16
-48 10 -6 10 -15 2 -37 -8 -21 -8 -46 -1 -83 5 -30 10 -68 9 -85 0 -21 7 -39
21 -52 19 -17 29 -19 81 -12 37 6 66 16 81 30 18 17 24 18 34 7 16 -21 84 -13
120 14 22 16 38 20 60 16 21 -5 37 0 55 14 22 17 29 19 41 9 13 -11 15 14 15
194 l0 206 -293 0 -293 0 4 -37z"/>
<path d="M284 779 c-9 -19 -33 -47 -54 -64 -26 -21 -35 -34 -30 -44 10 -19 -7
-69 -34 -101 -43 -51 -47 -66 -26 -93 11 -14 30 -27 43 -31 23 -5 24 -7 19
-113 -2 -60 -9 -114 -14 -121 -7 -8 -7 -17 2 -27 10 -12 1 -27 -54 -87 -36
-40 -66 -79 -66 -85 0 -10 48 -13 205 -13 113 0 205 4 205 9 0 5 -21 34 -47
65 -40 47 -51 54 -72 49 -21 -5 -23 -3 -16 13 4 10 10 29 12 41 3 12 11 28 19
34 8 6 14 18 14 26 0 8 11 29 24 46 35 47 41 84 16 92 -11 3 -20 12 -20 18 1
15 35 57 48 57 5 0 26 14 47 30 21 17 54 33 74 36 45 7 63 20 85 62 9 17 21
32 26 32 6 0 10 9 10 20 0 11 -4 20 -8 20 -5 0 -15 12 -22 26 -17 31 -78 64
-118 64 -16 0 -35 6 -41 14 -7 8 -27 18 -44 22 -18 3 -37 10 -43 15 -6 5 -36
11 -67 15 l-56 7 -17 -34z"/>
</g>
</svg>
