<?xml version="1.0" standalone="no"?>
<!DOCTYPE svg PUBLIC "-//W3C//DTD SVG 20010904//EN"
 "http://www.w3.org/TR/2001/REC-SVG-20010904/DTD/svg10.dtd">
<svg version="1.0" xmlns="http://www.w3.org/2000/svg"
 width="120.000000pt" height="120.000000pt" viewBox="0 0 120.000000 120.000000"
 preserveAspectRatio="xMidYMid meet">
<metadata>
Created by potrace 1.16, written by Peter Selinger 2001-2019
</metadata>
<g transform="translate(0.000000,120.000000) scale(0.100000,-0.100000)"
fill="#000000" stroke="none">
<path d="M0 1045 l0 -156 27 -24 c20 -16 33 -21 44 -15 10 6 20 5 27 -2 15
-15 76 -1 97 22 14 16 21 18 32 8 12 -10 28 2 89 64 63 64 74 81 74 110 0 19
4 38 9 44 5 5 12 30 15 57 l7 47 -210 0 -211 0 0 -155z"/>
<path d="M917 1182 c-10 -10 -17 -30 -17 -44 0 -13 -11 -35 -25 -48 -19 -17
-22 -27 -15 -41 6 -10 10 -26 10 -36 0 -10 16 -34 34 -54 26 -28 40 -35 59
-32 13 3 44 -4 68 -15 24 -11 55 -23 69 -27 14 -4 33 -14 43 -23 15 -14 19
-13 37 3 18 17 20 31 20 177 l0 158 -133 0 c-117 0 -136 -2 -150 -18z"/>
<path d="M894 451 c-16 -3 -43 -15 -58 -27 -23 -17 -27 -24 -19 -40 6 -10 13
-43 17 -73 5 -41 15 -64 42 -95 26 -30 33 -47 29 -64 -4 -15 0 -24 10 -29 9
-3 14 -12 11 -20 -3 -8 -1 -34 5 -59 l11 -44 129 0 129 0 0 220 0 220 -24 6
c-14 3 -32 2 -41 -3 -9 -5 -36 -7 -59 -3 -25 4 -57 1 -77 -6 -29 -10 -37 -9
-54 5 -13 12 -30 15 -51 12z"/>
<path d="M0 220 l0 -220 210 0 c175 0 210 2 210 14 0 8 3 21 6 29 3 8 -8 30
-25 49 -16 19 -39 59 -51 89 -22 55 -70 108 -142 157 -38 25 -47 49 -28 68 8
8 6 15 -5 24 -13 11 -20 9 -44 -14 -32 -31 -56 -29 -86 4 -42 46 -45 33 -45
-200z"/>
</g>
</svg>
